SplineFontDB: 3.2
FontName: twoweekendgo-semibold
FullName: Two Weekend Go Semi-Bold
FamilyName: Two Weekend Go
Weight: Semi-Bold
Copyright: Copyright (c) 2023, CtrlSTheWorld
UComments: "(c) Copyright 2023 by CtrlSTheWorld.+AAoA-Created with FontForge (http://fontforge.org)"
Version: 0.1
ItalicAngle: 0
UnderlinePosition: -500
UnderlineWidth: 50
Ascent: 800
Descent: 200
InvalidEm: 0
LayerCount: 2
Layer: 0 0 "Back" 1
Layer: 1 0 "Fore" 0
HasVMetrics: 1
XUID: [1021 519 -1351378580 18688]
StyleMap: 0x0000
FSType: 0
OS2Version: 0
OS2_WeightWidthSlopeOnly: 0
OS2_UseTypoMetrics: 1
CreationTime: 1664896815
ModificationTime: 1677906975
PfmFamily: 33
TTFWeight: 600
TTFWidth: 5
LineGap: 90
VLineGap: 90
OS2TypoAscent: 0
OS2TypoAOffset: 1
OS2TypoDescent: 0
OS2TypoDOffset: 1
OS2TypoLinegap: 90
OS2WinAscent: 0
OS2WinAOffset: 1
OS2WinDescent: 0
OS2WinDOffset: 1
HheadAscent: 0
HheadAOffset: 1
HheadDescent: 0
HheadDOffset: 1
OS2XHeight: 600
OS2Vendor: 'PfEd'
Lookup: 1 0 0 "'zero' Slashed Zero in Latin lookup 2" { "'zero' Slashed Zero"  } ['zero' ('DFLT' <'dflt' > 'latn' <'dflt' > ) ]
Lookup: 258 0 0 "'kern' horizontal kerning lookup" { "'kern' ASCII letter to ASCII letter" [150,15,2] "'kern' multi-symbols" [150,15,2] } ['kern' ('DFLT' <'dflt' > 'latn' <'dflt' > ) ]
MarkAttachClasses: 1
DEI: 91125
LangName: 1033
Encoding: ISO8859-1
UnicodeInterp: none
NameList: AGL For New Fonts
DisplaySize: -48
AntiAlias: 1
FitToEm: 0
WidthSeparation: 150
WinInfo: 0 39 14
BeginPrivate: 0
EndPrivate
Grid
-1000 811.584060669 m 0
 2000 811.584060669 l 1024
-1000 600 m 0
 2000 600 l 1024
  Named: "the x-height"
EndSplineSet
TeXData: 1 0 0 503316 251658 167772 0 1048576 167772 783286 444596 497025 792723 393216 433062 380633 303038 157286 324010 404750 52429 2506097 1059062 262144
BeginChars: 276 203

StartChar: zero
Encoding: 48 48 0
Width: 847
Flags: W
HStem: -12.1963 108.524<239.834 610.124> 699.443 108.886<239.137 609.174>
VStem: 74.0088 115.939<145.099 649.816> 658.041 115.939<144.965 648.753>
LayerCount: 2
UndoRedoHistory
Layer: 1
Undoes
UndoOperation
Index: 0
Type: 12
WasModified: 0
WasOrder2: 0
Layer: 0
EndUndoOperation
EndUndoes
Redoes
EndRedoes
EndUndoRedoHistory
Fore
SplineSet
569.814846567 691.373046875 m 0
 539.003368444 696.474609375 481.738220597 699.443359375 424.992230522 699.443359375 c 0
 367.480653188 699.443359375 309.206410682 696.510742188 278.176749929 691.373046875 c 0
 238.159718119 684.75 211.237540161 664.169921875 205.239465926 631.170898438 c 0
 192.60078125 561.0234375 189.948242188 495.403320312 189.948242188 397.143554688 c 0
 189.948242188 299.950195312 192.599902344 234.325195312 205.240439956 164.173828125 c 0
 217.007691472 99.43359375 295.63136024 96.328125 424.540280791 96.328125 c 0
 552.043676639 96.328125 630.984879055 99.4345703125 642.749208482 164.173828125 c 0
 655.389746094 234.325195312 658.04140625 299.950195312 658.04140625 397.143554688 c 0
 658.04140625 495.403320312 655.388867188 561.024414062 642.749208482 631.170898438 c 0
 636.753082306 664.168945312 609.833826437 684.75 569.814846567 691.373046875 c 0
99.9716796875 104.725585938 m 0
 74.6767578125 168.631835938 74.0087890625 276.857421875 74.0087890625 396.673828125 c 0
 74.0087890625 641.897460938 83.849609375 762.013671875 227.398639172 795.374023438 c 0
 265.584495347 804.790039062 344.449723455 808.329101562 424.992230522 808.329101562 c 0
 595.178577176 808.329101562 711.052148438 801.3515625 746.854882813 693.559570312 c 0
 769.163476563 626.393554688 773.980859376 518.0703125 773.980859376 397.3984375 c 0
 773.980859376 125.884765625 755.05703125 25.8916015625 619.637434293 -0.2802734375 c 0
 570.224913026 -10.408203125 498.809063248 -12.1962890625 424.673722845 -12.1962890625 c 0
 253.376982455 -12.1962890625 146.075195312 -11.7568359375 99.9716796875 104.725585938 c 0
EndSplineSet
Validated: 1
Substitution2: "'zero' Slashed Zero" zero.slash
EndChar

StartChar: one
Encoding: 49 49 1
Width: 865
Flags: W
HStem: 0 110<106.469 391.465 525.534 772.229> 785 20G<435.909 470.209>
VStem: 391.465 134.069<110 682.482>
LayerCount: 2
UndoRedoHistory
Layer: 1
Undoes
UndoOperation
Index: 0
Type: 12
WasModified: 0
WasOrder2: 0
Layer: 0
EndUndoOperation
EndUndoes
Redoes
EndRedoes
EndUndoRedoHistory
Fore
SplineSet
106.46875 110 m 1
 391.464521736 110 l 1
 391.464521736 133.298828125 391.464521736 666.836914062 391.464521736 682.482421875 c 1
 126.473632812 585.504882812 l 1
 90 682.381835938 l 1
 387.008428664 794.994140625 l 2
 407.516145376 802.666015625 425.608044723 805 446.209374084 805 c 0
 494.20822392 805 525.533547895 772.303710938 525.533547895 737.83203125 c 2
 525.533547895 719.017578125 525.533547895 133.322265625 525.533547895 110 c 1
 772.228777616 110 l 1
 772.228777616 135 772.228777616 25 772.228777616 0 c 1
 106.46875 0 l 1
 106.46875 25 106.46875 135 106.46875 110 c 1
EndSplineSet
Validated: 37
EndChar

StartChar: two
Encoding: 50 50 2
Width: 849
Flags: W
HStem: 0 110<208.321 773.77> 701.443 106.886<244.08 612.392>
VStem: 650.441 113.441<516.001 665.142>
LayerCount: 2
UndoRedoHistory
Layer: 1
Undoes
UndoOperation
Index: 0
Type: 12
WasModified: 0
WasOrder2: 0
Layer: 0
EndUndoOperation
EndUndoes
Redoes
EndRedoes
EndUndoRedoHistory
Fore
SplineSet
208.321466678 110 m 1
 773.770117187 110 l 1
 773.770117187 135 773.770117187 25 773.770117187 0 c 1
 83.146484375 0 l 1
 89.47265625 183.053710938 93.201171875 289.216796875 172.173828125 356.12890625 c 0
 242.585846436 415.803710938 320.221969155 432.727539062 403.985307184 444.979492188 c 0
 450.954116962 451.849609375 504.691464409 461.090820312 548.297480378 473.508789062 c 0
 583.380839529 483.5 610.874729343 496.092773438 622.153998562 506.635742188 c 0
 638.350072545 521.772460938 650.440512055 547.747070312 650.440512055 591.814453125 c 0
 650.440512055 645.256835938 634.459188329 683.026367188 573.002545255 693.286132812 c 0
 542.11462523 698.444335938 484.730427952 701.443359375 427.868464256 701.443359375 c 0
 370.226566668 701.443359375 311.821329528 698.265625 280.733301309 692.704101562 c 0
 240.630642954 685.532226562 213.651177619 663.24609375 207.640122678 627.51171875 c 0
 205.133401488 612.6015625 203.889802268 602.625 198.4453125 558.9609375 c 1
 82 575.595703125 l 1
 88.763671875 629.034179688 94.3017578125 672.79296875 117.541992188 714.337890625 c 0
 140.25390625 754.938476562 177.334960938 782.456054688 229.847251602 795.374023438 c 0
 268.10012933 804.786132812 347.139937825 808.329101562 427.868464256 808.329101562 c 0
 527.653147648 808.329101562 590.78191432 803.482421875 621.335995307 793.97265625 c 0
 761.836523437 753.233398438 763.881445312 660.3671875 763.881445312 594.099609375 c 0
 763.881445312 592.06640625 763.879492187 590.05078125 763.879492187 588.052734375 c 0
 763.879492187 468.239257812 707.328710937 394.612304688 509.207076646 361.962890625 c 0
 497.688653732 360.064453125 486.399623138 358.248046875 475.369268991 356.473632812 c 0
 391.047580293 342.909179688 318.198436046 331.189453125 277.63601691 303.62890625 c 0
 231.962541641 272.595703125 215.928506489 229.759765625 208.321466678 110 c 1
EndSplineSet
Validated: 37
EndChar

StartChar: three
Encoding: 51 51 3
Width: 850
Flags: W
HStem: -12.1963 108.524<245.169 613.276> 372 100<242.139 598.117> 699.443 108.886<258.531 599.167>
VStem: 98.8545 115.242<588.21 661.839> 642.661 110.956<508.748 662.697> 655.442 114.82<134.844 336.055>
LayerCount: 2
UndoRedoHistory
Layer: 1
Undoes
UndoOperation
Index: 0
Type: 12
WasModified: 0
WasOrder2: 0
Layer: 0
EndUndoOperation
EndUndoes
Redoes
EndRedoes
EndUndoRedoHistory
Fore
SplineSet
726.561035156 716.88671875 m 0xf8
 735.762207032 703.024414062 753.617675782 670.03125 753.617675782 593.26171875 c 0xf8
 753.617675782 498.424804688 723.765136719 453.817382812 698.671386719 430.21484375 c 1
 722.768066406 410.995117188 739.642089844 386.290039062 751.384277344 359.138671875 c 0
 766.861816406 323.353515625 770.262207032 291.643554688 770.262207032 246.389648438 c 0
 770.262207032 246.114257812 770.262207032 245.837890625 770.262207032 245.561523438 c 0
 770.262207032 168.82421875 769.997558594 36.87109375 623.208847325 1.0078125 c 0
 572.672010036 -12.0390625 500.298617997 -12.1962890625 426.145704742 -12.1962890625 c 0
 237.153507754 -12.1962890625 157.250976562 -1.5361328125 113.279296875 83.1953125 c 0
 102.994140625 103.016601562 88.0986328125 147.435546875 87.9248046875 196.124023438 c 2
 87.9248046875 221.124023438 87.845703125 243.174804688 87.845703125 218.174804688 c 1
 198.622070312 232.540039062 l 1
 202.903320312 200.869140625 205.653320312 172.401367188 205.754882812 171.797851562 c 0
 211.773563316 136.06640625 238.813676806 113.779296875 279.006985879 106.606445312 c 0
 320.219679838 99.2509765625 366.332660645 96.328125 426.01167813 96.328125 c 0
 625.976447944 96.328125 637.439147284 128.047851562 646.916883156 156.470703125 c 0
 651.382226563 170.067382812 655.441894532 195.126953125 655.441894532 248.762695312 c 0xf4
 655.441894532 332.717773438 627.182687449 350.032226562 593.406024699 359.927734375 c 0
 555.399208161 371.0625 493.024005699 372 406.430096667 372 c 2
 242.138906392 372 l 1
 242.138906392 472 l 1
 437.335459376 472 l 2
 529.64946767 472.50390625 581.253626371 483.1640625 607.14717644 497.908203125 c 0
 636.615421684 514.6875 642.661293659 540.028320312 642.661293659 593.063476562 c 0
 642.661293659 653.470703125 617.324394263 672.680664062 584.759840799 683.87109375 c 0
 550.739582237 695.561523438 497.422426475 699.443359375 426.465607676 699.443359375 c 0
 264.954735873 699.443359375 219.611674361 681.858398438 215.478371919 601.228515625 c 2
 214.096039055 574.280273438 l 1
 98.8544921875 589.111328125 l 1
 101.901367188 638.078125 103.490234375 663.615234375 118.686523438 694.122070312 c 0
 167.68359375 792.486328125 229.696932319 808.329101562 426.465607676 808.329101562 c 0
 567.017456635 808.329101562 671.338378906 800.08984375 726.561035156 716.88671875 c 0xf8
EndSplineSet
Validated: 5
EndChar

StartChar: four
Encoding: 52 52 4
Width: 905
Flags: W
HStem: 0 21G<528 655> 161 114<236.541 528 655 845.2>
VStem: 528 127<0 161 275 505>
LayerCount: 2
UndoRedoHistory
Layer: 1
Undoes
UndoOperation
Index: 0
Type: 12
WasModified: 0
WasOrder2: 0
Layer: 0
EndUndoOperation
EndUndoes
Redoes
EndRedoes
EndUndoRedoHistory
Fore
SplineSet
528 161 m 1
 162 161 l 2
 120.173828125 161 75 183.431640625 75 233.302734375 c 0
 75 263.170898438 96.1962890625 289.208984375 119.125976562 317.374023438 c 0
 123.876953125 323.2109375 123.876953125 323.2109375 530.976665296 831.22265625 c 1
 632.419099507 754.775390625 l 1
 632.419099507 734.138671875 236.541487829 275 236.541487829 275 c 1
 528 275 l 1
 528 505 l 1
 655 505 l 1
 655 275 l 1
 845.2 275 l 1
 845.2 161 l 1
 655 161 l 1
 655 0 l 1
 528 0 l 1
 528 161 l 1
EndSplineSet
Validated: 1
EndChar

StartChar: five
Encoding: 53 53 5
Width: 825
Flags: W
HStem: -12.1963 110.524<240.89 595.264> 422 109.886<265.028 592.847> 686 114<244.896 727.578>
VStem: 89 114.854<131.25 193.492> 126.974 117.923<511.607 686> 635.578 115<136.887 381.42>
LayerCount: 2
UndoRedoHistory
Layer: 1
Undoes
UndoOperation
Index: 0
Type: 12
WasModified: 0
WasOrder2: 0
Layer: 0
CopiedFrom: Two Weekend Go Semi-Bold
EndUndoOperation
UndoOperation
Index: 1
Type: 1
WasModified: 0
WasOrder2: 0
Layer: 2
Width: 900
VWidth: 1000
LBearingChange: 0
UnicodeEnc: 0
InstructionsLength: 0
SplineSet
203.854492188 208.317382812 m 1xf4
 212.174867114 121.367211637 214.379507268 98.328125 452.019717321 98.328125 c 0
 614.394777821 98.328125 683.782978202 106.470801742 699.035008302 159.712890625 c 0
 705.805664062 183.669921875 709.973632812 228.610351562 709.973632812 267.90234375 c 0
 709.973632812 343.629882812 705.411132812 400.73828125 617.335898722 413.887695312 c 0
 582.980915959 419.015625 519.132105013 422 455.859985998 422 c 0
 332.157937766 422 278.447392685 415.951171875 245.61179224 376.934570312 c 2
 237.250302268 367 l 1
 126.973632812 367 l 1
 126.973632812 800 l 1
 801.973632812 800 l 1
 801.973632812 686 l 1
 251.231008907 686 l 1xec
 251.231008907 511.607421875 l 1xec
 292.611641577 527.104492188 360.350679446 531.885742188 455.859985998 531.885742188 c 0
 650.256210976 531.885742188 753.319335938 522.27734375 800.8046875 420.961914062 c 0
 824.973632812 369.394410991 824.973632812 308.126038803 824.973632812 268.37890625 c 0
 824.973632812 159.157226562 816.515625 27.72265625 669.554212706 -0.2802734375 c 0
 614.46004141 -10.408203125 534.830940907 -12.1962890625 452.168506011 -12.1962890625 c 0
 251.805890757 -12.1962890625 106.854492188 -12.1962890625 91.0693359375 168.803710938 c 6
 89 192.530273438 l 1
 203.854492188 208.317382812 l 1xf4
EndSplineSet
EndUndoOperation
EndUndoes
Redoes
EndRedoes
EndUndoRedoHistory
Fore
SplineSet
203.854492188 208.317382812 m 1xf4
 211.698637047 121.367211637 213.572581178 98.328125 415.566759723 98.328125 c 0
 553.585561147 98.328125 612.565531471 106.470801742 625.529757057 159.712890625 c 0
 631.40961914 183.669921875 635.57758789 228.610351562 635.57758789 267.90234375 c 0
 635.57758789 343.629882812 631.01508789 400.73828125 556.085513914 413.887695312 c 0
 526.883778565 419.015625 472.612289261 422 418.830988098 422 c 0
 313.684247101 422 268.030283782 415.951171875 240.120023404 376.934570312 c 2
 233.012756928 367 l 1
 126.973632812 367 l 1
 126.973632812 800 l 1
 727.57758789 800 l 1
 727.57758789 686 l 1
 244.896357571 686 l 1
 244.896357571 511.607421875 l 1xec
 280.06989534 527.104492188 337.648077529 531.885742188 418.830988098 531.885742188 c 0
 584.06777933 531.885742188 678.923291016 522.27734375 726.408642578 420.961914062 c 0
 750.57758789 369.394410991 750.57758789 308.126038803 750.57758789 268.37890625 c 0
 750.57758789 159.157226562 742.119580078 27.72265625 600.4710808 -0.2802734375 c 0
 553.641035199 -10.408203125 485.956299771 -12.1962890625 415.693230109 -12.1962890625 c 0
 245.385007143 -12.1962890625 106.854492188 -12.1962890625 91.0693359375 168.803710938 c 2
 89 192.530273438 l 1
 203.854492188 208.317382812 l 1xf4
EndSplineSet
Validated: 524289
EndChar

StartChar: six
Encoding: 54 54 6
Width: 848
Flags: W
HStem: -12.1963 108.524<241.463 613.145> 433.443 108.886<238.64 608.254> 608.317 21G<642.497 734.559> 699.443 108.886<237.258 605.699>
VStem: 73.0088 118.991<147.413 510.942 511.447 630.219> 654.367 115.962<134.741 389.218>
LayerCount: 2
UndoRedoHistory
Layer: 1
Undoes
UndoOperation
Index: 0
Type: 12
WasModified: 0
WasOrder2: 0
Layer: 0
EndUndoOperation
EndUndoes
Redoes
EndRedoes
EndUndoRedoHistory
Fore
SplineSet
570.381497628 425.307617188 m 0
 539.547474935 430.450195312 482.243212808 433.443359375 425.457497185 433.443359375 c 0
 261.378466901 433.443359375 218.846931838 419.235351562 201.612083597 368.724609375 c 0
 195.086390295 349.598632812 192 322.690429688 192 286.870117188 c 0
 192 223.686523438 200.624700877 183.678710938 205.177578161 166.412109375 c 0
 213.759912668 133.8671875 240.458234587 110.385742188 278.538262359 104.03515625 c 0
 318.85622767 97.3115234375 364.955206719 96.328125 425.005231062 96.328125 c 0
 495.098682407 96.328125 553.280184858 98.044921875 590.791955842 108.913085938 c 0
 620.650292352 117.563476562 635.337244806 129.561523438 642.131958474 150.303710938 c 0
 651.346289062 178.633789062 654.367089844 236.754882812 654.367089844 261.733398438 c 0
 654.367089844 285.782226562 651.399902344 342.874023438 642.075425209 372.040039062 c 0
 633.478470029 398.724609375 610.114636056 418.682617188 570.381497628 425.307617188 c 0
625.78897123 663.487304688 m 0
 606.472139286 686.669921875 563.077984571 699.443359375 425.457497185 699.443359375 c 0
 367.905658344 699.443359375 309.58964571 696.703125 278.537287648 691.903320312 c 0
 243.493486109 686.489257812 213.60883239 671.357421875 205.366672187 637.40234375 c 0
 197.789265206 605.102539062 192.616113281 569.341796875 189.827148438 511.447265625 c 1
 201.286529966 518.313476562 213.652694406 523.79296875 226.095861053 527.209960938 c 0
 265.321174805 537.981445312 344.698752917 542.329101562 425.457497185 542.329101562 c 0
 546.183310634 542.329101562 625.306489052 537.159179688 678.790917968 508.895507812 c 0
 753.418847656 469.7890625 770.329003906 391.829101562 770.329003906 265.624023438 c 0
 770.329003906 83.4150390625 732.697167968 12.3115234375 585.372560061 -5.6279296875 c 0
 541.429642787 -11.212890625 488.966772539 -12.1962890625 425.138766533 -12.1962890625 c 0
 253.722108292 -12.1962890625 146.075195312 -11.7568359375 99.9716796875 104.833007812 c 0
 73.9970703125 170.518554688 73.0087890625 235.884765625 73.0087890625 348.037109375 c 0
 73.0087890625 546.987304688 83.3515625 648.295898438 103.798828125 696.158203125 c 0
 147.137695312 797.603515625 231.892470174 808.329101562 425.457497185 808.329101562 c 0
 640.536355796 808.329101562 725.125878906 790.2734375 754.629785156 658.4765625 c 2
 760.067285156 634.18359375 l 1
 647.591317427 608.317382812 l 1
 637.402658415 644.400390625 635.203709334 652.1875 625.78897123 663.487304688 c 0
EndSplineSet
Validated: 1
EndChar

StartChar: eight
Encoding: 56 56 7
Width: 849
Flags: W
HStem: -12.1963 108.524<240.882 606.226> 393.443 110.885<243.095 606.889> 699.443 108.886<245.219 605.407>
VStem: 82 117.001<137.078 350.909> 100 114.713<531.232 672.999> 635.087 114.713<529.25 672.988> 650.799 117.001<137.004 350.245>
LayerCount: 2
UndoRedoHistory
Layer: 1
Undoes
UndoOperation
Index: 0
Type: 12
WasModified: 0
WasOrder2: 0
Layer: 0
EndUndoOperation
EndUndoes
Redoes
EndRedoes
EndUndoRedoHistory
Fore
SplineSet
251.561182297 112.88671875 m 0xf2
 286.358964668 98.4482421875 343.767828178 96.328125 425.353629046 96.328125 c 0
 505.973720834 96.328125 563.754010913 98.4697265625 598.559612791 113.041015625 c 0
 626.890663099 124.90234375 650.79921875 145.760742188 650.79921875 242.685546875 c 0
 650.79921875 288.75390625 642.111332942 321.428710938 635.501894881 338.720703125 c 0
 618.498377505 383.205078125 572.808999703 393.443359375 424.900097656 393.443359375 c 0
 277.732093873 393.443359375 231.379035437 383.409179688 214.29927787 338.720703125 c 0
 207.688862371 321.428710938 199.000976562 288.75390625 199.000976562 242.685546875 c 0
 199.000976562 145.450195312 223.121636333 124.686523438 251.561182297 112.88671875 c 0xf2
630.296058279 558.586914062 m 0
 633.839272264 568.5078125 635.087461025 588.98046875 635.087461025 602.430664062 c 0
 635.087461025 656.551757812 624.242782634 670.13671875 599.322014697 680.791015625 c 0
 572.065169125 692.444335938 518.082227 699.443359375 424.900097656 699.443359375 c 0
 245.196103822 699.443359375 228.454539921 673.750976562 220.398493116 650.974609375 c 0
 216.338214248 639.495117188 214.712734288 623.32421875 214.712734288 602.430664062 c 0xec
 214.712734288 573.87109375 216.164230223 526.37109375 269.052441406 512.088867188 c 0
 291.61269575 505.99609375 334.862387455 504.328125 425.353629046 504.328125 c 0
 577.825213267 504.328125 611.469618396 505.881835938 630.296058279 558.586914062 c 0
714.44765625 732.802734375 m 0
 723.824609374 719.889648438 749.800195312 677.296875 749.800195312 601.672851562 c 0xec
 749.800195312 545.197265625 741.121484374 489.080078125 683.777734374 450.34375 c 1
 713.671289062 433.58984375 742.220117187 407.536132812 758.290429687 337.520507812 c 0
 765.655664062 305.4296875 767.800195312 274.4375 767.800195312 253.994140625 c 0
 767.800195312 69.7568359375 719.301171874 7.7255859375 578.117467331 -7.0166015625 c 0
 535.291983867 -11.7509765625 485.050675711 -12.1962890625 425.219719993 -12.1962890625 c 0
 314.270693929 -12.1962890625 237.129305196 -10.69921875 182.41015625 13.8134765625 c 0
 105.828125 47.9541015625 82 122.66796875 82 253.791992188 c 0xf2
 82 270.866210938 83.9501953125 357.258789062 122.104492188 411.880859375 c 0
 132.034179688 426.096679688 146.645507812 439.349609375 166.022460938 450.212890625 c 1
 108.64453125 488.986328125 100 545.171875 100 601.59765625 c 0
 100 623.512695312 102.934570312 688.114257812 135.352539062 732.775390625 c 0
 180.978515625 795.6328125 252.184787959 808.329101562 424.900097656 808.329101562 c 0
 598.867505868 808.329101562 669.17421875 795.15234375 714.44765625 732.802734375 c 0
EndSplineSet
Validated: 1
EndChar

StartChar: nine
Encoding: 57 57 8
Width: 849
Flags: W
HStem: -12.3291 108.886<241.681 609.373> 277.671 108.886<239.049 609.682> 699.672 108.524<233.834 606.093>
VStem: 78.6523 115.963<427.503 663.28> 655.585 118.992<165.78 650.304>
LayerCount: 2
UndoRedoHistory
Layer: 1
Undoes
UndoOperation
Index: 0
Type: 12
WasModified: 0
WasOrder2: 0
Layer: 0
EndUndoOperation
EndUndoes
Redoes
EndRedoes
EndUndoRedoHistory
Fore
SplineSet
569.009956602 692.005859375 m 0
 528.675620274 698.694335938 482.55680789 699.671875 422.479972873 699.671875 c 0
 331.410554833 699.671875 270.76034289 696.352539062 237.803846387 680.6875 c 0
 205.532866854 665.346679688 194.615234375 635.883789062 194.615234375 549.028320312 c 0
 194.615234375 457.924804688 206.319797429 424.506835938 239.157327972 407.545898438 c 0
 272.312751164 390.421875 333.198944767 386.556640625 422.027512169 386.556640625 c 0
 587.824130747 386.556640625 629.317897626 401.064453125 646.191561427 451.779296875 c 0
 652.616698435 471.08984375 655.58515625 498.208984375 655.58515625 534.2109375 c 0
 655.58515625 559.025390625 655.58515625 579.885742188 642.40220304 629.955078125 c 0
 633.816176123 662.329101562 607.106367687 685.688476562 569.009956602 692.005859375 c 0
221.609848771 132.512695312 m 0
 240.935966598 109.330078125 284.350741204 96.556640625 422.027512169 96.556640625 c 0
 479.604111752 96.556640625 537.946189031 99.34765625 569.010931734 104.236328125 c 0
 608.459849272 110.44140625 634.406130273 129.622070312 642.212052529 162.379882812 c 0
 648.760056021 190.510742188 653.063308353 250.635742188 655.720898438 304.91796875 c 1
 644.05700005 298.298828125 631.676739092 293.540039062 619.844501658 290.625976562 c 0
 581.614497651 281.209960938 502.663030378 277.670898438 422.027512169 277.670898438 c 0
 238.137341129 277.670898438 146.705078125 287.637695312 99.625 385.390625 c 0
 81.5693359375 422.881835938 78.65234375 480.470703125 78.65234375 545.108398438 c 0
 78.65234375 636.654296875 78.65234375 767.302734375 227.16224369 796.279296875 c 0
 276.63160559 806.409179688 348.127222572 808.196289062 422.34735508 808.196289062 c 0
 593.81923506 808.196289062 701.509960938 807.76171875 747.613476562 691.166992188 c 0
 773.5890625 625.481445312 774.57734375 560.115234375 774.57734375 447.962890625 c 0
 774.57734375 249.01171875 764.23359375 147.703125 743.786328125 99.841796875 c 0
 700.447460938 -1.6025390625 615.678742772 -12.3291015625 422.027512169 -12.3291015625 c 0
 206.966309167 -12.3291015625 121.850585938 5.6875 92.3525390625 137.525390625 c 2
 86.9169921875 161.81640625 l 1
 199.798122469 187.682617188 l 1
 209.991164987 151.599609375 212.191060129 143.8125 221.609848771 132.512695312 c 0
EndSplineSet
Validated: 1
EndChar

StartChar: seven
Encoding: 55 55 9
Width: 849
Flags: W
HStem: -0 21G<256.758 400.996> 690 110<80 632.308>
LayerCount: 2
UndoRedoHistory
Layer: 1
Undoes
UndoOperation
Index: 0
Type: 12
WasModified: 0
WasOrder2: 0
Layer: 0
EndUndoOperation
EndUndoes
Redoes
EndRedoes
EndUndoRedoHistory
Fore
SplineSet
80 800 m 1
 707.2 800 l 2
 756.451953125 800 777.2 770.131835938 777.2 742.587890625 c 0
 777.2 719.2265625 771.057421875 705.259765625 753.6609375 676.411132812 c 2
 390.251171876 0 l 1
 256.758007813 -0 l 1
 632.308008665 690 l 1
 80 690 l 1
 80 800 l 1
EndSplineSet
Validated: 1
EndChar

StartChar: colon
Encoding: 58 58 10
Width: 280
Flags: W
HStem: -25 157<78.4092 201.591> 288 157<78.4092 201.591>
VStem: 61.5 157<-8.0908 115.091 304.909 428.091>
LayerCount: 2
UndoRedoHistory
Layer: 1
Undoes
UndoOperation
Index: 0
Type: 12
WasModified: 0
WasOrder2: 0
Layer: 0
EndUndoOperation
EndUndoes
Redoes
EndRedoes
EndUndoRedoHistory
Fore
SplineSet
126.5 445 m 2
 153.5 445 l 2
 189.331750703 445 218.5 415.831750703 218.5 380 c 2
 218.5 353 l 2
 218.5 317.168249297 189.331750703 288 153.5 288 c 2
 126.5 288 l 2
 90.6682492971 288 61.5 317.168249297 61.5 353 c 2
 61.5 380 l 2
 61.5 415.831750703 90.6682492971 445 126.5 445 c 2
126.5 132 m 2
 153.5 132 l 2
 189.331750703 132 218.5 102.831750703 218.5 67 c 2
 218.5 40 l 2
 218.5 4.16824929715 189.331750703 -25 153.5 -25 c 2
 126.5 -25 l 2
 90.6682492971 -25 61.5 4.16824929715 61.5 40 c 2
 61.5 67 l 2
 61.5 102.831750703 90.6682492971 132 126.5 132 c 2
EndSplineSet
Validated: 1
EndChar

StartChar: semicolon
Encoding: 59 59 11
Width: 280
Flags: W
HStem: -131.097 64.2554<68.9702 93.8108> 288 157<78.6592 201.841>
VStem: 61.75 157<-7.24533 112.697 304.909 428.091>
LayerCount: 2
UndoRedoHistory
Layer: 1
Undoes
UndoOperation
Index: 0
Type: 12
WasModified: 0
WasOrder2: 0
Layer: 0
EndUndoOperation
EndUndoes
Redoes
EndRedoes
EndUndoRedoHistory
Fore
SplineSet
126.75 445 m 2
 153.75 445 l 2
 189.581750703 445 218.75 415.831750703 218.75 380 c 2
 218.75 353 l 2
 218.75 317.168249297 189.581750703 288 153.75 288 c 2
 126.75 288 l 2
 90.9182492971 288 61.75 317.168249297 61.75 353 c 2
 61.75 380 l 2
 61.75 415.831750703 90.9182492971 445 126.75 445 c 2
126.75 132 m 2
 148.75 132 l 2
 187.483470003 132 218.75 100.733470003 218.75 62 c 2
 218.75 26 l 2
 218.75 -32.147727241 196.458286001 -72.4962485083 166.395829865 -96.8031574871 c 0
 142.687471039 -115.972480093 115.945037694 -124.585826846 93.810818069 -127.747858221 c 2
 70.3701756189 -131.096521428 l 1
 57.5190986197 -66.8411364323 l 1
 101.823933744 -50.7302872963 111.924711236 -47.057277299 116.355043111 -24.1689431262 c 1
 85.4437901948 -19.1763721689 61.75 7.70538469759 61.75 40 c 2
 61.75 67 l 2
 61.75 102.831750703 90.9182492971 132 126.75 132 c 2
EndSplineSet
Validated: 1
EndChar

StartChar: comma
Encoding: 44 44 12
Width: 280
Flags: W
HStem: -131.097 64.2554<68.9702 93.8108>
VStem: 61.75 157<-7.24533 112.697>
LayerCount: 2
UndoRedoHistory
Layer: 1
Undoes
UndoOperation
Index: 0
Type: 12
WasModified: 0
WasOrder2: 0
Layer: 0
EndUndoOperation
EndUndoes
Redoes
EndRedoes
EndUndoRedoHistory
Fore
SplineSet
126.75 132 m 2
 148.75 132 l 2
 187.483470003 132 218.75 100.733470003 218.75 62 c 2
 218.75 26 l 2
 218.75 -32.147727241 196.458286001 -72.4962485083 166.395829865 -96.8031574871 c 0
 142.687471039 -115.972480093 115.945037694 -124.585826846 93.810818069 -127.747858221 c 2
 70.3701756189 -131.096521428 l 1
 57.5190986197 -66.8411364323 l 1
 101.823933744 -50.7302872963 111.924711236 -47.057277299 116.355043111 -24.1689431262 c 1
 85.4437901948 -19.1763721689 61.75 7.70538469759 61.75 40 c 2
 61.75 67 l 2
 61.75 102.831750703 90.9182492971 132 126.75 132 c 2
EndSplineSet
Validated: 1
EndChar

StartChar: period
Encoding: 46 46 13
Width: 280
Flags: W
HStem: -25 157<78.4092 201.591>
VStem: 61.5 157<-8.0908 115.091>
LayerCount: 2
UndoRedoHistory
Layer: 1
Undoes
UndoOperation
Index: 0
Type: 12
WasModified: 0
WasOrder2: 0
Layer: 0
EndUndoOperation
EndUndoes
Redoes
EndRedoes
EndUndoRedoHistory
Fore
SplineSet
126.5 132 m 2
 153.5 132 l 2
 189.331750703 132 218.5 102.831750703 218.5 67 c 2
 218.5 40 l 2
 218.5 4.16824929715 189.331750703 -25 153.5 -25 c 2
 126.5 -25 l 2
 90.6682492971 -25 61.5 4.16824929715 61.5 40 c 2
 61.5 67 l 2
 61.5 102.831750703 90.6682492971 132 126.5 132 c 2
EndSplineSet
Validated: 1
EndChar

StartChar: parenleft
Encoding: 40 40 15
Width: 360
Flags: W
VStem: 66.3623 118.893<21.9535 576.253>
LayerCount: 2
UndoRedoHistory
Layer: 1
Undoes
UndoOperation
Index: 0
Type: 12
WasModified: 0
WasOrder2: 0
Layer: 0
EndUndoOperation
EndUndoes
Redoes
EndRedoes
EndUndoRedoHistory
Fore
SplineSet
185.254882812 300 m 0
 185.254882812 236.526210508 185.447849598 79.6909925406 211.558594937 6.38005370497 c 0
 236.200361668 -62.8056116939 280.505079098 -110.500790502 328.369358616 -140.876198658 c 2
 348.075991737 -153.382331215 l 1
 299.916170735 -242.495590161 l 1
 278.130279975 -231.215847813 l 2
 205.519003341 -193.621034682 141.467786257 -129.323138324 105.035715182 -33.9056609276 c 0
 73.6325298284 48.3396841452 66.3623046875 147.309770859 66.3623046875 299 c 0
 66.3623046875 451.681085606 73.6302863743 550.654440219 105.035671396 632.905546249 c 0
 141.46774247 728.323023646 205.519003341 792.621034682 278.130279975 830.215847813 c 2
 300.108228097 841.595028719 l 1
 347.904204645 751.273312484 l 1
 328.369358616 738.876198658 l 2
 280.321645437 708.384380678 236.164265648 661.704266397 211.558626628 592.620035274 c 0
 192.40585939 538.844958027 185.254882812 442.291212274 185.254882812 300 c 0
EndSplineSet
Validated: 1
EndChar

StartChar: parenright
Encoding: 41 41 16
Width: 360
Flags: W
VStem: 172.745 118.893<22.6772 577.146>
LayerCount: 2
UndoRedoHistory
Layer: 1
Undoes
UndoOperation
Index: 0
Type: 12
WasModified: 0
WasOrder2: 0
Layer: 0
EndUndoOperation
EndUndoes
Redoes
EndRedoes
EndUndoRedoHistory
Fore
SplineSet
172.745117188 300 m 0
 172.745117188 366.15528409 172.452638746 519.588405571 146.441405063 592.619946295 c 0
 121.835766043 661.704177417 77.6783545633 708.384380678 29.630641384 738.876198658 c 2
 10.0957953546 751.273312484 l 1
 57.8917719025 841.595028719 l 1
 79.8697200249 830.215847813 l 2
 152.480996659 792.621034682 216.532213743 728.323138324 252.964284818 632.905660928 c 0
 284.354889243 550.693265467 291.637695312 452.664203346 291.637695312 299 c 0
 291.637695312 147.309770859 284.367513958 48.3397988236 252.964328604 -33.9055462493 c 0
 216.53225753 -129.323023646 152.480996659 -193.621034682 79.8697200249 -231.215847813 c 2
 58.0838292648 -242.495590161 l 1
 9.92400826282 -153.382331215 l 1
 29.630641384 -140.876198658 l 2
 77.4949209021 -110.500790502 121.79960664 -62.8057006733 146.441373372 6.37996472556 c 0
 165.402338129 59.6165196199 172.745117188 156.614058063 172.745117188 300 c 0
EndSplineSet
Validated: 1
EndChar

StartChar: plus
Encoding: 43 43 17
Width: 700
VWidth: 1050
Flags: W
HStem: 243 114<85 293.2 407.2 615.4>
VStem: 293.2 114<25 243 357 575>
LayerCount: 2
UndoRedoHistory
Layer: 1
Undoes
UndoOperation
Index: 0
Type: 12
WasModified: 0
WasOrder2: 0
Layer: 0
EndUndoOperation
EndUndoes
Redoes
EndRedoes
EndUndoRedoHistory
Fore
SplineSet
293.2 575 m 1
 407.2 575 l 1
 407.2 357 l 1
 615.4 357 l 1
 615.4 243 l 1
 407.2 243 l 1
 407.2 25 l 1
 293.2 25 l 1
 293.2 243 l 1
 85 243 l 1
 85 357 l 1
 293.2 357 l 1
 293.2 575 l 1
EndSplineSet
Validated: 1
EndChar

StartChar: quotesingle
Encoding: 39 39 18
Width: 221
Flags: W
HStem: 596.1 228.9<57.6721 161.593>
VStem: 49 122<602.349 825>
LayerCount: 2
UndoRedoHistory
Layer: 1
Undoes
UndoOperation
Index: 0
Type: 12
WasModified: 0
WasOrder2: 0
Layer: 0
EndUndoOperation
EndUndoes
Redoes
EndRedoes
EndUndoRedoHistory
Fore
SplineSet
49 825 m 1
 171 825 l 1
 171 703.900390625 l 2
 171 641.762168584 170.639654577 596.099609375 126.799804688 596.099609375 c 2
 93.2001953125 596.099609375 l 2
 55.266976743 596.099609375 51.9871915757 633.693055419 50.6082518054 649.498693657 c 0
 49.4346917667 662.950235067 49 680.250255692 49 703.900390625 c 2
 49 825 l 1
EndSplineSet
Validated: 1
EndChar

StartChar: equal
Encoding: 61 61 19
Width: 689
Flags: W
HStem: 110 110<85 604> 280 110<85 604>
LayerCount: 2
UndoRedoHistory
Layer: 1
Undoes
UndoOperation
Index: 0
Type: 12
WasModified: 0
WasOrder2: 0
Layer: 0
EndUndoOperation
EndUndoes
Redoes
EndRedoes
EndUndoRedoHistory
Fore
SplineSet
85 220 m 1
 604 220 l 1
 604 110 l 1
 85 110 l 1
 85 220 l 1
85 390 m 1
 604 390 l 1
 604 280 l 1
 85 280 l 1
 85 390 l 1
EndSplineSet
Validated: 1
EndChar

StartChar: less
Encoding: 60 60 20
Width: 690
Flags: W
LayerCount: 2
UndoRedoHistory
Layer: 1
Undoes
UndoOperation
Index: 0
Type: 12
WasModified: 0
WasOrder2: 0
Layer: 0
EndUndoOperation
EndUndoes
Redoes
EndRedoes
EndUndoRedoHistory
Fore
SplineSet
595.6 101.723992759 m 1
 595.6 -22.3851529105 l 1
 91 198.276004114 l 1
 91 301.723995886 l 1
 595.6 522.385152911 l 1
 595.6 398.276007241 l 1
 260.655014194 250 l 1
 595.6 101.723992759 l 1
EndSplineSet
Validated: 1
EndChar

StartChar: greater
Encoding: 62 62 21
Width: 690
Flags: W
LayerCount: 2
UndoRedoHistory
Layer: 1
Undoes
UndoOperation
Index: 0
Type: 12
WasModified: 0
WasOrder2: 0
Layer: 0
EndUndoOperation
EndUndoes
Redoes
EndRedoes
EndUndoRedoHistory
Fore
SplineSet
95 398.276007241 m 1
 95 522.385152911 l 1
 599.6 301.723995886 l 1
 599.6 198.276004114 l 1
 95 -22.3851529105 l 1
 95 101.723992759 l 1
 429.944985806 250 l 1
 95 398.276007241 l 1
EndSplineSet
Validated: 1
EndChar

StartChar: hyphen
Encoding: 45 45 22
Width: 385
VWidth: 1050
Flags: W
HStem: 240 120<5 380>
LayerCount: 2
UndoRedoHistory
Layer: 1
Undoes
UndoOperation
Index: 0
Type: 12
WasModified: 0
WasOrder2: 0
Layer: 0
EndUndoOperation
EndUndoes
Redoes
EndRedoes
EndUndoRedoHistory
Fore
SplineSet
5 240 m 1
 5 360 l 1
 380 360 l 1
 380 240 l 1
 5 240 l 1
EndSplineSet
Validated: 1
EndChar

StartChar: slash
Encoding: 47 47 23
Width: 518
Flags: W
HStem: 785 20G<344.526 474.707>
LayerCount: 2
UndoRedoHistory
Layer: 1
Undoes
UndoOperation
Index: 0
Type: 12
WasModified: 0
WasOrder2: 0
Layer: 0
EndUndoOperation
EndUndoes
Redoes
EndRedoes
EndUndoRedoHistory
Fore
SplineSet
350.594919638 805 m 1
 474.706564289 805 l 1
 168.228439289 -205 l 1
 44.1167946387 -205 l 1
 350.594919638 805 l 1
EndSplineSet
Validated: 1
EndChar

StartChar: backslash
Encoding: 92 92 24
Width: 518
Flags: W
HStem: 785 20G<44.1168 174.297>
LayerCount: 2
UndoRedoHistory
Layer: 1
Undoes
UndoOperation
Index: 0
Type: 12
WasModified: 0
WasOrder2: 0
Layer: 0
EndUndoOperation
EndUndoes
Redoes
EndRedoes
EndUndoRedoHistory
Fore
SplineSet
474.706564289 -205 m 5
 350.594919638 -205 l 5
 44.1167946387 805 l 5
 168.228439289 805 l 5
 474.706564289 -205 l 5
EndSplineSet
Validated: 1
EndChar

StartChar: O
Encoding: 79 79 25
Width: 918
Flags: W
HStem: -12.1963 108.524<228.626 687.694> 699.443 108.886<224.853 682.03>
VStem: 61 115.939<151.555 650.031> 735.033 115.939<144.522 646.864>
LayerCount: 2
UndoRedoHistory
Layer: 1
Undoes
UndoOperation
Index: 0
Type: 12
WasModified: 0
WasOrder2: 0
Layer: 0
EndUndoOperation
EndUndoes
Redoes
EndRedoes
EndUndoRedoHistory
Fore
SplineSet
647.295651596 689.526367188 m 0
 618.232255763 694.422851562 512.034955772 699.443359375 456.966108835 699.443359375 c 0
 400.762137501 699.443359375 292.455382053 696.21875 263.698259243 691.373046875 c 0
 224.376631291 684.75 197.922298785 664.169921875 192.02941437 631.170898438 c 0
 179.591992188 561.0234375 176.939453125 495.403320312 176.939453125 397.143554688 c 0
 176.939453125 300.10546875 180.448046875 236.436523438 193.00948805 166.020507812 c 0
 198.902372465 133.022460938 225.355747866 112.443359375 264.67737582 105.819335938 c 0
 303.601805944 99.2626953125 380.337555169 96.328125 456.52201295 96.328125 c 0
 532.994558793 96.328125 609.93704231 97.513671875 648.274768172 103.97265625 c 0
 687.598310331 110.596679688 714.05072863 131.176757812 719.942655942 164.173828125 c 0
 732.380957032 234.325195312 735.032617188 299.950195312 735.032617188 397.143554688 c 0
 735.032617188 495.25 731.524023437 558.913085938 718.962582263 629.32421875 c 0
 713.070654951 662.322265625 686.619193756 682.903320312 647.295651596 689.526367188 c 0
213.802555114 795.374023438 m 0
 262.266432854 807.53515625 447.018935256 808.329101562 456.966108835 808.329101562 c 0
 459.382794421 808.329101562 649.373522648 807.903320312 698.295852821 795.341796875 c 0
 736.786523438 785.973632812 800.325585938 763.64453125 823.84609375 692.900390625 c 0
 846.1546875 625.798828125 850.972070313 517.578125 850.972070313 397.020507812 c 0
 850.972070313 125.765625 832.048242188 25.8671875 697.232511163 -0.2802734375 c 0
 647.641165852 -10.625 549.804162331 -12.1962890625 456.653136088 -12.1962890625 c 0
 363.258048528 -12.1962890625 264.398858788 -11.6396484375 214.292591953 -0.181640625 c 0
 61.650390625 32.2353515625 61 172.166992188 61 391.3984375 c 0
 61 393.267578125 61 395.142578125 61 397.024414062 c 0
 61 642.032226562 70.8408203125 762.043945312 213.802555114 795.374023438 c 0
EndSplineSet
Validated: 1
EndChar

StartChar: N
Encoding: 78 78 26
Width: 910
Flags: W
HStem: 0 21G<71 191 665.41 833> 780 20G<71 238.59 713 833>
VStem: 71 120<0 652.854> 713 120<147.146 800>
LayerCount: 2
UndoRedoHistory
Layer: 1
Undoes
UndoOperation
Index: 0
Type: 12
WasModified: 0
WasOrder2: 0
Layer: 0
EndUndoOperation
EndUndoes
Redoes
EndRedoes
EndUndoRedoHistory
Fore
SplineSet
680.403125 0 m 6
 191 652.853515625 l 5
 191 0 l 5
 71 0 l 5
 71 800 l 6
 223.596875 800 l 6
 713 147.146484375 l 5
 713 800 l 5
 833 800 l 5
 833 0 l 6
 680.403125 0 l 6
EndSplineSet
Validated: 1
EndChar

StartChar: H
Encoding: 72 72 27
Width: 911
Flags: W
HStem: 0 21G<72 192 714 834> 375 114<192 714> 780 20G<72 192 714 834>
VStem: 72 120<0 375 489 800> 714 120<0 375 489 800>
LayerCount: 2
UndoRedoHistory
Layer: 1
Undoes
UndoOperation
Index: 0
Type: 12
WasModified: 0
WasOrder2: 0
Layer: 0
EndUndoOperation
EndUndoes
Redoes
EndRedoes
EndUndoRedoHistory
Fore
SplineSet
714 0 m 5
 714 375 l 5
 192 375 l 5
 192 0 l 5
 72 0 l 5
 72 800 l 5
 192 800 l 5
 192 489 l 5
 714 489 l 5
 714 800 l 5
 834 800 l 5
 834 0 l 5
 714 0 l 5
EndSplineSet
Validated: 1
EndChar

StartChar: I
Encoding: 73 73 28
Width: 269
Flags: W
HStem: 0 21G<72 192> 780 20G<72 192>
VStem: 72 120<0 800>
LayerCount: 2
UndoRedoHistory
Layer: 1
Undoes
UndoOperation
Index: 0
Type: 12
WasModified: 0
WasOrder2: 0
Layer: 0
EndUndoOperation
EndUndoes
Redoes
EndRedoes
EndUndoRedoHistory
Fore
SplineSet
72 0 m 5
 72 800 l 5
 192 800 l 5
 192 0 l 5
 72 0 l 5
EndSplineSet
Validated: 1
EndChar

StartChar: J
Encoding: 74 74 29
Width: 834
Flags: W
HStem: -12.1963 108.524<218.407 590.594> 780 20G<643.223 763.224>
VStem: 53 118.215<140.554 210.958> 643.223 119.991<142.397 800>
LayerCount: 2
UndoRedoHistory
Layer: 1
Undoes
UndoOperation
Index: 0
Type: 12
WasModified: 0
WasOrder2: 0
Layer: 0
EndUndoOperation
EndUndoes
Redoes
EndRedoes
EndUndoRedoHistory
Fore
SplineSet
740.533203125 90.892578125 m 0
 690.952148438 -10.4033203125 544.429652905 -12.1962890625 403.402632433 -12.1962890625 c 0
 254.301220579 -12.1962890625 140.139648438 -10.7607421875 88.494140625 78.9228515625 c 0
 65.4462890625 118.946289062 59.9208984375 159.475585938 53 210.2421875 c 1
 171.21484375 222.326171875 l 1
 177.238809605 181.955078125 180.168494718 162.9921875 190.236077314 144.65234375 c 0
 206.686461382 114.688476562 237.602780369 96.328125 403.25292454 96.328125 c 0
 558.33172452 96.328125 600.070722118 111.59375 620.273638328 140.416015625 c 0
 641.442552912 170.615234375 643.22265625 226.0390625 643.22265625 308.895507812 c 2
 643.22265625 800 l 1
 763.223632812 800 l 1
 763.213867188 289.419921875 l 2
 763.213867188 150.501953125 749.791992188 109.810546875 740.533203125 90.892578125 c 0
EndSplineSet
Validated: 1
EndChar

StartChar: M
Encoding: 77 77 30
Width: 1125
Flags: W
HStem: 0 21G<71 191 489.496 630.505 929 1049> 780 20G<71 233.869 887.807 1049>
VStem: 71 120<0 634.974> 929 120<0 634.974>
LayerCount: 2
UndoRedoHistory
Layer: 1
Undoes
UndoOperation
Index: 0
Type: 12
WasModified: 1
WasOrder2: 0
Layer: 0
HStem: 0 21G<71 191 929 1049> 789 20G<122.474 165.176 954.077 997.526>
VStem: 71 120<0 634.974> 929 120<0 634.974>
EndUndoOperation
EndUndoes
Redoes
EndRedoes
EndUndoRedoHistory
Fore
SplineSet
499.204101562 0 m 2
 191 634.973632812 l 1
 191 0 l 1
 71 0 l 1
 71 800 l 2
 223.865234375 800 l 2
 560 128 l 1
 897.862304688 800 l 0
 1049 800 l 2
 1049 0 l 1
 929 0 l 1
 929 634.973632812 l 1
 620.797851562 0 l 2
 499.204101562 0 l 2
EndSplineSet
Validated: 1
EndChar

StartChar: L
Encoding: 76 76 31
Width: 856
Flags: W
HStem: 0 114<192 798> 780 20G<72 192>
VStem: 72 120<114 800>
LayerCount: 2
UndoRedoHistory
Layer: 1
Undoes
UndoOperation
Index: 0
Type: 12
WasModified: 0
WasOrder2: 0
Layer: 0
EndUndoOperation
EndUndoes
Redoes
EndRedoes
EndUndoRedoHistory
Fore
SplineSet
72 0 m 5
 72 800 l 5
 192 800 l 5
 192 114 l 5
 798 114 l 5
 798 0 l 5
 72 0 l 5
EndSplineSet
Validated: 1
EndChar

StartChar: C
Encoding: 67 67 32
Width: 908
Flags: W
HStem: -12.1963 108.524<229.141 687.237> 699.443 108.886<230.061 680.769>
VStem: 61 115.939<151.981 642.768> 731.227 116.052<141.193 240.469>
LayerCount: 2
UndoRedoHistory
Layer: 1
Undoes
UndoOperation
Index: 0
Type: 12
WasModified: 0
WasOrder2: 0
Layer: 0
EndUndoOperation
EndUndoes
Redoes
EndRedoes
EndUndoRedoHistory
Fore
SplineSet
701.466617097 -0.2802734375 m 0
 651.737158515 -10.6474609375 550.057381021 -12.1962890625 456.819554292 -12.1962890625 c 0
 363.063622587 -12.1962890625 263.965750852 -9.529296875 214.312906685 1.818359375 c 0
 113.6171875 23.2705078125 84.3984375 100.518554688 72.2333984375 167.9296875 c 0
 61.197265625 229.094726562 61 302.922851562 61 387.583984375 c 0
 61 390.715820312 61 393.86328125 61 397.024414062 c 0
 61 611.109375 64.9794921875 758.698242188 213.822574434 793.374023438 c 0
 253.023297143 803.205078125 390.15447945 808.329101562 457.13271571 808.329101562 c 0
 459.511593271 808.329101562 645.488295357 807.966796875 694.686241439 795.341796875 c 0
 818.005301561 764.311523438 830.467215623 678.389648438 834.970145311 593.340820312 c 2
 836.202567186 570.07421875 l 1
 721.70814533 555.849609375 l 1
 719.241161193 607.7109375 718.52673178 622.745117188 711.044376553 641.989257812 c 0
 703.80431441 660.610351562 688.852053798 682.64453125 644.633086958 690.704101562 c 0
 616.001322689 695.924804688 512.640816483 699.443359375 457.13271571 699.443359375 c 0
 401.279850074 699.443359375 293.040921043 694.458984375 263.747399772 689.526367188 c 0
 225.887429311 683.153320312 198.091719837 659.514648438 192.036308074 625.630859375 c 0
 179.563867187 555.309570312 176.939453125 495.434570312 176.939453125 397.143554688 c 0
 176.939453125 299.919921875 179.562988282 240.041015625 192.036308074 169.71484375 c 0
 198.091719837 135.83203125 225.887429311 112.193359375 263.748357452 105.819335938 c 0
 302.661776107 99.267578125 380.465629094 96.328125 456.688352108 96.328125 c 0
 533.17060645 96.328125 614.237275802 97.6337890625 652.479360653 104.606445312 c 0
 690.467660258 111.53125 715.61442636 135.198242188 724.761229736 168.39453125 c 0
 728.134082032 180.787109375 729.502539062 208.485351562 731.226953125 247.479492188 c 1
 847.278710938 240.46875 l 1
 843.108789062 150.40234375 837.427148438 27.7060546875 701.466617097 -0.2802734375 c 0
EndSplineSet
Validated: 1
EndChar

StartChar: Q
Encoding: 81 81 33
Width: 962
Flags: W
HStem: -12.1963 108.524<223.691 576.458> 699.443 108.886<224.29 680.677>
VStem: 61 115.939<144.852 650.031> 728.308 123.412<144.427 650.351>
LayerCount: 2
UndoRedoHistory
Layer: 1
Undoes
UndoOperation
Index: 0
Type: 12
WasModified: 0
WasOrder2: 0
Layer: 0
HStem: -12.1963 108.524<223.691 576.458> 699.443 108.886<224.291 680.677>
VStem: 61 115.939<144.852 650.031> 728.308 123.412<144.427 650.351>
EndUndoOperation
EndUndoes
Redoes
EndRedoes
EndUndoRedoHistory
Fore
SplineSet
713.088407775 164.172851562 m 0
 725.456727058 234.325195312 728.307610951 299.950195312 728.307610951 397.143554688 c 0
 728.307610951 495.403320312 725.455782118 561.024414062 713.088407775 631.170898438 c 0
 707.271357312 664.168945312 681.156051327 684.75 642.332247669 691.373046875 c 0
 614.182485927 696.176757812 508.204633334 699.443359375 453.453866462 699.443359375 c 0
 397.964156532 699.443359375 291.033804449 696.21875 262.642138073 691.373046875 c 0
 223.820224296 684.75 197.702083491 664.169921875 191.884088089 631.170898438 c 0
 179.591992188 561.0234375 176.939453125 495.403320312 176.939453125 397.143554688 c 0
 176.939453125 299.950195312 179.591113282 234.325195312 191.884088089 164.173828125 c 0
 197.702083491 131.17578125 223.819279356 110.596679688 262.641193133 103.97265625 c 0
 300.463360421 97.5185546875 377.432500838 96.328125 453.015414315 96.328125 c 0
 496.777474263 96.328125 540.53764433 96.6650390625 577.075638197 98.248046875 c 1
 428.166327893 257 l 1
 576.253540422 257 l 1
 696.83355039 130.706054688 l 1
 705.101775138 139.611328125 710.693929887 150.587890625 713.088407775 164.172851562 c 0
823.793795043 691.954101562 m 0
 846.901910415 624.231445312 851.719293228 515.010742188 851.719293228 393.338867188 c 0
 851.719293228 163.499023438 835.544488541 80.109375 780.757029021 33.5732421875 c 1
 955.234918233 -149 l 1
 801.57825632 -149 l 1
 666.454675254 -4.2177734375 l 1
 613.967039613 -10.890625 531.685446679 -12.1962890625 453.144871092 -12.1962890625 c 0
 360.93668376 -12.1962890625 263.333834132 -11.6396484375 213.864336759 -0.181640625 c 0
 61.650390625 32.2353515625 61 172.166992188 61 391.3984375 c 2
 61 397.024414062 l 2
 61 642.032226562 70.8408203125 762.043945312 213.380527494 795.374023438 c 0
 261.228507877 807.53515625 443.633105341 808.329101562 450.679591718 808.329101562 c 4
 455.839839889 808.329101562 643.416093816 807.903320312 691.716700445 795.341796875 c 0
 730.193291161 785.88671875 798.50615148 763.3515625 823.793795043 691.954101562 c 0
EndSplineSet
Validated: 1
EndChar

StartChar: asterisk
Encoding: 42 42 34
Width: 398
VWidth: 1050
Flags: W
VStem: 142.571 112.863<374.886 474.868>
LayerCount: 2
UndoRedoHistory
Layer: 1
Undoes
UndoOperation
Index: 0
Type: 12
WasModified: 0
WasOrder2: 0
Layer: 0
EndUndoOperation
EndUndoes
Redoes
EndRedoes
EndUndoRedoHistory
Fore
SplineSet
142.571201586 474.868164062 m 1
 255.434482836 474.868164062 l 1
 255.434482836 374.885573713 l 1
 349.532877423 405.784647137 l 1
 384.409617308 298.436531713 l 1
 289.311331105 267.538961064 l 1
 348.080292136 186.653992648 l 1
 256.891263631 120.316044121 l 1
 199.001392164 201.207423601 l 1
 141.11500644 120.316926862 l 1
 49.9255258565 186.653449207 l 1
 108.692934731 267.539630582 l 1
 13.5967814856 298.436195643 l 1
 48.4699148223 405.785757992 l 1
 142.571201586 374.88635068 l 1
 142.571201586 474.868164062 l 1
EndSplineSet
Validated: 1
EndChar

StartChar: bracketleft
Encoding: 91 91 35
Width: 360
Flags: W
HStem: -205 105<206 330> 700 105<206 330>
VStem: 90 240<-205 -100 700 805> 90 116<-100 700>
LayerCount: 2
UndoRedoHistory
Layer: 1
Undoes
UndoOperation
Index: 0
Type: 12
WasModified: 0
WasOrder2: 0
Layer: 0
EndUndoOperation
EndUndoes
Redoes
EndRedoes
EndUndoRedoHistory
Fore
SplineSet
90 805 m 5xe0
 330 805 l 5
 330 700 l 5xe0
 206 700 l 5
 206 -100 l 5xd0
 330 -100 l 5
 330 -205 l 5
 90 -205 l 5
 90 805 l 5xe0
EndSplineSet
Validated: 1
EndChar

StartChar: bracketright
Encoding: 93 93 36
Width: 360
Flags: W
HStem: -205 105<30 154> 700 105<30 154>
VStem: 30 240<-205 -100 700 805> 154 116<-100 700>
LayerCount: 2
UndoRedoHistory
Layer: 1
Undoes
UndoOperation
Index: 0
Type: 12
WasModified: 0
WasOrder2: 0
Layer: 0
EndUndoOperation
EndUndoes
Redoes
EndRedoes
EndUndoRedoHistory
Fore
SplineSet
270 805 m 5xe0
 270 -205 l 5
 30 -205 l 5
 30 -100 l 5xe0
 154 -100 l 5
 154 700 l 5xd0
 30 700 l 5
 30 805 l 5
 270 805 l 5xe0
EndSplineSet
Validated: 1
EndChar

StartChar: underscore
Encoding: 95 95 37
Width: 597
Flags: W
HStem: -85 110<-15 612>
LayerCount: 2
UndoRedoHistory
Layer: 1
Undoes
UndoOperation
Index: 0
Type: 12
WasModified: 0
WasOrder2: 0
Layer: 0
EndUndoOperation
EndUndoes
Redoes
EndRedoes
EndUndoRedoHistory
Fore
SplineSet
-15 25 m 5
 612 25 l 5
 612 -85 l 5
 -15 -85 l 5
 -15 25 l 5
EndSplineSet
Validated: 1
EndChar

StartChar: percent
Encoding: 37 37 38
Width: 971
Flags: W
HStem: 0.185547 103.146<650.598 759.329> 246.094 103.146<650.599 759.328> 434.32 103.146<211.688 320.419> 680.229 103.146<211.689 320.417>
VStem: 111.152 96.2939<540.68 677.017> 324.644 96.2939<540.684 677.013> 550.062 96.2939<106.546 242.882> 763.554 96.2939<106.55 242.879>
LayerCount: 2
UndoRedoHistory
Layer: 1
Undoes
UndoOperation
Index: 0
Type: 1
WasModified: 0
WasOrder2: 0
Layer: 1
Width: 971
VWidth: 1000
LBearingChange: 0
UnicodeEnc: 0
InstructionsLength: 0
SplineSet
606.518932851 212.883789062 m 6
 606.518932851 272.7578125 666.657794481 321.607421875 659.194908161 321.607421875 c 6
 751.355064411 321.607421875 l 6
 815.111412066 321.607421875 867.753013629 272.7578125 867.753013629 212.883789062 c 6
 867.753013629 220.711914062 867.753013629 123.48828125 867.753013629 108.116210938 c 6
 867.753013629 48.2421875 815.111412066 -0.607421875 751.355064411 -0.607421875 c 6
 659.194908161 -0.607421875 l 6
 666.657794481 -0.607421875 606.518932851 48.2421875 606.518932851 108.116210938 c 6
 606.518932851 123.48828125 606.518932851 220.711914062 606.518932851 212.883789062 c 6
730.229087848 211.787109375 m 6
 679.168540974 211.787109375 l 6
 662.638267536 211.787109375 730.341061332 201.420898438 730.341061332 190.322265625 c 6
 730.341061332 194.580078125 730.341061332 147.999023438 730.341061332 132.21484375 c 6
 730.341061332 121.116210938 662.638267536 110.75 679.168540974 110.75 c 6
 730.229087848 110.75 l 6
 746.759361286 110.75 758.214927692 121.116210938 758.214927692 132.21484375 c 6
 758.214927692 147.999023438 758.214927692 194.580078125 758.214927692 190.322265625 c 6
 758.214927692 201.420898438 746.759361286 211.787109375 730.229087848 211.787109375 c 6
144.870117188 0 m 5
 686.427330036 780 l 5
 826.642662066 780 l 5
 285.84765625 0 l 5
 144.870117188 0 l 5
103.759765625 673.883789062 m 6
 103.759765625 733.7578125 156.401367188 782.607421875 220.919921875 782.607421875 c 6
 323.18071913 782.607421875 l 6
 411.629527323 782.607421875 483.796161279 733.7578125 483.796161279 673.883789062 c 6
 483.796161279 658.51171875 483.796161279 561.288085938 483.796161279 569.116210938 c 6
 483.796161279 509.2421875 411.629527323 460.392578125 323.18071913 460.392578125 c 6
 220.919921875 460.392578125 l 6
 156.401367188 460.392578125 103.759765625 509.2421875 103.759765625 569.116210938 c 6
 103.759765625 561.288085938 103.759765625 658.51171875 103.759765625 673.883789062 c 6
294.219012564 672.787109375 m 6
 240.893554688 672.787109375 l 6
 224.36328125 672.787109375 212.145507812 662.420898438 212.145507812 651.322265625 c 6
 212.145507812 635.538085938 212.145507812 588.95703125 212.145507812 593.21484375 c 6
 212.145507812 582.116210938 224.36328125 571.75 240.893554688 571.75 c 6
 294.219012564 571.75 l 6
 316.88044681 571.75 333.629853311 582.116210938 333.629853311 593.21484375 c 6
 333.629853311 588.95703125 333.629853311 635.538085938 333.629853311 651.322265625 c 6
 333.629853311 662.420898438 316.88044681 672.787109375 294.219012564 672.787109375 c 6
EndSplineSet
EndUndoOperation
UndoOperation
Index: 1
Type: 12
WasModified: 0
WasOrder2: 0
Layer: 0
HStem: -0.607422 111.357<679.169 757.298> 211.787 109.82<679.169 757.298> 460.393 111.357<214.907 331.423> 672.787 109.82<214.907 331.423>
VStem: 103.76 108.386<593.052 672.065> 333.63 150.166<573.996 670.541> 606.519 123.822<120.118 202.419> 758.215 109.538<111.338 190.485>
EndUndoOperation
EndUndoes
Redoes
EndRedoes
EndUndoRedoHistory
Fore
SplineSet
704.955078125 103.33203125 m 0
 759.7734375 103.33203125 763.553710938 107.840820312 763.553710938 174.712890625 c 0
 763.553710938 241.584960938 759.7734375 246.09375 704.955078125 246.09375 c 0
 650.13671875 246.09375 646.356445312 241.584960938 646.356445312 174.712890625 c 0
 646.356445312 107.840820312 650.13671875 103.33203125 704.955078125 103.33203125 c 0
704.981445312 0.185546875 m 1
 574.22265625 0.2724609375 550.0625 34.8369140625 550.0625 174.712890625 c 0
 550.0625 314.6015625 574.231445312 349.153320312 704.981445312 349.240234375 c 1
 835.684570312 349.143554688 859.84765625 314.583007812 859.84765625 174.712890625 c 0
 859.84765625 34.85546875 835.694335938 0.2822265625 704.981445312 0.185546875 c 1
266.044921875 537.466796875 m 0
 320.86328125 537.466796875 324.643554688 541.975585938 324.643554688 608.84765625 c 0
 324.643554688 675.719726562 320.86328125 680.228515625 266.044921875 680.228515625 c 0
 211.2265625 680.228515625 207.446289062 675.719726562 207.446289062 608.84765625 c 0
 207.446289062 541.975585938 211.2265625 537.466796875 266.044921875 537.466796875 c 0
266.071289062 434.3203125 m 1
 135.3125 434.407226562 111.15234375 468.971679688 111.15234375 608.84765625 c 0
 111.15234375 748.736328125 135.321289062 783.288085938 266.071289062 783.375 c 1
 396.774414062 783.278320312 420.9375 748.717773438 420.9375 608.84765625 c 0
 420.9375 468.990234375 396.784179688 434.416992188 266.071289062 434.3203125 c 1
144.870117188 0 m 1
 686.427330036 780 l 1
 826.642662066 780 l 1
 285.84765625 0 l 1
 144.870117188 0 l 1
EndSplineSet
Validated: 524289
EndChar

StartChar: B
Encoding: 66 66 39
Width: 866
Flags: W
HStem: 0 109<192 638.52> 375 117<192 610.92> 690 110<192 608.902>
VStem: 72 120<109 375 492 690> 642.779 119.134<532.664 660.942> 686.099 117.001<149.297 328.383>
LayerCount: 2
UndoRedoHistory
Layer: 1
Undoes
UndoOperation
Index: 0
Type: 12
WasModified: 0
WasOrder2: 0
Layer: 0
EndUndoOperation
EndUndoes
Redoes
EndRedoes
EndUndoRedoHistory
Fore
SplineSet
761.913413952 594.823242188 m 0xf8
 761.913413952 530.758789062 751.367515514 477.74609375 701.98665614 440.90625 c 1
 807.786460827 394.489257812 803.100097656 283.450195312 803.100097656 237.176757812 c 0xf4
 803.100097656 144.553710938 783.074707031 59.923828125 685.415332031 24.1298828125 c 0
 624.277663495 1.4541015625 543.993075463 0 440.672177419 0 c 0
 72 0 l 1
 72 800 l 1
 438.721685988 800 l 2
 549.930657762 799.87109375 672.608549253 797.158203125 726.56087489 724.8671875 c 0
 736.444663952 711.270507812 761.913413952 669.028320312 761.913413952 594.823242188 c 0xf8
192 690 m 1
 192 492 l 1
 442.653629032 492 l 2
 509.769497385 492 570.787177499 492 606.161119818 509.505859375 c 0
 621.680878276 517.185546875 631.800987588 527.200195312 638.036561634 544.864257812 c 0
 641.224492818 553.897460938 642.77927443 581.643554688 642.77927443 594.995117188 c 0xf8
 642.77927443 652.669921875 621.233890657 667.155273438 594.652639869 676.176757812 c 0
 564.452917874 686.42578125 513.644357595 690 440.672177419 690 c 2
 192 690 l 1
442.653629032 375 m 2
 192 375 l 1
 192 109 l 1
 439.681451613 109 l 2
 617.918248724 109 659.334263956 127.7421875 676.264645682 167.001953125 c 0
 682.910442131 182.412109375 686.099121094 204.119140625 686.099121094 233.31640625 c 0xf4
 686.099121094 280.810546875 680.839979996 305.177734375 673.797506221 316.486328125 c 0
 638.37712363 373.360351562 540.591325526 375 442.653629032 375 c 2
EndSplineSet
Validated: 33
EndChar

StartChar: P
Encoding: 80 80 40
Width: 855
Flags: W
HStem: 0 21G<72 192> 375 113<192 644.541> 686 114<192 642.231>
VStem: 72 120<0 375 488 686> 675.299 118.001<516.055 654.391>
LayerCount: 2
UndoRedoHistory
Layer: 1
Undoes
UndoOperation
Index: 0
Type: 12
WasModified: 0
WasOrder2: 0
Layer: 0
EndUndoOperation
EndUndoes
Redoes
EndRedoes
EndUndoRedoHistory
Fore
SplineSet
72 800 m 1
 449.161952319 800 l 2
 625.558445755 799.795898438 793.300097656 795.840820312 793.300097656 592.22265625 c 0
 793.300097656 476.2421875 757.088183594 421.030273438 655.012315762 391.158203125 c 0
 601.128603214 375.326171875 521.862984254 375 453.102061856 375 c 2
 192 375 l 1
 192 0 l 1
 72 0 l 1
 72 800 l 1
665.871854865 533.057617188 m 0
 671.994342985 546.157226562 675.299121094 565.583984375 675.299121094 592.771484375 c 0
 675.299121094 646.541992188 654.886278793 661.963867188 623.09684681 671.82421875 c 0
 589.268524484 682.317382812 532.780694266 686 451.116494846 686 c 2
 192 686 l 1
 192 488 l 1
 453.102061856 488 l 2
 609.947312943 488 649.677073937 498.404296875 665.871854865 533.057617188 c 0
EndSplineSet
Validated: 1
EndChar

StartChar: R
Encoding: 82 82 41
Width: 862
Flags: W
HStem: 0 21G<72 192 704.029 852.16> 375 113<192 607.751> 686 114<192 632.443>
VStem: 72 120<0 375 488 686> 671.825 121.862<516.84 654.446>
LayerCount: 2
UndoRedoHistory
Layer: 1
Undoes
UndoOperation
Index: 0
Type: 12
WasModified: 0
WasOrder2: 0
Layer: 0
EndUndoOperation
EndUndoes
Redoes
EndRedoes
EndUndoRedoHistory
Fore
SplineSet
72 800 m 1
 447.215232453 800 l 2
 619.251320745 799.799804688 793.686154246 797.890625 793.686154246 592.94140625 c 0
 793.686154246 510.359375 773.778927684 455.96875 713.375643373 421.731445312 c 1
 760.226193308 390.709960938 773.359005808 336.459960938 771.222363281 200.856445312 c 0
 771.862011719 163.5078125 774.369824219 115.670898438 778.699902344 96.1103515625 c 0
 783.596386719 73.9912109375 799.783084102 46.8892058971 805.173535157 40.8203125 c 0
 819.225292969 25 833.225292969 14 852.159863281 0 c 1
 711.972363281 0 l 1
 696.084914862 8.0625 675.565551673 18.4755859375 665.235631238 67.6416015625 c 0
 648.543803768 147.079101562 671.118374674 294.63671875 631.530609549 338.099609375 c 0
 624.380680455 345.94921875 603.864203793 356.80078125 576.071752994 364.734375 c 0
 544.919383962 373.625976562 532.482298311 375 451.125515301 375 c 2
 192 375 l 1
 192 0 l 1
 72 0 l 1
 72 800 l 1
662.016190685 532.209960938 m 0
 668.223187399 545.381835938 671.824611783 565.049804688 671.824611783 592.771484375 c 0
 671.824611783 646.951171875 649.7041879 663.1484375 616.219504493 672.971679688 c 0
 581.655259727 683.11328125 525.947199615 686 449.154979063 686 c 2
 192 686 l 1
 192 488 l 1
 451.125515301 488 l 2
 604.269279845 488 645.353228492 496.841796875 662.016190685 532.209960938 c 0
EndSplineSet
Validated: 33
EndChar

StartChar: question
Encoding: 63 63 42
Width: 546
Flags: W
HStem: -25 157<212.011 333.17> 722.499 108.501<176.888 368.931>
VStem: 34 120<567 699.74> 195.85 153.3<-9.12709 116.127> 210.7 120<186.165 338.16> 393.805 118.998<531.775 697.51>
LayerCount: 2
UndoRedoHistory
Layer: 1
Undoes
UndoOperation
Index: 0
Type: 12
WasModified: 0
WasOrder2: 0
Layer: 0
EndUndoOperation
EndUndoes
Redoes
EndRedoes
EndUndoRedoHistory
Fore
SplineSet
274.7 722.499023438 m 0xec
 200.038547061 722.499023438 154 706.055686323 154 648 c 2
 154 567 l 1
 34 567 l 1
 34 648 l 2
 34 747.169075903 116.186654599 808.703689947 176.491982888 821.497186475 c 0
 207.995504063 828.62768803 233.887447405 831 273.7 831 c 0
 339.654462531 831 419.985277974 828.559221188 474.036395231 754.666989647 c 0
 505.034484442 712.290104549 512.799706122 664.222065981 512.799706122 604 c 0
 512.799706122 602.911959436 512.802644906 601.715958284 512.802644906 600.419245204 c 0
 512.802644906 574.56187417 510.858279597 509.414299766 462.693418533 460.183416205 c 0
 424.125040128 420.761412187 387.709804494 379.791665605 353.676283866 339.636070629 c 0
 340.498649614 325.229804785 330.7 301.050770899 330.7 271 c 2
 330.7 257 l 2
 330.7 246.44383101 330.126890238 232.17045214 328.2201034 219.635401274 c 0
 326.911309802 211.03150597 322.79937437 184 297.7 184 c 2
 242.7 184 l 2
 220.107255153 184 210.7 203.216139173 210.7 258 c 2
 210.7 293 l 2
 210.7 349.263263184 239.92130358 385.843740464 265.60253897 412.470814893 c 2
 375.517026735 534.513660228 l 2
 383.25690411 543.648738481 393.804588934 558.210760423 393.804588934 609 c 0
 393.804588934 662.465830047 384.964982079 688.267400949 367.851244402 702.388846791 c 0
 353.286474819 714.407004879 325.885706634 722.499023438 274.7 722.499023438 c 0xec
259.2 132 m 2
 286.2 132 l 2
 322.031750703 132 349.15 102.831750703 349.15 67 c 2
 349.15 40 l 2
 349.15 4.16824929715 322.031750703 -25 286.2 -25 c 2
 259.2 -25 l 2
 223.368249297 -25 195.85 4.16824929715 195.85 40 c 2
 195.85 67 l 2xf4
 195.85 102.831750703 223.368249297 132 259.2 132 c 2
EndSplineSet
Validated: 1
EndChar

StartChar: exclam
Encoding: 33 33 43
Width: 280
Flags: W
HStem: -25 157<78.4092 201.591>
VStem: 61.5 157<-8.0908 115.091> 77 126<221.638 825> 87.2815 103.302<201.4 485.391>
LayerCount: 2
UndoRedoHistory
Layer: 1
Undoes
UndoOperation
Index: 0
Type: 12
WasModified: 0
WasOrder2: 0
Layer: 0
EndUndoOperation
EndUndoes
Redoes
EndRedoes
EndUndoRedoHistory
Fore
SplineSet
77 825 m 1xa0
 203 825 l 1
 203 480 l 2xa0
 203 477.399414938 197.991445276 246.949753482 190.583952024 220.238054334 c 0
 189.428048762 216.069823715 184.004038064 201 166 201 c 2
 114 201 l 2
 90.5573423712 201 88.30681219 223.743101579 87.2814903343 234.104659629 c 0x90
 83.125877536 276.099885814 77 433.77492484 77 480 c 2
 77 825 l 1xa0
126.5 132 m 2
 153.5 132 l 2
 189.331750703 132 218.5 102.831750703 218.5 67 c 2
 218.5 40 l 2
 218.5 4.16824929715 189.331750703 -25 153.5 -25 c 2
 126.5 -25 l 2
 90.6682492971 -25 61.5 4.16824929715 61.5 40 c 2
 61.5 67 l 2xc0
 61.5 102.831750703 90.6682492971 132 126.5 132 c 2
EndSplineSet
Validated: 1
EndChar

StartChar: quotedbl
Encoding: 34 34 44
Width: 381
Flags: W
HStem: 596.1 228.9<57.6721 161.593 217.672 321.593>
VStem: 49 122<602.349 825> 209 122<602.349 825>
LayerCount: 2
UndoRedoHistory
Layer: 1
Undoes
UndoOperation
Index: 0
Type: 12
WasModified: 0
WasOrder2: 0
Layer: 0
EndUndoOperation
EndUndoes
Redoes
EndRedoes
EndUndoRedoHistory
Fore
SplineSet
331 825 m 5
 331 703.900390625 l 6
 331 641.764820622 330.640140954 596.099609375 286.799804688 596.099609375 c 2
 253.200195312 596.099609375 l 2
 215.266933094 596.099609375 211.987202964 633.692472524 210.608251565 649.498264221 c 0
 209.434690952 662.949829367 209 680.249957877 209 703.900390625 c 6
 209 825 l 5
 331 825 l 5
49 825 m 5
 171 825 l 5
 171 703.900390625 l 6
 171 641.762168584 170.639654577 596.099609375 126.799804688 596.099609375 c 2
 93.2001953125 596.099609375 l 2
 55.266976743 596.099609375 51.9871915757 633.693055419 50.6082518054 649.498693657 c 0
 49.4346917667 662.950235067 49 680.250255692 49 703.900390625 c 6
 49 825 l 5
EndSplineSet
Validated: 1
EndChar

StartChar: U
Encoding: 85 85 45
Width: 932
Flags: W
HStem: -12.1963 108.524<228.518 697.964> 780 20G<67 184 741.1 858.1>
VStem: 67 117<139.983 800> 741.1 117<135.594 800>
LayerCount: 2
UndoRedoHistory
Layer: 1
Undoes
UndoOperation
Index: 0
Type: 12
WasModified: 0
WasOrder2: 0
Layer: 0
EndUndoOperation
EndUndoes
Redoes
EndRedoes
EndUndoRedoHistory
Fore
SplineSet
184 800 m 1
 184 332.237304688 l 2
 184 187.645507812 189.166973995 139.161132812 228.462365787 117.591796875 c 0
 265.45059469 97.2900390625 340.246463436 96.328125 463.574980778 96.328125 c 0
 582.001374567 96.328125 657.667329608 97.5849609375 697.234264815 117.061523438 c 0
 712.772476212 124.7109375 721.677952857 133.897460938 728.159617682 149.211914062 c 0
 738.017408556 172.5 741.1 233.997070312 741.1 332.237304688 c 2
 741.1 800 l 1
 858.1 800 l 1
 858.1 328.053710938 l 2
 858.1 190.20703125 852.44765625 120.712890625 834.020898438 86.3662109375 c 0
 784.836328125 -5.3125 699.958304214 -12.1962890625 463.705971791 -12.1962890625 c 0
 212.672689889 -12.1962890625 95.763671875 -11.427734375 73.35546875 163.444335938 c 0
 68.1630859375 203.9609375 67 255.567382812 67 328.053710938 c 2
 67 800 l 1
 184 800 l 1
EndSplineSet
Validated: 1
EndChar

StartChar: grave
Encoding: 96 96 46
Width: 360
Flags: W
HStem: 601.469 223.531<196.404 216.411>
VStem: 42.9864 247.878
LayerCount: 2
UndoRedoHistory
Layer: 1
Undoes
UndoOperation
Index: 0
Type: 12
WasModified: 0
WasOrder2: 0
Layer: 0
EndUndoOperation
EndUndoes
Redoes
EndRedoes
EndUndoRedoHistory
Fore
SplineSet
42.9863506351 825 m 5
 203.068097404 825 l 5
 264.251396245 724.227507791 269.350684014 715.828680878 280.632543938 689.053255054 c 0
 286.805662199 674.402490797 290.864257812 662.205242464 290.864257812 649 c 0
 290.864257812 641.13479601 289.533465527 627.763428293 277.580593311 618.446502487 c 0
 273.311948198 614.92793591 269.127739434 611.324932982 264.805966764 607.859493961 c 0
 256.910443878 602.04307472 248.965736486 601.46875 244 601.46875 c 0
 228.074333485 601.46875 214.766459258 608.891752413 200.663968554 619.507444171 c 0
 182.660294767 633.059763079 162.461774107 654.321231964 140.505281389 685.68724178 c 2
 42.9863506351 825 l 5
EndSplineSet
Validated: 1
EndChar

StartChar: V
Encoding: 86 86 47
Width: 871
Flags: W
HStem: 0 21G<368.302 523.724> 780 20G<42 179.44 714.449 851.981>
LayerCount: 2
UndoRedoHistory
Layer: 1
Undoes
UndoOperation
Index: 0
Type: 12
WasModified: 1
WasOrder2: 0
Layer: 0
EndUndoOperation
EndUndoes
Redoes
EndRedoes
EndUndoRedoHistory
Fore
SplineSet
376.668945312 0 m 2
 42 800 l 1
 171.211816406 800 l 1
 446.148511416 131.68359375 l 1
 722.725488281 800 l 1
 851.98125 800 l 1
 515.306640625 0 l 2
 376.668945312 0 l 2
EndSplineSet
Validated: 1
EndChar

StartChar: W
Encoding: 87 87 48
Width: 1147
Flags: W
HStem: 0 21G<250.428 397.65 778.888 926.041> 780 20G<42 174.174 493.397 664.663 983.63 1115.02>
LayerCount: 2
UndoRedoHistory
Layer: 1
Undoes
UndoOperation
Index: 0
Type: 12
WasModified: 1
WasOrder2: 0
Layer: 0
EndUndoOperation
EndUndoes
Redoes
EndRedoes
EndUndoRedoHistory
Fore
SplineSet
658.849609375 800 m 2
 846.881901617 153.119140625 l 1
 987.992578125 800 l 1
 1115.02470703 800 l 1
 921.1953125 0 l 2
 785.03125 0 l 2
 579.861328125 668 l 1
 392.026367188 0 l 2
 255.772460938 0 l 2
 42 800 l 1
 169.272949219 800 l 1
 327.6541708 153.681640625 l 1
 498.689453125 800 l 2
 658.849609375 800 l 2
EndSplineSet
Validated: 1
EndChar

StartChar: A
Encoding: 65 65 49
Width: 877
Flags: W
HStem: 0 21G<45 183.744 717.924 856.7> 213 118<317.666 583.397> 780 20G<388.2 511.842>
LayerCount: 2
UndoRedoHistory
Layer: 1
Undoes
UndoOperation
Index: 0
Type: 12
WasModified: 0
WasOrder2: 0
Layer: 0
EndUndoOperation
EndUndoes
Redoes
EndRedoes
EndUndoRedoHistory
Fore
SplineSet
503 800 m 6
 856.7 0 l 5
 726.7 0 l 5
 633.231445312 213 l 5
 268.12109375 213 l 5
 175 0 l 5
 45 0 l 5
 397 800 l 6
 503 800 l 6
583.397460938 331 m 5
 450.148511416 643.31640625 l 5
 317.666015625 331 l 5
 583.397460938 331 l 5
EndSplineSet
Validated: 1
EndChar

StartChar: plusminus
Encoding: 177 177 50
Width: 700
Flags: W
HStem: -125 114<85 615.4> 203 114<85 293.2 407.2 615.4>
VStem: 293.2 114<-1.25 203 317 521.25>
LayerCount: 2
UndoRedoHistory
Layer: 1
Undoes
UndoOperation
Index: 0
Type: 12
WasModified: 1
WasOrder2: 0
Layer: 0
HStem: -125 114<85 293.2 407.2 615.4> -25 14<293.2 407.2> 193 114<85 293.2 407.2 615.4>
VStem: 293.2 114<-25 193 307 525>
EndUndoOperation
EndUndoes
Redoes
EndRedoes
EndUndoRedoHistory
Fore
SplineSet
85 -125 m 1
 85 -11 l 1
 615.4 -11 l 1
 615.4 -125 l 1
 85 -125 l 1
293.200195312 521.25 m 1
 407.200195312 521.25 l 1
 407.200195312 317 l 1
 615.400390625 317 l 1
 615.400390625 203 l 1
 407.200195312 203 l 1
 407.200195312 -1.25 l 1
 293.200195312 -1.25 l 1
 293.200195312 203 l 1
 85 203 l 1
 85 317 l 1
 293.200195312 317 l 1
 293.200195312 521.25 l 1
EndSplineSet
Validated: 524289
EndChar

StartChar: exclamdown
Encoding: 161 161 51
Width: 360
Flags: W
HStem: 468 157<118.409 241.591>
VStem: 101.5 157<484.909 608.091> 117 126<-225 378.362> 129.416 103.302<114.609 398.6>
LayerCount: 2
UndoRedoHistory
Layer: 1
Undoes
UndoOperation
Index: 0
Type: 12
WasModified: 0
WasOrder2: 0
Layer: 0
EndUndoOperation
EndUndoes
Redoes
EndRedoes
EndUndoRedoHistory
Fore
SplineSet
117 -225 m 5xa0
 117 120 l 6xa0
 117 122.600585062 122.008554724 353.050246518 129.416047976 379.761945666 c 0
 130.571951238 383.930176285 135.995961936 399 154 399 c 2
 206 399 l 2
 229.442657629 399 231.69318781 376.256898421 232.718509666 365.895340371 c 0x90
 236.874122464 323.900114186 243 166.22507516 243 120 c 6
 243 -225 l 5
 117 -225 l 5xa0
166.5 468 m 2
 130.668249297 468 101.5 497.168249297 101.5 533 c 2
 101.5 560 l 2
 101.5 595.831750703 130.668249297 625 166.5 625 c 2
 193.5 625 l 2
 229.331750703 625 258.5 595.831750703 258.5 560 c 2
 258.5 533 l 2xc0
 258.5 497.168249297 229.331750703 468 193.5 468 c 2
 166.5 468 l 2
EndSplineSet
Validated: 1
EndChar

StartChar: questiondown
Encoding: 191 191 52
Width: 534
Flags: W
HStem: -231 108.501<177.325 358.052> 468 157<212.768 323.631>
VStem: 33.9971 118.998<-97.5098 68.2255> 197.55 141.3<482.864 610.136> 216 108<261.84 414.523> 380.7 120<-99.7401 33>
LayerCount: 2
UndoRedoHistory
Layer: 1
Undoes
UndoOperation
Index: 0
Type: 12
WasModified: 0
WasOrder2: 0
Layer: 0
EndUndoOperation
EndUndoes
Redoes
EndRedoes
EndUndoRedoHistory
Fore
SplineSet
266.399511719 -122.499023438 m 0xec
 334.660964658 -122.499023438 380.699511719 -106.055686323 380.699511719 -48 c 2
 380.699511719 33 l 1
 500.699511719 33 l 1
 500.699511719 -48 l 2
 500.699511719 -147.169075903 418.51285712 -208.703689947 358.207528831 -221.497186475 c 0
 326.704007656 -228.62768803 303.130809054 -231 267.299511719 -231 c 0
 207.045049188 -231 126.814428148 -228.559221188 72.7633108914 -154.666989647 c 0
 41.7652216804 -112.29010455 34 -64.2220659852 34 -4 c 0
 34 -2.91195943658 33.9970612156 -1.71595828412 33.9970612156 -0.419245204165 c 0
 33.9970612156 25.4381258295 35.9414265247 90.5857002334 84.1062875889 139.816583795 c 0
 122.674665994 179.238587813 158.989707224 220.208334395 193.023227853 260.363929371 c 0
 206.200862105 274.770195215 215.999511719 298.949229101 215.999511719 329 c 2
 215.999511719 343 l 2
 215.999511719 353.55616899 216.515310505 367.82954786 218.231418659 380.364598726 c 0
 219.409332897 388.96849403 223.110074786 416 245.699511719 416 c 2
 295.199511719 416 l 2
 315.532982081 416 323.999511719 396.783860827 323.999511719 342 c 2
 323.999511719 307 l 2
 323.999511719 250.736736816 297.700338497 214.156259536 274.587226646 187.529185107 c 2
 171.182484985 65.4863397724 l 2
 163.442607611 56.3512615195 152.995117188 41.7892395787 152.995117188 -9 c 0
 152.995117188 -62.465830047 161.73452964 -88.2674009486 178.848267316 -102.388846791 c 0
 193.4130369 -114.407004879 220.332375748 -122.499023438 266.399511719 -122.499023438 c 0xec
280.349511719 468 m 2
 256.049511719 468 l 2
 223.800936086 468 197.549511719 497.168249297 197.549511719 533 c 2
 197.549511719 560 l 2
 197.549511719 595.831750703 223.800936086 625 256.049511719 625 c 2
 280.349511719 625 l 2
 312.598087351 625 338.849511719 595.831750703 338.849511719 560 c 2
 338.849511719 533 l 2xf4
 338.849511719 497.168249297 312.598087351 468 280.349511719 468 c 2
EndSplineSet
Validated: 1
EndChar

StartChar: multiply
Encoding: 215 215 53
Width: 697
Flags: W
LayerCount: 2
UndoRedoHistory
Layer: 1
Undoes
UndoOperation
Index: 0
Type: 12
WasModified: 0
WasOrder2: 0
Layer: 0
EndUndoOperation
EndUndoes
Redoes
EndRedoes
EndUndoRedoHistory
Fore
SplineSet
125.247296875 404.149414062 m 1
 205.850585938 484.752703125 l 1
 348.524729687 330.603289062 l 1
 491.198873437 484.752703125 l 1
 571.8021625 404.149414062 l 1
 421.067689843 250 l 1
 571.8021625 95.8505859374 l 1
 491.198873437 15.247296875 l 1
 348.524729687 169.396710938 l 1
 205.850585938 15.247296875 l 1
 125.247296875 95.8505859374 l 1
 275.981769532 250 l 1
 125.247296875 404.149414062 l 1
EndSplineSet
Validated: 1
EndChar

StartChar: divide
Encoding: 247 247 54
Width: 704
Flags: W
HStem: -25 157<290.759 413.941> 193 114<85 619> 369 157<290.759 413.941>
VStem: 273.85 157<-8.0908 115.091 385.909 509.091>
LayerCount: 2
UndoRedoHistory
Layer: 1
Undoes
UndoOperation
Index: 0
Type: 12
WasModified: 1
WasOrder2: 0
Layer: 0
HStem: -25 157<290.759 413.941> 193 114<85 619> 368 157<289.068 399.932>
VStem: 273.85 157<-8.0908 115.091> 273.85 141.3<382.864 510.136>
EndUndoOperation
EndUndoes
Redoes
EndRedoes
EndUndoRedoHistory
Fore
SplineSet
338.849609375 526 m 6
 365.849609375 526 l 6
 401.681640625 526 430.849609375 496.83203125 430.849609375 461 c 6
 430.849609375 434 l 6
 430.849609375 398.16796875 401.681640625 369 365.849609375 369 c 6
 338.849609375 369 l 6
 303.017578125 369 273.849609375 398.16796875 273.849609375 434 c 6
 273.849609375 461 l 6
 273.849609375 496.83203125 303.017578125 526 338.849609375 526 c 6
85 193 m 1
 85 307 l 1
 619 307 l 1
 619 193 l 1
 85 193 l 1
338.85 132 m 2
 365.85 132 l 2
 401.681750703 132 430.85 102.831750703 430.85 67 c 2
 430.85 40 l 2
 430.85 4.16824929715 401.681750703 -25 365.85 -25 c 2
 338.85 -25 l 2
 303.018249297 -25 273.85 4.16824929715 273.85 40 c 2
 273.85 67 l 2
 273.85 102.831750703 303.018249297 132 338.85 132 c 2
EndSplineSet
Validated: 1
EndChar

StartChar: acute
Encoding: 180 180 55
Width: 360
Flags: W
HStem: 601.469 223.531<152.932 159.537>
VStem: 65.1357 247.878
LayerCount: 2
UndoRedoHistory
Layer: 1
Undoes
UndoOperation
Index: 0
Type: 12
WasModified: 0
WasOrder2: 0
Layer: 0
EndUndoOperation
EndUndoes
Redoes
EndRedoes
EndUndoRedoHistory
Fore
SplineSet
112 601.46875 m 0
 103.171796064 601.46875 95.8600137729 603.912663251 90.0107187166 608.787075798 c 2
 78.4194066881 618.446502488 l 2
 66.4665344761 627.763428292 65.1357421875 641.134796005 65.1357421875 649 c 0
 65.1357421875 662.470954844 68.7489517716 686.345136531 111.61445109 756.947726931 c 2
 152.931902596 825 l 1
 313.013649365 825 l 1
 215.49463061 685.687116066 l 2
 193.456759623 654.204853094 150.756374691 601.46875 112 601.46875 c 0
EndSplineSet
Validated: 1
EndChar

StartChar: periodcentered
Encoding: 183 183 56
Width: 360
Flags: W
HStem: 171.5 157<118.409 241.591>
VStem: 101.5 157<188.409 311.591>
LayerCount: 2
UndoRedoHistory
Layer: 1
Undoes
UndoOperation
Index: 0
Type: 12
WasModified: 0
WasOrder2: 0
Layer: 0
EndUndoOperation
EndUndoes
Redoes
EndRedoes
EndUndoRedoHistory
Fore
SplineSet
166.5 328.5 m 2
 193.5 328.5 l 2
 229.331750703 328.5 258.5 299.331750703 258.5 263.5 c 2
 258.5 236.5 l 2
 258.5 200.668249297 229.331750703 171.5 193.5 171.5 c 2
 166.5 171.5 l 2
 130.668249297 171.5 101.5 200.668249297 101.5 236.5 c 2
 101.5 263.5 l 2
 101.5 299.331750703 130.668249297 328.5 166.5 328.5 c 2
EndSplineSet
Validated: 1
EndChar

StartChar: quotedblright
Encoding: 256 8221 57
Width: 429
Flags: W
HStem: 561.903 64.2554<58.9702 83.8108 231.825 254.182>
VStem: 51.75 152.877<685.755 806.841> 225.327 153.3<683.377 805.697>
LayerCount: 2
UndoRedoHistory
Layer: 1
Undoes
UndoOperation
Index: 0
Type: 12
WasModified: 0
WasOrder2: 0
Layer: 0
EndUndoOperation
EndUndoes
Redoes
EndRedoes
EndUndoRedoHistory
Fore
SplineSet
286.626909862 825 m 2
 308.626909862 825 l 2
 347.360379865 825 378.626909862 793.733470003 378.626909862 755 c 2
 378.626909862 719 l 2
 378.626909862 660.852272759 356.335195863 620.503751492 326.272739727 596.196842513 c 0
 302.564380901 577.027519907 275.821947556 568.414173154 254.181646124 565.252141779 c 2
 233.085067919 561.903478572 l 1
 221.51909862 626.158863568 l 1
 261.700843606 642.269712704 271.801621098 645.942722701 276.231952973 668.831056874 c 1
 246.651321037 673.823627831 225.326909862 700.705384698 225.326909862 733 c 2
 225.326909862 760 l 2
 225.326909862 795.831750703 251.578334229 825 286.626909862 825 c 2
116.75 825 m 2
 138.75 825 l 2
 176.487032865 825 204.626909862 793.733470003 204.626909862 755 c 2
 204.626909862 719 l 2
 204.626909862 660.852272759 184.564367263 620.503751492 156.395829865 596.196842513 c 0
 132.687471039 577.027519907 105.945037694 568.414173154 83.810818069 565.252141779 c 2
 60.3701756189 561.903478572 l 1
 47.5190986197 626.158863568 l 1
 91.8239337435 642.269712704 101.924711236 645.942722701 106.355043111 668.831056874 c 1
 75.4437901948 673.823627831 51.75 700.705384698 51.75 733 c 2
 51.75 760 l 2
 51.75 795.831750703 80.9182492971 825 116.75 825 c 2
EndSplineSet
Validated: 1
EndChar

StartChar: quotedblleft
Encoding: 257 8220 58
Width: 429
Flags: W
HStem: 764.841 64.2554<175.695 198.052 346.066 370.907>
VStem: 51.25 153.3<585.303 707.623> 225.25 152.877<584.159 705.245>
LayerCount: 2
UndoRedoHistory
Layer: 1
Undoes
UndoOperation
Index: 0
Type: 12
WasModified: 0
WasOrder2: 0
Layer: 0
EndUndoOperation
EndUndoes
Redoes
EndRedoes
EndUndoRedoHistory
Fore
SplineSet
143.25 566 m 2
 121.25 566 l 2
 82.516529997 566 51.25 597.266529997 51.25 636 c 2
 51.25 672 l 2
 51.25 730.147727241 73.5417139987 770.496248508 103.604170135 794.803157487 c 0
 127.312528961 813.972480093 154.054962306 822.585826846 175.695263738 825.747858221 c 2
 196.791841943 829.096521428 l 1
 208.357811242 764.841136432 l 1
 168.176066256 748.730287296 158.075288764 745.057277299 153.644956889 722.168943126 c 1
 183.225588824 717.176372169 204.55 690.294615302 204.55 658 c 2
 204.55 631 l 2
 204.55 595.168249297 178.298575633 566 143.25 566 c 2
313.126909862 566 m 2
 291.126909862 566 l 2
 253.389876997 566 225.25 597.266529997 225.25 636 c 2
 225.25 672 l 2
 225.25 730.147727241 245.312542599 770.496248508 273.481079997 794.803157487 c 0
 297.189438823 813.972480093 323.931872168 822.585826846 346.066091793 825.747858221 c 2
 369.506734243 829.096521428 l 1
 382.357811242 764.841136432 l 1
 338.052976118 748.730287296 327.952198626 745.057277299 323.521866751 722.168943126 c 1
 354.433119667 717.176372169 378.126909862 690.294615302 378.126909862 658 c 2
 378.126909862 631 l 2
 378.126909862 595.168249297 348.958660565 566 313.126909862 566 c 2
EndSplineSet
Validated: 1
EndChar

StartChar: D
Encoding: 68 68 59
Width: 915
Flags: W
HStem: 0 110<192 685.093> 690 110<192 667.589>
VStem: 72 120<110 690> 732.947 115.939<159.701 606.945>
LayerCount: 2
UndoRedoHistory
Layer: 1
Undoes
UndoOperation
Index: 0
Type: 12
WasModified: 0
WasOrder2: 0
Layer: 0
EndUndoOperation
EndUndoes
Redoes
EndRedoes
EndUndoRedoHistory
Fore
SplineSet
454.26561802 0 m 2
 72 0 l 1
 72 800 l 1
 439.531594536 800 l 2
 441.865440835 800 623.564919635 799.89453125 672.561303198 787.341796875 c 0
 731.871679687 773.010742188 784.492480469 746.255859375 808.996386719 690.791015625 c 0
 848.013964844 602.474609375 848.886035157 426.939453125 848.886035157 386.80859375 c 0
 848.886035157 273.7109375 841.660449219 181.443359375 819.220996094 117.961914062 c 0
 797.380175781 56.17578125 741.941699219 23.416015625 682.30053109 11.7197265625 c 0
 632.937715432 1.4462890625 547.480379224 0 454.26561802 0 c 2
192 110 m 1
 452.301081556 110 l 2
 528.876756082 110 606.517194025 111.471679688 645.020382087 117.923828125 c 0
 685.211843673 124.658203125 711.024202915 143.65234375 716.848746573 176.099609375 c 0
 729.553125 246.999023438 732.946582031 290.348632812 732.946582031 387.186523438 c 0
 732.946582031 484.545898438 726.573585771 552.013671875 708.390112518 620.625 c 0
 699.706055578 653.390625 671.513806215 672.974609375 630.778451966 680.608398438 c 0
 602.360779718 685.93359375 505.741653322 690 450.336545091 690 c 2
 192 690 l 1
 192 110 l 1
EndSplineSet
Validated: 1
EndChar

StartChar: at
Encoding: 64 64 60
Width: 861
Flags: W
HStem: -37.1963 94.4619<208.7 655.96> 123.909 104.431<320.198 497.872> 132.896 104.078<653.107 698.057> 568.576 104.647<334.177 522.955> 738.506 94.8232<205.284 652.394>
VStem: 46.0088 103.537<127.598 663.479> 193.519 106.714<245.596 534.571> 545.33 104.753<288.215 546.106 651.55 668.601> 708.81 103.537<241.755 665.598>
LayerCount: 2
UndoRedoHistory
Layer: 1
Undoes
UndoOperation
Index: 0
Type: 12
WasModified: 0
WasOrder2: 0
Layer: 0
EndUndoOperation
EndUndoes
Redoes
EndRedoes
EndUndoRedoHistory
Fore
SplineSet
545.329982284 411.999997246 m 0xdf80
 545.329982284 513.973516742 537.052139112 533.84033353 526.210861629 543.9402952 c 0
 520.669153424 549.103066887 510.909784414 554.017907677 494.527476533 559.516515119 c 0
 482.607241582 563.517458886 448.553779462 568.576171875 423.04453125 568.576171875 c 0
 395.304414916 568.576171875 365.704072518 567.230378981 342.801901964 560.380728465 c 0
 328.398870148 556.072928794 311.790474251 539.987439642 308.31269222 523.730054408 c 0
 301.880554365 493.662113958 300.233203125 454.309615863 300.233203125 397.5078125 c 0
 300.233203125 341.802124337 302.959293914 305.842028364 309.091335485 265.347056975 c 0
 309.941886549 259.730786428 311.049254008 252.418732512 322.7686385 244.640997183 c 0
 334.221989833 237.039818525 358.264989741 228.33984375 404.104980468 228.33984375 c 0
 501.206034076 228.33984375 535.176229479 279.815936676 539.035834141 287.556790083 c 0
 542.208507794 300.839164146 545.329982284 362.981091954 545.329982284 411.999997246 c 0xdf80
569.342536617 174.097950934 m 1
 537.633258777 148.363555439 491.917641338 123.909179688 404.893359375 123.909179688 c 0xdf80
 313.44853725 123.909179688 249.147627549 131.739250517 217.582032756 192.780703185 c 0
 196.061199245 234.397626571 193.519335938 295.48995819 193.519335938 397.419921875 c 0
 193.519335938 495.716981423 196.833308073 558.589798487 221.236911992 601.664217477 c 0
 255.997596856 663.019757795 323.17632711 673.223632812 423.065625 673.223632812 c 0
 465.433044668 673.223632812 505.909171451 669.999752745 545.150222005 651.550016898 c 1
 545.728266079 668.60098911 l 1
 655.281468642 670.436502192 l 1
 654.585214637 649.935689841 650.083227522 517.377180325 650.083227522 344.000004192 c 0
 650.083227522 300.311833258 650.083227522 245.432297266 659.150108028 238.70648714 c 0
 659.749128778 238.262133667 661.856671228 236.973632812 667.901301086 236.973632812 c 0
 685.102852404 236.973632812 697.69979438 241.871595628 704.063110203 280.456155112 c 0
 708.568027786 307.772143391 708.809991987 348.169812057 708.809992492 397.049804688 c 0
 708.809992492 507.56006351 705.158511055 579.336601042 693.13937365 658.703303389 c 0
 687.436671591 696.368199564 661.775665996 719.811393967 621.06286468 727.321379899 c 0
 590.053284618 732.866412275 484.216277951 738.505859375 431.562011718 738.505859375 c 0
 377.837827535 738.505859375 271.599664254 734.892428775 240.891027108 729.401240135 c 0
 198.881309616 721.891356485 172.684522762 698.448408868 166.980354609 660.782539396 c 0
 154.90750177 581.061134652 149.545898438 507.222063148 149.545898438 397.049804688 c 0
 149.545898438 288.253583127 155.798636566 216.607416102 167.916364823 136.588719046 c 0
 173.620444217 98.9241682954 199.92107116 75.4815991793 241.931638808 67.9707278032 c 0
 283.375369067 60.5610229498 358.349708556 57.265625 431.1375 57.265625 c 0
 616.076923862 57.265625 663.057717342 62.4121514469 693.783927268 115.49691902 c 2
 705.730701928 136.137009601 l 1
 787.348089035 85.6896715621 l 1
 778.135232301 65.6000341061 l 2
 733.468707785 -31.8001871172 652.850168143 -37.1962890625 431.238574218 -37.1962890625 c 0
 345.47377781 -37.1962890625 249.631513458 -36.6399508172 198.506149609 -25.1819339747 c 0
 60.8530076039 6.76410287036 46.0087890625 135.913818302 46.0087890625 396.98828125 c 0
 46.0087890625 678.013735921 69.9425942208 787.676637037 198.00678292 820.374152078 c 0
 247.456278794 832.5356722 422.394825266 833.329101562 431.525976562 833.329101562 c 0
 433.745187611 833.329101562 615.200565847 832.903784431 663.614380591 820.341939589 c 0
 699.226039701 810.384510284 761.701034243 786.653051355 785.221120874 711.462935898 c 0
 807.530024694 640.143560868 812.347101868 525.12220746 812.347101868 396.98828125 c 0
 812.347101868 395.263446612 812.347260946 393.542357707 812.347260946 391.825121647 c 0
 812.347260946 295.312771837 812.347260946 198.041390429 744.602411041 154.743123466 c 0
 721.395221797 139.910540964 694.002234112 132.895507812 662.501301086 132.895507812 c 0xbf80
 630.456010288 132.895507812 593.784504692 144.862559275 569.342536617 174.097950934 c 1
EndSplineSet
Validated: 1
EndChar

StartChar: E
Encoding: 69 69 61
Width: 881
Flags: W
HStem: 0 114<192 819.6> 375 114<192 789.6> 686 114<192 814.6>
VStem: 72 120<114 375 489 686>
LayerCount: 2
UndoRedoHistory
Layer: 1
Undoes
UndoOperation
Index: 0
Type: 12
WasModified: 0
WasOrder2: 0
Layer: 0
EndUndoOperation
EndUndoes
Redoes
EndRedoes
EndUndoRedoHistory
Fore
SplineSet
192 375 m 1
 192 114 l 1
 819.6 114 l 1
 819.6 0 l 1
 72 0 l 1
 72 800 l 1
 814.6 800 l 1
 814.6 686 l 1
 192 686 l 1
 192 489 l 1
 789.6 489 l 1
 789.6 375 l 1
 192 375 l 1
EndSplineSet
Validated: 1
EndChar

StartChar: F
Encoding: 70 70 62
Width: 869
Flags: W
HStem: 0 21G<72 192> 375 114<192 774.1> 686 114<192 815.1>
VStem: 72 120<0 375 489 686>
LayerCount: 2
UndoRedoHistory
Layer: 1
Undoes
UndoOperation
Index: 0
Type: 12
WasModified: 0
WasOrder2: 0
Layer: 0
EndUndoOperation
EndUndoes
Redoes
EndRedoes
EndUndoRedoHistory
Fore
SplineSet
192 0 m 5
 72 0 l 5
 72 800 l 5
 815.1 800 l 5
 815.1 686 l 5
 192 686 l 5
 192 489 l 5
 774.1 489 l 5
 774.1 375 l 5
 192 375 l 5
 192 0 l 5
EndSplineSet
Validated: 1
EndChar

StartChar: G
Encoding: 71 71 63
Width: 918
Flags: W
HStem: -12.1963 108.524<228.626 694.42> 375 114<453.045 734.98> 699.443 108.886<224.853 680.599>
VStem: 61 115.939<151.555 650.031> 726.467 112.611<589.084 654.972> 734.98 116.007<133.562 375>
LayerCount: 2
UndoRedoHistory
Layer: 1
Undoes
UndoOperation
Index: 0
Type: 12
WasModified: 0
WasOrder2: 0
Layer: 0
EndUndoOperation
EndUndoes
Redoes
EndRedoes
EndUndoRedoHistory
Fore
SplineSet
850.986718751 489 m 1xf4
 850.986718751 489 850.986718751 408.442382812 850.986718751 404.326171875 c 2xf4
 850.986718751 223.462890625 848.374414063 143.446289062 833.438867188 98.169921875 c 0
 813.765039063 38.5322265625 754.745507813 11.12109375 697.231851031 -0.2802734375 c 0
 647.640569085 -10.625 549.803690575 -12.1962890625 456.652783355 -12.1962890625 c 0
 363.25781513 -12.1962890625 264.398751707 -11.6396484375 214.292548896 -0.181640625 c 0
 61.650390625 32.2353515625 61 172.166992188 61 391.3984375 c 0
 61 393.267578125 61 395.142578125 61 397.024414062 c 0
 61 642.032226562 70.8408203125 762.043945312 213.802512682 795.374023438 c 0
 262.266328497 807.53515625 447.018594833 808.329101562 456.965755702 808.329101562 c 0
 459.3824382 808.329101562 649.372923667 807.903320312 698.29519133 795.341796875 c 0
 774.439843751 775.91015625 826.955468751 733.412109375 839.077539063 613.541015625 c 2
 841.479882813 589.787109375 l 1
 726.466530983 572.565429688 l 1xf8
 719.76681713 620.038085938 718.082317646 631.97265625 710.180483707 647.744140625 c 0
 703.129513426 661.818359375 688.87922206 681.119140625 647.293141067 688.704101562 c 0
 618.229782368 694.006835938 512.034532275 699.443359375 456.965755702 699.443359375 c 0
 400.761856182 699.443359375 292.454282021 696.21875 263.697195956 691.373046875 c 0
 224.375618246 684.75 197.923233747 664.169921875 192.029399759 631.170898438 c 0
 179.591992188 561.024414062 176.939453125 495.403320312 176.939453125 397.143554688 c 0
 176.939453125 300.10546875 180.448046875 236.436523438 193.008515083 166.021484375 c 0
 198.902349071 133.0234375 225.355690672 112.443359375 264.677268382 105.819335938 c 0
 303.602605873 99.26171875 380.337299948 96.328125 456.521660384 96.328125 c 0
 572.841135213 96.328125 657.446078861 97.22265625 697.888422989 119.463867188 c 0
 713.201097553 127.884765625 721.190027773 137.766601562 724.990679732 155.321289062 c 0
 734.078125 198.397460938 734.910449218 260.671875 734.979882813 375 c 1
 453.045465996 375 l 1
 453.045465996 489 l 1
 850.986718751 489 l 1xf4
EndSplineSet
Validated: 1
EndChar

StartChar: S
Encoding: 83 83 64
Width: 895
Flags: W
HStem: -12.1963 108.524<220.754 676.902> 699.443 108.886<233.866 649.972>
VStem: 52 118.007<147.172 255.135> 83.6367 118.754<534 669.943> 694.885 115.433<583.372 656.114> 719.989 113.036<131.773 287.33>
LayerCount: 2
UndoRedoHistory
Layer: 1
Undoes
UndoOperation
Index: 0
Type: 12
WasModified: 0
WasOrder2: 0
Layer: 0
HStem: -12.1963 108.524<220.754 681.533> 699.443 108.886<233.866 649.972>
VStem: 52 118.007<147.172 255.135> 83.6367 118.754<540.333 669.943> 694.885 115.433<583.372 656.114> 719.989 113.036<131.828 301.745>
EndUndoOperation
EndUndoes
Redoes
EndRedoes
EndUndoRedoHistory
Fore
SplineSet
449.171391371 699.443359375 m 0xd8
 237.353680998 699.443359375 202.390773157 689.893693846 202.390773157 603.83203125 c 0xd8
 202.390773157 530.22369318 212.357421875 514.538085938 418.610351562 479 c 0
 523.587890625 460.911132812 584.66796875 450.385742188 681.173828125 417.724609375 c 0
 787.478515625 383.000976562 832 327 833.025390625 210.940429688 c 0
 833.362144253 172.824729774 828.095031338 145.262658153 814.621289063 105.572265625 c 0
 775.628940938 -9.28978020533 670.270200032 -12.1962890625 445.619568838 -12.1962890625 c 0
 352.088386057 -12.1962890625 253.085138812 -11.6396484375 202.904898681 -0.181640625 c 0
 77.0546875 28.2001953125 60.685546875 140.6171875 53.8466796875 230.193359375 c 2
 52 254.379882812 l 1
 170.006835938 267.10546875 l 1
 173.986058787 224.068359375 175.418054638 209.1796875 181.59078106 171.798828125 c 0
 187.493211079 136.065429688 213.98513431 113.779296875 253.364061698 106.606445312 c 0
 292.34521246 99.505859375 369.192780936 96.328125 445.488254627 96.328125 c 0
 666 96.328125 708.545559041 110 717.534389277 173.974995455 c 0
 719.646509293 189.007303868 719.989257812 207.41015625 719.989257812 217.374023438 c 0xe4
 719.989257812 288.938476562 687.981445312 302.537109375 651.330078125 319.188476562 c 0
 464.120117188 397.33984375 213.434570312 377.375 117.833984375 475.09375 c 0
 90.6044921875 502.92578125 83.63671875 560.93359375 83.63671875 605.575195312 c 0
 83.63671875 687.087890625 114.484375 735.837890625 151.318359375 763.134765625 c 0
 200.733652163 798.836816658 264.635813948 808.329101562 449.171391371 808.329101562 c 0
 546.467553871 808.329101562 628.549479335 805.025390625 666.31525477 795.341796875 c 0
 784.145584358 766.067382812 799.788162483 688.735351562 810.31843592 608.849609375 c 2
 813.616287483 583.834960938 l 1
 694.885201431 569.411132812 l 1
 684.581607915 644.104974224 680.057810587 676.899338606 615.238819111 688.704101562 c 0
 584.422153392 694.318359375 524.551499575 699.443359375 449.171391371 699.443359375 c 0xd8
EndSplineSet
Validated: 33
EndChar

StartChar: T
Encoding: 84 84 65
Width: 948
Flags: W
HStem: -0.358398 21G<409.2 534.2> 686 114<48 409.2 534.2 894.5>
VStem: 409.2 125<-0.358398 686>
LayerCount: 2
UndoRedoHistory
Layer: 1
Undoes
UndoOperation
Index: 0
Type: 12
WasModified: 0
WasOrder2: 0
Layer: 0
EndUndoOperation
EndUndoes
Redoes
EndRedoes
EndUndoRedoHistory
Fore
SplineSet
409.2 -0.3583984375 m 5
 409.2 686 l 5
 48 686 l 5
 48 800 l 5
 894.5 800 l 5
 894.5 686 l 5
 534.2 686 l 5
 534.2 -0.3583984375 l 5
 409.2 -0.3583984375 l 5
EndSplineSet
Validated: 1
EndChar

StartChar: R.var
Encoding: 258 -1 66
Width: 870
Flags: W
HStem: 0 21G<69 189 650.218 852.004> 375 113<403.196 640.27> 686 114<189 637.853>
VStem: 69 120<0 686> 672.162 117.989<516.867 654.191>
LayerCount: 2
UndoRedoHistory
Layer: 1
Undoes
UndoOperation
Index: 0
Type: 12
WasModified: 0
WasOrder2: 0
Layer: 0
EndUndoOperation
EndUndoes
Redoes
EndRedoes
EndUndoRedoHistory
Fore
SplineSet
69 800 m 1
 445.990327426 800 l 2
 619.222975942 799.798828125 790.151171875 797.883789062 790.151171875 592.22265625 c 0
 790.151171875 510.939453125 768.763476563 429.776367188 669.03248528 396.076171875 c 0
 609.967378923 375.966796875 536.089248092 375 449.92780741 375 c 2
 403.196392045 375 l 1
 852.003710937 0 l 1
 673.639453125 0 l 1
 276.688376817 338.961914062 l 2
 250.771154977 361.091796875 232.653321392 379.93359375 232.653321392 417.606445312 c 0
 232.653321392 458.7265625 270.433364323 488 310.038754768 488 c 2
 449.92780741 488 l 2
 604.13673066 488 645.506429927 496.841796875 662.285287789 532.209960938 c 0
 668.535455942 545.381835938 672.161929263 565.049804688 672.161929263 592.771484375 c 0
 672.161929263 646.951171875 649.887651502 663.1484375 616.170072539 672.971679688 c 0
 581.365423562 683.11328125 525.26989795 686 447.943565528 686 c 2
 189 686 l 1
 189 0 l 1
 69 0 l 1
 69 800 l 1
EndSplineSet
Validated: 1
EndChar

StartChar: X
Encoding: 88 88 67
Width: 864
Flags: W
HStem: 0 21G<42 205.684 658.738 822.423> 780 20G<63.7422 223.695 640.728 800.68>
LayerCount: 2
UndoRedoHistory
Layer: 1
Undoes
UndoOperation
Index: 0
Type: 12
WasModified: 0
WasOrder2: 0
Layer: 0
HStem: 0 21G<42 205.45 658.972 822.423> 780 20G<63.7422 223.434 640.989 800.68>
EndUndoOperation
EndUndoes
Redoes
EndRedoes
EndUndoRedoHistory
Fore
SplineSet
356.90330875 414.999023438 m 1
 63.7421875 800 l 1
 209.696132812 800 l 1
 432.2109375 482.086914062 l 5
 654.726269532 800 l 1
 800.680400391 800 l 1
 507.519093593 414.999023438 l 1
 822.422587891 0 l 1
 672.494853516 0 l 1
 432.2109375 349.328125 l 5
 191.926757812 0 l 1
 42 0 l 1
 356.90330875 414.999023438 l 1
EndSplineSet
Validated: 1
EndChar

StartChar: K
Encoding: 75 75 68
Width: 878
Flags: W
HStem: -0 21G<72 192 669.341 878.334> 780 20G<72 192 628.302 856.981>
VStem: 72 120<0 375.074 469.914 800>
LayerCount: 2
UndoRedoHistory
Layer: 1
Undoes
UndoOperation
Index: 0
Type: 12
WasModified: 0
WasOrder2: 0
Layer: 0
EndUndoOperation
EndUndoes
Redoes
EndRedoes
EndUndoRedoHistory
Fore
SplineSet
72 0 m 1
 72 800 l 1
 192 800 l 1
 192 469.9140625 l 1
 656.443066406 800 l 1
 856.981347656 800 l 1
 334.762573383 448.505859375 l 1
 878.333886719 0 l 1
 692.098535156 -0 l 1
 232.531825816 403.880859375 l 1
 192 375.07421875 l 1
 192 0 l 1
 72 0 l 1
EndSplineSet
Validated: 1
EndChar

StartChar: asciicircum
Encoding: 94 94 69
Width: 461
Flags: W
HStem: 535 290
LayerCount: 2
UndoRedoHistory
Layer: 1
Undoes
UndoOperation
Index: 0
Type: 12
WasModified: 0
WasOrder2: 0
Layer: 0
EndUndoOperation
EndUndoes
Redoes
EndRedoes
EndUndoRedoHistory
Fore
SplineSet
182.399987253 825 m 1
 279.405010198 825 l 1
 432.780010198 535 l 1
 313.7009609 535 l 1
 230.902498725 687.103663639 l 1
 148.104036551 535 l 1
 29.0249872527 535 l 1
 182.399987253 825 l 1
EndSplineSet
Validated: 1
EndChar

StartChar: bar
Encoding: 124 124 70
Width: 320
Flags: W
HStem: 785 20G<102 218>
VStem: 102 116<-205 805>
LayerCount: 2
UndoRedoHistory
Layer: 1
Undoes
UndoOperation
Index: 0
Type: 12
WasModified: 0
WasOrder2: 0
Layer: 0
EndUndoOperation
EndUndoes
Redoes
EndRedoes
EndUndoRedoHistory
Fore
SplineSet
218 805 m 5
 218 -205 l 5
 102 -205 l 5
 102 805 l 5
 218 805 l 5
EndSplineSet
Validated: 1
EndChar

StartChar: Y
Encoding: 89 89 71
Width: 832
Flags: W
HStem: 0 21G<375.002 507.015> 780 20G<40 202.847 679.137 842.106>
VStem: 375.002 132.013<0 385.89>
LayerCount: 2
UndoRedoHistory
Layer: 1
Undoes
UndoOperation
Index: 0
Type: 12
WasModified: 0
WasOrder2: 0
Layer: 0
EndUndoOperation
EndUndoes
Redoes
EndRedoes
EndUndoRedoHistory
Fore
SplineSet
375.002479542 385.889648438 m 1
 40 800 l 1
 187.164355469 800 l 1
 440.544870564 476.872070312 l 1
 694.87874125 800 l 1
 842.106377969 800 l 1
 507.015477982 387.040039062 l 1
 507.015477982 0 l 1
 375.002479542 0 l 1
 375.002479542 385.889648438 l 1
EndSplineSet
Validated: 1
EndChar

StartChar: Z
Encoding: 90 90 72
Width: 756
Flags: W
HStem: 0 114<221.199 701.12> 686 114<68 528.181>
LayerCount: 2
UndoRedoHistory
Layer: 1
Undoes
UndoOperation
Index: 0
Type: 12
WasModified: 1
WasOrder2: 0
Layer: 0
EndUndoOperation
EndUndoes
Redoes
EndRedoes
EndUndoRedoHistory
Fore
SplineSet
528.181313559 686 m 1
 68 686 l 1
 68 800 l 1
 701.12 800 l 1
 701.12 686 l 1
 221.199131356 114 l 1
 701.12 114 l 1
 701.12 0 l 1
 68 0 l 1
 68 114 l 1
 528.181313559 686 l 1
EndSplineSet
Validated: 1
EndChar

StartChar: o
Encoding: 111 111 73
Width: 784
Flags: W
HStem: -12.1963 108.524<223.515 557.114> 499.443 108.886<221.106 558.459>
VStem: 58 113.939<146.496 447.34> 603.133 114.939<141.636 455.618>
LayerCount: 2
UndoRedoHistory
Layer: 1
Undoes
UndoOperation
Index: 0
Type: 12
WasModified: 0
WasOrder2: 0
Layer: 0
EndUndoOperation
EndUndoes
Redoes
EndRedoes
EndUndoRedoHistory
Fore
SplineSet
188.348311964 155.71875 m 0
 205.148878067 122.1484375 221.823486666 96.328125 388.537099235 96.328125 c 0
 518.359923857 96.328125 558.829676188 108.58203125 579.210190716 136.611328125 c 0
 599.439453125 164.57421875 603.132617188 215.912109375 603.132617188 297.170898438 c 0
 603.132617188 440.70703125 596.108177075 478.15625 516.157635628 490.779296875 c 0
 483.40573253 495.950195312 446.196114652 499.443359375 388.993695186 499.443359375 c 0
 220.448778598 499.443359375 207.408240791 475.590820312 189.025333547 441.966796875 c 0
 175.952539062 417.73828125 171.939453125 380.71484375 171.939453125 297.170898438 c 0
 171.939453125 202.411132812 173.80625 185.631835938 188.348311964 155.71875 c 0
211.537285209 595.374023438 m 0
 248.929935085 604.5 307.88493513 608.329101562 388.993695186 608.329101562 c 0
 576.681200211 608.329101562 676.2859375 592.9140625 706.2546875 453.59375 c 0
 715.154101563 412.221679688 718.072070313 361.444335938 718.072070313 297.526367188 c 0
 718.072070313 191.583007812 716.284960938 31.1943359375 563.894545497 -0.1904296875 c 0
 514.078352774 -11.1904296875 451.86420232 -12.1962890625 388.671913125 -12.1962890625 c 0
 225.525456424 -12.1962890625 137.1640625 -7.486328125 82.779296875 98.8876953125 c 0
 59.359375 144.6953125 58 213.751953125 58 296.578125 c 0
 58 298.310546875 58 300.053710938 58 301.8046875 c 0
 58 405.034179688 58 560.407226562 211.537285209 595.374023438 c 0
EndSplineSet
Validated: 1
EndChar

StartChar: p
Encoding: 112 112 74
Width: 786
Flags: W
HStem: -200 21G<70 190> -12.1963 108.524<230.339 549.311> 499.443 108.886<239.032 557.292> 580 20G<70 190>
VStem: 70 120<-200 18.9531 133.379 457.674 575.519 600> 606.747 113.939<151.714 451.027>
LayerCount: 2
UndoRedoHistory
Layer: 1
Undoes
UndoOperation
Index: 0
Type: 12
WasModified: 0
WasOrder2: 0
Layer: 0
EndUndoOperation
EndUndoes
Redoes
EndRedoes
EndUndoRedoHistory
Fore
SplineSet
190 600 m 1xdc
 190 575.518554688 l 1
 231.970131411 596.963867188 294.107203083 608.329101562 397.16633714 608.329101562 c 0xec
 545.302308159 608.329101562 641.050292969 601.612304688 690.503417969 499.974609375 c 0
 720.422363281 438.483398438 720.686035157 383.5859375 720.686035157 297.068359375 c 0
 720.686035157 197.020507812 708.522949219 137.580078125 688.708496094 100.53515625 c 0
 638.300292969 6.2919921875 548.342892594 -12.1962890625 397.489047659 -12.1962890625 c 0
 296.216170606 -12.1962890625 235.132102373 -5.7529296875 190 18.953125 c 5
 190 -200 l 5
 70 -200 l 5
 70 600 l 1
 190 600 l 1xdc
516.614625926 490.778320312 m 0
 482.752719676 496.109375 455.406210519 499.443359375 397.16633714 499.443359375 c 0
 224.476733937 499.443359375 202.406097677 465.161132812 194.026479876 411.953125 c 0
 190.567457335 389.994140625 190.165796231 362.229492188 190 329.16015625 c 0
 190 225.166015625 190 200.8671875 193.97318823 172.553710938 c 0
 196.126565458 157.20703125 199.558942176 147.930664062 201.837653458 144.424804688 c 0
 229.57694178 101.75390625 288.392167553 96.328125 397.624250537 96.328125 c 0
 554.346097763 96.328125 574.414349791 129.440429688 586.263845837 153.048828125 c 0
 601.766699219 184.049804688 606.746582031 203.275390625 606.746582031 297.170898438 c 0
 606.746582031 438.50390625 590.964366339 479.078125 516.614625926 490.778320312 c 0
EndSplineSet
Validated: 1
EndChar

StartChar: q
Encoding: 113 113 75
Width: 784
Flags: W
HStem: -200 21G<588.686 708.686> -12.1963 108.524<223.137 548.567> 499.443 108.886<220.777 540.685> 580 20G<588.686 708.686>
VStem: 58 113.939<145.632 447.34> 588.686 120<-200 18.9531 144.608 457.244 575.521 600>
LayerCount: 2
UndoRedoHistory
Layer: 1
Undoes
UndoOperation
Index: 0
Type: 12
WasModified: 0
WasOrder2: 0
Layer: 0
EndUndoOperation
EndUndoes
Redoes
EndRedoes
EndUndoRedoHistory
Fore
SplineSet
211.635801256 595.374023438 m 0xdc
 248.596517998 604.369140625 300.295335345 608.329101562 381.519698016 608.329101562 c 0xec
 487.024326469 608.329101562 547.900162532 596.360351562 588.686035157 575.520507812 c 1
 588.686035157 600 l 1
 708.686035157 600 l 1
 708.686035157 -200 l 1
 588.686035157 -200 l 1
 588.686035157 18.953125 l 1
 543.550972137 -5.7548828125 482.464930139 -12.1962890625 381.196987497 -12.1962890625 c 0
 226.405482095 -12.1962890625 136.9765625 -7.1181640625 82.779296875 98.8876953125 c 0
 59.359375 144.6953125 58 213.751953125 58 296.578125 c 0
 58 298.310546875 58 300.053710938 58 301.8046875 c 0
 58 405.034179688 58 560.407226562 211.635801256 595.374023438 c 0xdc
570.300417488 453.491210938 m 0
 552.225667752 480.56640625 508.330128929 499.443359375 381.519698016 499.443359375 c 0
 221.146386198 499.443359375 206.938241401 474.576171875 189.058894364 441.966796875 c 0
 175.952539062 417.73828125 171.939453125 380.71484375 171.939453125 297.170898438 c 0
 171.939453125 202.411132812 173.80625 185.631835938 188.379919326 155.71875 c 0
 204.021017256 124.555664062 220.206874227 96.328125 381.061784619 96.328125 c 0
 510.804242911 96.328125 559.116080127 112.33203125 578.582333938 143.971679688 c 0
 586.686611571 157.142578125 588.437340811 195.93359375 588.686035157 256.768554688 c 2
 588.686035157 261.305664062 588.686035157 325.797851562 588.686035157 329.259765625 c 2
 588.399839282 386.413085938 587.512632075 427.70703125 570.300417488 453.491210938 c 0
EndSplineSet
Validated: 1
EndChar

StartChar: c
Encoding: 99 99 76
Width: 746
Flags: W
HStem: -12.1963 108.524<223.363 539.049> 499.443 108.886<221.487 533.603>
VStem: 58 113.939<145.631 447.34> 578.839 109.384<137.155 168.013 448.436 461.153>
LayerCount: 2
UndoRedoHistory
Layer: 1
Undoes
UndoOperation
Index: 0
Type: 12
WasModified: 0
WasOrder2: 0
Layer: 0
EndUndoOperation
EndUndoes
Redoes
EndRedoes
EndUndoRedoHistory
Fore
SplineSet
188.4253182 155.717773438 m 0
 204.13105202 124.555664062 220.384787027 96.328125 381.903429646 96.328125 c 0
 542.043646133 96.328125 563.447403139 120.677734375 578.838769532 174.953125 c 2
 585.720605469 198.888671875 l 1
 694.967675782 167.936523438 l 1
 688.222558594 143.9140625 l 2
 647.132714844 -2.400390625 554.908296045 -12.1962890625 382.039191242 -12.1962890625 c 0
 226.608019306 -12.1962890625 136.9765625 -7.1181640625 82.779296875 98.8876953125 c 0
 59.359375 144.6953125 58 213.751953125 58 296.578125 c 0
 58 298.310546875 58 300.053710938 58 301.8046875 c 0
 58 405.034179688 58 560.407226562 211.777303654 595.374023438 c 0
 249.1702092 604.436523438 304.800752781 608.329101562 386.422209772 608.329101562 c 0
 388.074141015 608.329101562 389.742918589 608.329101562 391.430524411 608.329101562 c 0
 473.498904613 608.329101562 590.815332032 606.994140625 649.346582032 535.307617188 c 0
 667.525292969 513.04296875 679.325097656 484.486328125 682.574121094 450.071289062 c 2
 684.704980469 427.504882812 l 1
 576.398925782 406.26171875 l 1
 568.015731293 445.088867188 567.212062284 448.755859375 560.126694322 458.318359375 c 0
 544.386276883 479.56640625 499.443242877 499.443359375 386.422209772 499.443359375 c 0
 221.019992742 499.443359375 207.341764215 475.086914062 189.108090021 441.967773438 c 0
 175.952539062 417.73828125 171.939453125 380.71484375 171.939453125 297.170898438 c 0
 171.939453125 202.411132812 173.80625 185.631835938 188.4253182 155.717773438 c 0
EndSplineSet
Validated: 1
EndChar

StartChar: d
Encoding: 100 100 77
Width: 785
Flags: W
HStem: -12.1963 108.524<223.137 548.567> 0 21G<588.686 708.686> 499.443 108.886<220.777 540.685> 791 20G<588.686 708.686>
VStem: 58 113.939<145.632 447.34> 588.686 120<0 18.9531 144.608 457.244 574.538 811>
LayerCount: 2
UndoRedoHistory
Layer: 1
Undoes
UndoOperation
Index: 0
Type: 12
WasModified: 0
WasOrder2: 0
Layer: 0
EndUndoOperation
EndUndoes
Redoes
EndRedoes
EndUndoRedoHistory
Fore
SplineSet
211.635801256 595.374023438 m 0xbc
 248.596517998 604.369140625 300.295335345 608.329101562 381.519698016 608.329101562 c 0
 487.024326469 608.329101562 547.900162532 596.360351562 588.686035157 575.520507812 c 1
 588.686035157 550.520507812 588.686035157 786 588.686035157 811 c 1
 708.686035157 811 l 1
 708.686035157 0 l 1
 588.686035157 0 l 1x7c
 588.686035157 18.953125 l 1
 543.550972137 -5.7548828125 482.464930139 -12.1962890625 381.196987497 -12.1962890625 c 0
 226.405482095 -12.1962890625 136.9765625 -7.1181640625 82.779296875 98.8876953125 c 0
 59.359375 144.6953125 58 213.751953125 58 296.578125 c 0
 58 298.310546875 58 300.053710938 58 301.8046875 c 0
 58 405.034179688 58 560.407226562 211.635801256 595.374023438 c 0xbc
570.300417488 453.491210938 m 0
 552.225667752 480.56640625 508.330128929 499.443359375 381.519698016 499.443359375 c 0
 221.146386198 499.443359375 206.938241401 474.576171875 189.058894364 441.966796875 c 0
 175.952539062 417.73828125 171.939453125 380.71484375 171.939453125 297.170898438 c 0
 171.939453125 202.411132812 173.80625 185.631835938 188.379919326 155.71875 c 0
 204.021017256 124.555664062 220.206874227 96.328125 381.061784619 96.328125 c 0xbc
 510.804242911 96.328125 559.116080127 112.33203125 578.582333938 143.971679688 c 0
 586.686611571 157.142578125 588.437340811 195.93359375 588.686035157 256.768554688 c 2
 588.686035157 261.305664062 588.686035157 325.797851562 588.686035157 329.259765625 c 2
 588.399839282 386.413085938 587.512632075 427.70703125 570.300417488 453.491210938 c 0
EndSplineSet
Validated: 37
EndChar

StartChar: e
Encoding: 101 101 78
Width: 753
Flags: W
HStem: -12.1963 108.524<221.567 538.362> 245 114<173.322 572.748> 499.443 108.886<219.95 528.082>
VStem: 58 114.06<145.584 245 359 452.755> 572.748 117.714<129.874 196 359 447.691>
LayerCount: 2
UndoRedoHistory
Layer: 1
Undoes
UndoOperation
Index: 0
Type: 12
WasModified: 0
WasOrder2: 0
Layer: 0
HStem: -12.1963 108.524<221.567 538.362> 245 114<173.322 572.748> 499.443 108.886<219.95 528.082>
VStem: 58 114.06<145.584 245 359 452.755> 572.748 117.714<129.874 196 359 447.691>
EndUndoOperation
EndUndoes
Redoes
EndRedoes
EndUndoRedoHistory
Fore
SplineSet
552.560916107 453.358398438 m 4
 535.753417095 481.73828125 517.036222897 499.443359375 381.478602257 499.443359375 c 4
 194.182829288 499.443359375 179.332510961 471.226316993 173.322265625 359 c 5
 572.748046875 359 l 5
 571.723632812 394.331054688 564.110106082 433.857302063 552.560916107 453.358398438 c 4
381.478602257 608.329101562 m 4
 573.664296042 608.329101562 690.461914062 592.703125 690.461914062 302.826171875 c 4
 690.461914062 276.702148438 690 263 689 245 c 5
 172.059570312 245 l 5
 172.059570312 201 175.257201445 179.80271281 190.731445312 149.860351562 c 4
 204.158545719 123.875 220.421692365 96.328125 382.033861501 96.328125 c 4
 534 96.328125 548 119 561 144 c 4
 572.016337563 165.185264544 572.66015625 189 573 196 c 5
 686 196 l 5
 682 151 671.5 106 651.878003367 71.9882139138 c 4
 616.513671875 10.689453125 553.089403924 -12.1962890625 382.169701709 -12.1962890625 c 4
 226.648528175 -12.1962890625 136.9765625 -7.1181640625 82.779296875 98.8876953125 c 4
 59.359375 144.6953125 58 213.751953125 58 296.578125 c 6
 58 301.8046875 l 6
 58 405.034179688 58 560.407226562 211.809224875 595.374023438 c 4
 248.870796351 604.3515625 299.887222473 608.329101562 381.478602257 608.329101562 c 4
EndSplineSet
Validated: 1
EndChar

StartChar: z
Encoding: 122 122 79
Width: 658
Flags: W
HStem: 0 114<225.127 600.2> 486 114<69 422.887>
LayerCount: 2
UndoRedoHistory
Layer: 1
Undoes
UndoOperation
Index: 0
Type: 1
WasModified: 1
WasOrder2: 0
Layer: 2
Width: 783
VWidth: 1000
LBearingChange: 0
UnicodeEnc: 0
InstructionsLength: 0
EndUndoOperation
EndUndoes
Redoes
EndRedoes
EndUndoRedoHistory
Fore
SplineSet
225.126918604 114 m 1
 600.2 114 l 1
 600.2 0 l 1
 69 0 l 1
 69 114 l 1
 422.886711483 486 l 1
 69 486 l 1
 69 600 l 1
 600.2 600 l 1
 600.2 486 l 1
 225.126918604 114 l 1
EndSplineSet
Validated: 1
EndChar

StartChar: g
Encoding: 103 103 80
Width: 777
Flags: W
HStem: -220 99.252<184.451 558.177> 62.999 97<221.928 566.059> 221.069 99.2539<219.546 541.012> 512.444 95.8838<216.139 544.113>
VStem: 4.26855 123.492<-75.5126 36.6408> 50.916 119.724<365.644 474.154> 587.151 117.215<360.868 471.241> 626.229 124.784<-71.9872 22.0461>
LayerCount: 2
UndoRedoHistory
Layer: 1
Undoes
UndoOperation
Index: 0
Type: 12
WasModified: 0
WasOrder2: 0
Layer: 0
EndUndoOperation
EndUndoes
Redoes
EndRedoes
EndUndoRedoHistory
Fore
SplineSet
681.073535156 517.244140625 m 1xf4
 702.083300782 484.858398438 704.355761719 449.345703125 704.365527344 420.08203125 c 0xf6
 704.347949219 357.98046875 695.200488282 269.033203125 547.608691406 234.00390625 c 0
 514.183007813 225.442382812 463.731152344 221.069335938 383.015917969 221.069335938 c 0
 299.562890625 221.069335938 247.400683594 225.442382812 212.840332031 234.00390625 c 0
 202.256542969 236.623046875 192.415429688 239.546875 183.266894531 242.740234375 c 1
 174.397851563 230.516601562 167.538085938 216.08203125 167.538085938 200 c 0
 167.538085938 169.418945312 219.177246094 166.047851562 356.774414063 159.999023438 c 0
 422.299511719 157.118164062 516.845214844 156.026367188 557.635253906 148.247070312 c 0
 739.996386719 116.38671875 751.012988282 35.4521484375 751.012988282 -20.908203125 c 0
 751.012988282 -82.93359375 739.996386719 -172.005859375 557.635253906 -207.0703125 c 0
 516.845214844 -215.629882812 455.274316406 -220 356.774414063 -220 c 0
 269.215136719 -220 214.491796875 -215.629882812 178.231640625 -207.0703125 c 0
 14.0615234375 -172.005859375 4.2685546875 -82.93359375 4.2685546875 -20.908203125 c 0xf9
 4.2685546875 20.46875 9.2451171875 73.876953125 68.490234375 115.260742188 c 1
 48.7109375 132.559570312 37.9384765625 155.727539062 41.15234375 186.17578125 c 0
 45.6640625 228.923828125 76.5087890625 265.971679688 99.669921875 288.217773438 c 1
 54.8564453125 328.911132812 50.927734375 380.052734375 50.916015625 420.08203125 c 0
 50.93359375 478.830078125 60.400390625 562.9609375 212.840332031 596.096679688 c 0
 247.400683594 604.1953125 299.562890625 608.328125 383.015917969 608.328125 c 0
 463.731152344 608.328125 514.183007813 604.1953125 547.608691406 596.096679688 c 0
 569.450390625 590.805664062 588.111621094 584.213867188 605.638964844 576.629882812 c 1
 671.419238282 655.870117188 790.665332032 640 790.665332032 640 c 1
 782.720996094 537.831054688 l 1
 782.720996094 537.831054688 717.561816406 537.831054688 681.073535156 517.244140625 c 1xf4
383.015917969 320.323242188 m 0
 429.440625 320.323242188 474.738574219 322.202148438 512.344335938 332.096679688 c 0
 534.906738281 338.034179688 554.481738281 346.638671875 567.96328125 361.291992188 c 0
 580.758398438 375.19921875 587.131347656 394.436523438 587.150683594 420.081054688 c 0
 587.133105469 439.118164062 583.130566406 454.32421875 574.8328125 466.185546875 c 0
 561.776660156 484.850585938 539.309179688 494.662109375 512.862890625 501.245117188 c 0
 475.105078125 510.642578125 429.628710938 512.444335938 383.015917969 512.444335938 c 0
 323.665136719 512.444335938 266.058105469 510.053710938 223.397753906 493.608398438 c 0
 191.582226563 481.34375 170.677441406 459.356445312 170.639648438 420.079101562 c 0
 170.657226563 399.33203125 174.969140625 382.779296875 183.812695313 369.8515625 c 0
 197.480566406 349.872070312 220.948242188 339.224609375 248.634667969 332.178710938 c 0
 287.709960938 322.234375 334.774511719 320.323242188 383.015917969 320.323242188 c 0
220.261816406 68.55859375 m 1
 186.161132813 61.6259765625 159.354492188 50.3173828125 143.11328125 29.998046875 c 0
 132.427734375 16.6279296875 127.760742188 -0.3115234375 127.760742188 -20.908203125 c 0
 127.760742188 -63.501953125 152.622070312 -87.408203125 188.642285156 -100.706054688 c 0
 233.571972656 -118.166992188 294.252539063 -120.748046875 356.774414063 -120.748046875 c 0
 430.490039063 -120.748046875 501.975878906 -117.904296875 554.951074219 -100.078125 c 0
 595.590136719 -86.6865234375 626.228808594 -63.802734375 626.228808594 -20.9111328125 c 0xf9
 626.228808594 17.89453125 591.898730469 35.626953125 551.581347656 46.5830078125 c 0
 496.349121094 61.771484375 424.210253906 62.9990234375 356.774414063 62.9990234375 c 0
 300.368847656 62.9990234375 255.671191406 64.92578125 220.261816406 68.55859375 c 1
EndSplineSet
Validated: 33
EndChar

StartChar: a
Encoding: 97 97 81
Width: 788
Flags: W
HStem: -12.1963 108.524<212.871 555.12> 0 21G<601.865 716.865> 273.456 114<199.975 598.872> 499.443 108.886<225.706 562.294>
VStem: 56 113.939<129.641 246.926> 601.865 115<0 16.1953 142.27 286.456 389.764 459.878>
LayerCount: 2
UndoRedoHistory
Layer: 1
Undoes
UndoOperation
Index: 0
Type: 12
WasModified: 0
WasOrder2: 0
Layer: 0
HStem: -12.1963 108.524<212.871 555.12> 0 21G<601.865 716.865> 273.456 114<199.975 598.872> 499.443 108.886<225.706 562.294>
VStem: 56 113.939<129.641 246.926> 601.865 115<0 16.1953 142.27 284.833 285 286.456>
EndUndoOperation
EndUndoes
Redoes
EndRedoes
EndUndoRedoHistory
Fore
SplineSet
601.865176346 0 m 1x7c
 601.865176346 16.1953125 l 1
 562.498670569 -5.515625 500.879581648 -12.1962890625 387.106215492 -12.1962890625 c 0xbc
 271.133850234 -12.1962890625 137.852574862 -11.1173059486 84.9638671875 81.4912109375 c 0
 58.0625 128.595703125 56 146.250976562 56 194.166992188 c 0
 56 220.751953125 59.7353515625 252.651367188 73.9345703125 283.446289062 c 0
 91.833984375 322.263671875 127.266601562 358.221679688 186.665039062 374.30078125 c 0
 232.233398438 386.39453125 300.850585938 387.456054688 344.379882812 387.456054688 c 2
 496.170898438 387.456054688 l 2
 533.00390625 387.456054688 573 388.456054688 600.154296875 391.456054688 c 1
 594.16796875 464.288085938 572.586986322 483.86169183 514.585492696 491.661132812 c 0
 479.341424247 496.400390625 447.639155409 499.443359375 383.732818867 499.443359375 c 0
 258.362380002 499.443359375 196.900087924 483.704715146 189.118164062 433.629882812 c 2
 187 420 l 1
 71 432 l 1
 75.3115234375 459.272460938 l 2
 98.3411706556 604.94606408 251.028759769 608.329101562 383.732818867 608.329101562 c 0
 509.351851307 608.329101562 645.610156358 607.723576268 691.237246658 497.034179688 c 0
 716.751895096 435.13671875 716.865234375 347.967773438 716.865234375 285 c 6
 716.865176346 0 l 5
 601.865176346 0 l 1x7c
486.051757812 273.456054688 m 0
 372.489257812 273.456054688 372.489257812 273.456054688 372.489257812 273.456054688 c 2
 234.33203125 273.456054688 169.939453125 268.489257812 169.939453125 192.2421875 c 0
 169.939453125 161.30859375 172.996533876 153.325813978 181.418374103 140.666015625 c 0
 191.296970437 125.81640625 211.285636694 113.586914062 265.572338768 105.409179688 c 0
 310.050091427 98.7099609375 338.147502857 96.328125 386.965897431 96.328125 c 0
 541.869867172 96.328125 565.453908438 116.368933568 580.873167017 143.538085938 c 0
 596.406478785 170.908203125 602 197 601.815429688 286.456054688 c 1
 572 276.456054688 527.280273438 273.456054688 486.051757812 273.456054688 c 0
EndSplineSet
Validated: 33
EndChar

StartChar: j
Encoding: 106 106 82
Width: 400
VWidth: 800
Flags: W
HStem: -212 116<44.0808 183.699> 580 20G<203.087 323.087> 682 118<203 323>
VStem: 203.087 120<-76.1431 600 682 800>
LayerCount: 2
UndoRedoHistory
Layer: 1
Undoes
UndoOperation
Index: 0
Type: 12
WasModified: 0
WasOrder2: 0
Layer: 0
HStem: -212 116<44.0808 183.699> 580 20G<203.087 323.087> 653 147<203.947 321.227>
VStem: 189.087 147<667.86 785.14> 203.087 120<-76.1431 600>
EndUndoOperation
EndUndoes
Redoes
EndRedoes
EndUndoRedoHistory
Fore
SplineSet
203 682 m 1
 203 800 l 1
 323 800 l 1
 323 682 l 1
 203 682 l 1
45.498046875 -89.333984375 m 1
 73.5322265625 -92.44921875 102.5078125 -96 103.086914062 -96 c 0
 181.86328125 -96 189.16015625 -72.025390625 197.166015625 -45.7197265625 c 0
 198.428710938 -41.5703125 200.970703125 -17.1796875 201.901367188 10.7109375 c 0
 203.080078125 43.2861328125 203.086914062 83.4130859375 203.086914062 115.139648438 c 2
 203.086914062 600 l 1
 323.086914062 600 l 1
 323.086914062 93.3544921875 l 2
 323.086914062 -26.9697265625 319.24609375 -76.1240234375 310.864257812 -99.7421875 c 0
 280.572265625 -194.46875 212.546875 -212 108.086914062 -212 c 0
 93.990234375 -212 69.484375 -209.12109375 35 -204.810546875 c 1
 35 -179.810546875 45.498046875 -64.333984375 45.498046875 -89.333984375 c 1
EndSplineSet
Validated: 33
EndChar

StartChar: i
Encoding: 105 105 83
Width: 274
VWidth: 800
Flags: W
HStem: 0 21G<74 194> 580 20G<74 194> 682 118<74 194>
VStem: 74 120<0 600 682 800>
LayerCount: 2
UndoRedoHistory
Layer: 1
Undoes
UndoOperation
Index: 0
Type: 12
WasModified: 1
WasOrder2: 0
Layer: 0
HStem: 0 21G<74 194> 580 20G<74 194>
VStem: 74 120<0 600>
EndUndoOperation
EndUndoes
Redoes
EndRedoes
EndUndoRedoHistory
Fore
SplineSet
74 682 m 5
 74 800 l 5
 194 800 l 5
 194 682 l 5
 74 682 l 5
74 0 m 1
 74 600 l 1
 194 600 l 1
 194 0 l 1
 74 0 l 1
EndSplineSet
Validated: 1
EndChar

StartChar: l
Encoding: 108 108 84
Width: 269
Flags: W
HStem: 0 21G<72 192> 791 20G<72 192>
VStem: 72 120<0 811>
LayerCount: 2
UndoRedoHistory
Layer: 1
Undoes
UndoOperation
Index: 0
Type: 12
WasModified: 0
WasOrder2: 0
Layer: 0
EndUndoOperation
EndUndoes
Redoes
EndRedoes
EndUndoRedoHistory
Fore
SplineSet
72 0 m 5
 72 811 l 5
 192 811 l 5
 192 0 l 5
 72 0 l 5
EndSplineSet
Validated: 1
EndChar

StartChar: b
Encoding: 98 98 85
Width: 788
Flags: W
HStem: -12.1963 108.524<232.339 563.371> 0 21G<72 192> 499.443 108.886<241.032 559.292> 791 20G<72 192>
VStem: 72 120<0 20.093 133.379 457.674 574.536 811> 608.747 113.939<140.277 451.027>
LayerCount: 2
UndoRedoHistory
Layer: 1
Undoes
UndoOperation
Index: 0
Type: 12
WasModified: 0
WasOrder2: 0
Layer: 0
EndUndoOperation
EndUndoes
Redoes
EndRedoes
EndUndoRedoHistory
Fore
SplineSet
192 811 m 1x7c
 192 786 192 550.518554688 192 575.518554688 c 1
 233.970131411 596.963867188 296.107203083 608.329101562 399.16633714 608.329101562 c 0
 547.302308159 608.329101562 643.050292969 601.612304688 692.503417969 499.974609375 c 0
 722.422363281 438.483398438 722.686035157 383.5859375 722.686035157 297.068359375 c 0
 722.686035157 214.1328125 721.329589844 144.94921875 697.906738281 99.064453125 c 0
 643.714355469 -7.1015625 554.306212002 -12.1962890625 399.489047659 -12.1962890625 c 0xbc
 298.216170606 -12.1962890625 237.132102373 -5.7529296875 192 18.953125 c 1
 192 43.953125 192 25 192 0 c 1
 72 0 l 1
 72 23.5478515625 72 787.452148438 72 811 c 1
 192 811 l 1x7c
518.614625926 490.778320312 m 0
 484.752719676 496.109375 457.406210519 499.443359375 399.16633714 499.443359375 c 0
 226.476733937 499.443359375 204.406097677 465.161132812 196.026479876 411.953125 c 0
 192.567457335 389.994140625 192.165796231 362.229492188 192 329.16015625 c 0
 192 225.166015625 192 200.8671875 195.97318823 172.553710938 c 0
 198.126565458 157.20703125 201.558942176 147.930664062 203.837653458 144.424804688 c 0
 231.57694178 101.75390625 290.392167553 96.328125 399.624250537 96.328125 c 0
 554.792744986 96.328125 577.101219887 118.071289062 593.316683328 150.379882812 c 0
 607.361425781 179.357421875 608.746582031 202.364257812 608.746582031 297.170898438 c 0
 608.746582031 438.50390625 592.964366339 479.078125 518.614625926 490.778320312 c 0
EndSplineSet
Validated: 37
EndChar

StartChar: f
Encoding: 102 102 86
Width: 552
VWidth: 800
Flags: W
HStem: 0 21G<193.1 318.1> 486 114<47 193.113 320.175 472.222> 701.672 110.524<345.006 491.132>
VStem: 193.1 125<0 486 600 674.838>
LayerCount: 2
UndoRedoHistory
Layer: 1
Undoes
UndoOperation
Index: 0
Type: 12
WasModified: 0
WasOrder2: 0
Layer: 0
EndUndoOperation
EndUndoes
Redoes
EndRedoes
EndUndoRedoHistory
Fore
SplineSet
193.1 0 m 1
 193.112695312 486.009765625 l 1
 72.001953125 486 l 2
 47 486 l 1
 47 600 l 1
 195.2015625 600 l 1
 197.870507812 655.598632812 202.598046875 684.284179688 209.206445312 700.103515625 c 0
 251.972070312 802.473632812 332.775898362 812.196289062 422.062792968 812.196289062 c 0
 456.750292968 812.196289062 476.995410156 806.036132812 509.002246094 796.297851562 c 1
 488.959277344 691.490234375 l 1
 457.763392352 698.306631773 435.95239291 701.671875 423.196582031 701.671875 c 0
 359.220146355 701.671875 337.9984375 678.228515625 331.12890625 662.768554688 c 0
 324.221582031 647.223632812 321.535644531 625.434570312 320.175097656 600 c 1
 472.221972656 600 l 1
 472.221972656 486 l 1
 318.1 486 l 1
 318.1 0 l 1
 193.1 0 l 1
EndSplineSet
Validated: 1
EndChar

StartChar: r
Encoding: 114 114 87
Width: 636
Flags: W
HStem: 0 21G<69 189> 503.672 108.524<217.557 444.209> 580 20G<69 189>
VStem: 69 120<0 473.498 593.271 600>
LayerCount: 2
UndoRedoHistory
Layer: 1
Undoes
UndoOperation
Index: 0
Type: 12
WasModified: 0
WasOrder2: 0
Layer: 0
HStem: 0 21G<69 189> 503.672 108.524<217.557 443.499> 580 20G<69 189>
VStem: 69 120<0 473.498 593.271 600> 468.373 114.164<429.537 489.481>
EndUndoOperation
EndUndoes
Redoes
EndRedoes
EndUndoRedoHistory
Fore
SplineSet
465 458 m 17xd0
 456 484 446.250563467 491.979616156 437.366307265 495.051686374 c 0
 425.408588456 499.186523438 388.294133736 503.671875 335.433833992 503.671875 c 0xd0
 249.866822089 503.671875 224.428151301 498.134765625 209.314538564 471.018554688 c 0
 193.248895514 442.192382812 189 386.668945312 189 296.560546875 c 2
 189 0 l 1
 69 0 l 1
 69 600 l 1
 189 600 l 1xb0
 189 593.271484375 l 1
 219.519672355 607.736328125 260.58952374 612.196289062 335.364404157 612.196289062 c 0
 431.397437716 612.196289062 487.139991787 604.738332123 522.062109375 579.790039062 c 0
 551.86484375 558.499023438 564.196875 527.274414062 570.526367188 505.572265625 c 0
 465 458 l 17xd0
EndSplineSet
Validated: 1
EndChar

StartChar: t
Encoding: 116 116 88
Width: 548
Flags: W
HStem: -6 117<328.378 482.815> 486 114<48 189.603 314.599 484.407>
VStem: 189.611 124.988<123.668 486 600 747>
LayerCount: 2
UndoRedoHistory
Layer: 1
Undoes
UndoOperation
Index: 0
Type: 12
WasModified: 0
WasOrder2: 0
Layer: 0
EndUndoOperation
EndUndoes
Redoes
EndRedoes
EndUndoRedoHistory
Fore
SplineSet
465.042773438 3.638671875 m 2
 435.991992188 -3.0654296875 398.4890625 -6 373.40703125 -6 c 0
 332.355157634 -6 225.513867187 3.1484375 199.966992187 89.923828125 c 0
 190.23359375 122.985351562 189.611523437 184.885742188 189.610546875 230.911132812 c 0
 189.604394531 486 l 1
 48 486 l 1
 48 600 l 1
 189.602636719 600 l 1
 189.6 721.999023438 l 2
 189.6 747 l 1
 314.598828125 747 l 1
 314.598828125 600 l 1
 484.40703125 600 l 1
 484.40703125 486 l 1
 314.598828125 486 l 1
 314.598828125 252.176757812 l 2
 314.598828125 197.96484375 316.398828125 154 327.229589844 132.359375 c 0
 332.907080652 121.015348354 352.29738886 111 397.40703125 111 c 0
 420.9109375 111 448.716601562 116.560546875 490.325 124.8828125 c 1
 483.23125 7.8359375 l 1
 465.042773438 3.638671875 l 2
EndSplineSet
Validated: 1
EndChar

StartChar: v
Encoding: 118 118 89
Width: 724
Flags: W
HStem: 0 21G<290.107 450.754> 580 20G<42 179.725 562.064 699.85>
LayerCount: 2
UndoRedoHistory
Layer: 1
Undoes
UndoOperation
Index: 0
Type: 12
WasModified: 1
WasOrder2: 0
Layer: 0
EndUndoOperation
EndUndoes
Redoes
EndRedoes
EndUndoRedoHistory
Fore
SplineSet
298.662109375 0 m 6
 42 600 l 1
 171.2109375 600 l 1
 370.54832852 131.7578125 l 1
 570.608789063 600 l 1
 699.849609375 600 l 1
 442.1640625 0 l 6
 298.662109375 0 l 6
EndSplineSet
Validated: 1
EndChar

StartChar: w
Encoding: 119 119 90
Width: 960
Flags: W
HStem: 0 21G<205.073 354.205 627.901 776.977> 580 20G<45 177.403 395.052 568.638 790.488 922.089>
LayerCount: 2
UndoRedoHistory
Layer: 1
Undoes
UndoOperation
Index: 0
Type: 12
WasModified: 0
WasOrder2: 0
Layer: 0
EndUndoOperation
EndUndoes
Redoes
EndRedoes
EndUndoRedoHistory
Fore
SplineSet
562.771484375 600 m 2
 695.183354465 148.551757812 l 1
 794.905957031 600 l 1
 922.089257813 600 l 1
 771.973632812 0 l 2
 633.560546875 0 l 2
 482.833984375 532.61328125 l 1
 349.186523438 0 l 2
 210.592773438 0 l 2
 45 600 l 1
 172.411816406 600 l 1
 284.510215641 150.807617188 l 1
 400.203125 600 l 0
 562.771484375 600 l 2
EndSplineSet
Validated: 1
EndChar

StartChar: x
Encoding: 120 120 91
Width: 712
Flags: W
HStem: 0 21G<43 205.17 510.487 672.657> 580 20G<61.0107 219.934 495.724 654.646>
LayerCount: 2
UndoRedoHistory
Layer: 1
Undoes
UndoOperation
Index: 0
Type: 1
WasModified: 0
WasOrder2: 0
Layer: 2
Width: 668
VWidth: 1000
LBearingChange: 0
UnicodeEnc: 0
InstructionsLength: 0
SplineSet
285.677855202 311.079101562 m 1
 61.0107421875 600 l 1
 205.978857421 600 l 1
 357.828544921 382.3671875 l 1
 509.678232421 600 l 1
 654.646347657 600 l 1
 429.979234641 311.079101562 l 1
 672.657089844 0 l 1
 524.260605469 0 l 1
 357.828544921 241.661132812 l 1
 191.396484375 0 l 1
 43 0 l 1
 285.677855202 311.079101562 l 1
EndSplineSet
EndUndoOperation
EndUndoes
Redoes
EndRedoes
EndUndoRedoHistory
Fore
SplineSet
285.677855202 311.079101562 m 1
 61.0107421875 600 l 1
 205.978857421 600 l 1
 357.828544921 382.3671875 l 1
 509.678232421 600 l 1
 654.646347657 600 l 1
 429.979234641 311.079101562 l 1
 672.657089844 0 l 1
 524.260605469 0 l 1
 357.828544921 241.661132812 l 1
 191.396484375 0 l 1
 43 0 l 1
 285.677855202 311.079101562 l 1
EndSplineSet
Validated: 1
EndChar

StartChar: k
Encoding: 107 107 92
Width: 763
Flags: W
HStem: -0 21G<72 192 553.371 763.252> 580 20G<495.473 725.845> 791 20G<72 192>
VStem: 72 120<0 256.432 359.229 811>
LayerCount: 2
UndoRedoHistory
Layer: 1
Undoes
UndoOperation
Index: 0
Type: 12
WasModified: 0
WasOrder2: 0
Layer: 0
EndUndoOperation
EndUndoes
Redoes
EndRedoes
EndUndoRedoHistory
Fore
SplineSet
72 0 m 1
 72 811 l 1
 192 811 l 1
 192 359.228515625 l 1
 522.965411648 600 l 1
 725.845214843 600 l 1
 337.474019295 336.954101562 l 1
 763.252441406 0 l 1
 576.921386719 -0 l 1
 236.646322573 288.974609375 l 1
 192 256.431640625 l 1
 192 0 l 1
 72 0 l 1
EndSplineSet
Validated: 1
EndChar

StartChar: s
Encoding: 115 115 93
Width: 769
Flags: W
HStem: -10.7881 108.524<216.546 575.123> 500.033 108.887<216.866 545.807>
VStem: 78.0088 116.435<399.226 477.038> 594.226 113.037<117.316 230.592>
LayerCount: 2
UndoRedoHistory
Layer: 1
Undoes
UndoOperation
Index: 0
Type: 12
WasModified: 0
WasOrder2: 0
Layer: 0
EndUndoOperation
EndUndoes
Redoes
EndRedoes
EndUndoRedoHistory
Fore
SplineSet
520.10871889 489.584960938 m 0
 498.116753322 494.780273438 446.906961035 500.033203125 389.517933969 500.033203125 c 0
 247.436926034 500.033203125 194.44333551 494.037109375 194.44333551 428.533203125 c 0
 194.44333551 404.01953125 210.485693363 397.592773438 255.191027987 390 c 0
 291.21783925 383.880859375 330.928538807 378.12109375 370.50914921 372.384765625 c 0
 532.200111476 348.947265625 657.721777344 329.80078125 694.671972656 242.655273438 c 0
 704.116308594 220.380859375 707.262792968 195.821289062 707.262792968 168.4375 c 0
 707.262792968 144.154296875 705.441503906 110.37109375 687.161230468 78.71875 c 0
 639.833105468 -3.2275390625 573.016568836 -10.787109375 389.275495092 -10.787109375 c 0
 386.303155045 -10.787109375 383.340670237 -10.7880859375 380.388040667 -10.7880859375 c 0
 222.34647336 -10.7880859375 63.208984375 -10.7705078125 53.1748046875 197.956054688 c 2
 52 222.393554688 l 1
 169.686523438 230.692382812 l 1
 171.860351562 206.267578125 l 2
 174.62839221 175.447265625 187.732903353 120.90625 243.534251435 107.7265625 c 0
 271.724176738 101.069335938 330.763956317 97.736328125 389.174971656 97.736328125 c 0
 535.893855009 97.736328125 573.511301828 106.572265625 587.081965771 132.681640625 c 0
 591.51953125 142.051757812 594.225683594 156.694335938 594.225683594 178.118164062 c 0
 594.225683594 218.374023438 576.572339025 233.619140625 543.995846896 244.877929688 c 0
 418.875705079 288.120117188 198.297719437 285.877929688 118.25 342.96484375 c 0
 89.345703125 363.639648438 78.0087890625 397.473632812 78.0087890625 434.340820312 c 0
 78.0087890625 435.235351562 78.8125 490.236328125 99.0888671875 521.736328125 c 0
 150.77734375 602.034179688 241.061572 608.919921875 389.517933969 608.919921875 c 0
 393.553654292 608.919921875 515.107185157 608.783203125 564.399147956 592.393554688 c 0
 651.972753906 562.850585938 680.295019531 503.603515625 683.363378906 427.150390625 c 2
 684.316503906 403.415039062 l 1
 579.03713427 393.65234375 l 1
 575.288201399 416.688476562 l 2
 570.963722576 443.260742188 564.990462289 478.985351562 520.10871889 489.584960938 c 0
EndSplineSet
Validated: 1
EndChar

StartChar: u
Encoding: 117 117 94
Width: 759
Flags: W
HStem: -8.33398 108.891<224.379 513.237> 0 21G<570.701 684.701> 580 20G<64 181.001 570.701 684.701>
VStem: 64.0098 116.991<143.88 600> 570.701 114<0 29.4111 160.827 600>
LayerCount: 2
UndoRedoHistory
Layer: 1
Undoes
UndoOperation
Index: 0
Type: 12
WasModified: 0
WasOrder2: 0
Layer: 0
EndUndoOperation
EndUndoes
Redoes
EndRedoes
EndUndoRedoHistory
Fore
SplineSet
570.700976562 29.4111328125 m 1x78
 517.807214323 -7.185546875 446.554849155 -8.333984375 372.036369686 -8.333984375 c 0
 367.046279628 -8.333984375 362.041284881 -8.3291015625 357.027347319 -8.3291015625 c 0
 249.648995645 -8.3291015625 139.626953125 -5.9423828125 89.078125 101.026367188 c 0
 64.234375 153.59765625 64.0126953125 207.680664062 64.009765625 297.463867188 c 0
 64 600 l 1
 181.000976562 600 l 1
 181.000976562 307.302734375 l 2
 181.000976562 181.711914062 183.55564035 125.211914062 258.871023886 108.161132812 c 0
 290.306007771 101.044921875 308.033645511 100.556640625 357.027347319 100.556640625 c 0xb8
 432.225480632 100.556640625 482.867641104 103.818359375 514.541100022 122.303710938 c 0
 549.480673242 142.6953125 570.700976562 189.065429688 570.700976562 307.302734375 c 2
 570.700976562 600 l 1
 684.700976562 600 l 1
 684.700976562 0 l 1
 570.700976562 0 l 1
 570.700976562 29.4111328125 l 1x78
EndSplineSet
Validated: 1
EndChar

StartChar: n
Encoding: 110 110 95
Width: 787
Flags: W
HStem: -0 21G<69 183 599.7 716.701> 499.443 108.887<237.882 553.208> 580 20G<69 183>
VStem: 69 114<0 453.62 572.117 600> 599.7 117.001<0 456.118>
LayerCount: 2
UndoRedoHistory
Layer: 1
Undoes
UndoOperation
Index: 0
Type: 12
WasModified: 0
WasOrder2: 0
Layer: 0
EndUndoOperation
EndUndoes
Redoes
EndRedoes
EndUndoRedoHistory
Fore
SplineSet
183 600 m 1xb8
 183 572.1171875 l 1
 242.0319745 607.774414062 326.211065659 608.330078125 395.35627601 608.330078125 c 0
 397.905276511 608.330078125 400.43752672 608.329101562 402.953026634 608.329101562 c 0
 542.460306872 608.329101562 644.335742188 599.0390625 691.622851562 498.973632812 c 0
 716.466601562 446.40234375 716.68828125 392.319335938 716.691210938 302.536132812 c 0
 716.700976562 -0 l 1
 599.7 -0 l 1
 599.7 292.697265625 l 2
 599.7 424.32421875 597.213074114 475.022460938 516.944683764 491.7265625 c 0
 485.700460379 498.228515625 461.329769078 499.443359375 402.953026634 499.443359375 c 0xd8
 310.277595575 499.443359375 222.852888781 496.43359375 195.073020155 438.811523438 c 0
 184.533144484 416.94921875 183 368.3203125 183 292.697265625 c 2
 183 0 l 1
 69 0 l 1
 69 600 l 1
 183 600 l 1xb8
EndSplineSet
Validated: 1
EndChar

StartChar: m
Encoding: 109 109 96
Width: 1007
Flags: W
HStem: -0 21G<69 183 445.395 560.396 822.025 937.026> 499.443 108.886<226.091 408.894 602.621 782.767> 580 20G<69 183>
VStem: 69 114<0 452.274 578.277 600> 445.395 115.001<0 453.523> 822.025 115.001<0 458.728>
LayerCount: 2
UndoRedoHistory
Layer: 1
Undoes
UndoOperation
Index: 0
Type: 12
WasModified: 0
WasOrder2: 0
Layer: 0
CopiedFrom: Two Weekend Go Semi-Bold
EndUndoOperation
UndoOperation
Index: 1
Type: 1
WasModified: 0
WasOrder2: 0
Layer: 2
Width: 1100
VWidth: 1000
LBearingChange: 0
UnicodeEnc: 0
InstructionsLength: 0
SplineSet
183 600 m 1xbc
 183 578.27734375 l 1
 219.791057621 603.255859375 266.631286329 608.329101562 338.930375426 608.329101562 c 0
 453.857416542 608.329101562 515.671679688 586.243164062 554.01640625 537.543945312 c 1
 613.431222522 608.091796875 701.847795746 608.329101562 760.46722924 608.329101562 c 0
 760.863549933 608.329101562 761.259870626 608.329101562 761.654132511 608.329101562 c 0
 908.501758224 608.329101562 968.459082036 575.078125 1004.42294922 498.973632812 c 0
 1029.26669922 446.40234375 1029.48837891 392.319335938 1029.4913086 302.536132812 c 0
 1029.50107422 -0 l 1
 914.500097656 -0 l 1
 914.500097656 292.697265625 l 2
 914.500097656 377.869140625 912.72952209 419.526367188 896.051112019 449.13671875 c 0
 878.129181436 480.956054688 853.081713602 499.443359375 761.654132511 499.443359375 c 0
 658.171196506 499.443359375 639.236331994 467.674804688 624.147322315 440.717773438 c 0
 607.695381212 411.32421875 606.691210938 377.833984375 606.691210938 292.6875 c 2
 606.700976562 -0 l 1
 491.7 -0 l 1
 491.7 292.697265625 l 2
 491.7 377.869140625 489.930308767 419.526367188 473.260228909 449.13671875 c 0
 455.347249627 480.956054688 430.312292022 499.443359375 338.930375426 499.443359375 c 0xdc
 235.499125093 499.443359375 216.573717804 467.674804688 201.492244494 440.717773438 c 0
 187.652641718 415.978515625 183 378.145507812 183 292.697265625 c 2
 183 0 l 1
 69 0 l 1
 69 600 l 1
 183 600 l 1xbc
EndSplineSet
EndUndoOperation
EndUndoes
Redoes
EndRedoes
EndUndoRedoHistory
Fore
SplineSet
183 600 m 1xbc
 183 578.27734375 l 1
 214.272398978 603.255859375 254.08659338 608.329101562 315.540819112 608.329101562 c 0
 413.228804061 608.329101562 469.366679688 586.243164062 507.71140625 537.543945312 c 1
 566.116689144 608.091796875 641.270776384 608.329101562 691.097294854 608.329101562 c 0
 691.434167443 608.329101562 691.771040032 608.329101562 692.106162634 608.329101562 c 0
 816.92664449 608.329101562 875.984232036 575.078125 911.94809922 498.973632812 c 0
 936.79184922 446.40234375 937.01352891 392.319335938 937.0164586 302.536132812 c 0
 937.02622422 -0 l 1
 822.025247656 -0 l 1
 822.025247656 292.697265625 l 2
 822.025247656 377.869140625 820.520243777 419.526367188 806.343595216 449.13671875 c 0
 791.109954221 480.956054688 769.819606562 499.443359375 692.106162634 499.443359375 c 0
 604.14566703 499.443359375 588.051032195 467.674804688 575.225373968 440.717773438 c 0
 561.24122403 411.32421875 560.386210938 377.833984375 560.386210938 292.6875 c 2
 560.395976562 -0 l 1
 445.395 -0 l 1
 445.395 292.697265625 l 2
 445.395 377.869140625 443.890762452 419.526367188 429.721194573 449.13671875 c 0
 414.495162183 480.956054688 393.215448219 499.443359375 315.540819112 499.443359375 c 0xdc
 227.624256329 499.443359375 211.537660133 467.674804688 198.71840782 440.717773438 c 0
 186.95474546 415.978515625 183 378.145507812 183 292.697265625 c 2
 183 0 l 1
 69 0 l 1
 69 600 l 1
 183 600 l 1xbc
EndSplineSet
Validated: 524289
EndChar

StartChar: h
Encoding: 104 104 97
Width: 763
Flags: W
HStem: -0 21G<72 186 575.7 692.701> 499.443 108.886<239.526 532.405> 791 20G<72 186>
VStem: 72 114<0 453.439 570.911 811> 575.7 117.001<0 456.12>
LayerCount: 2
UndoRedoHistory
Layer: 1
Undoes
UndoOperation
Index: 0
Type: 12
WasModified: 0
WasOrder2: 0
Layer: 0
EndUndoOperation
EndUndoes
Redoes
EndRedoes
EndUndoRedoHistory
Fore
SplineSet
692.700976562 -0 m 1
 575.7 -0 l 1
 575.7 292.697265625 l 2
 575.7 367.358398438 574.34168596 420.2578125 557.481501153 451.541015625 c 0
 540.363962039 483.30078125 503.996519562 499.443359375 392.551174935 499.443359375 c 0
 314.24491703 499.443359375 225.807444823 495.6484375 198.175144062 438.811523438 c 0
 187.546113128 416.94921875 186 368.3203125 186 292.697265625 c 2
 186 0 l 1
 72 0 l 1
 72 811 l 1
 186 811 l 1
 186 570.911132812 l 1
 204.452999296 581.838867188 224.705491443 589.5703125 243.823239892 595.086914062 c 0
 281.882861455 606.0703125 311.860166704 608.329101562 392.551174935 608.329101562 c 0
 499.00742315 608.329101562 617.23515625 605.600585938 667.622851562 498.973632812 c 0
 692.466601562 446.40234375 692.68828125 392.319335938 692.691210938 302.536132812 c 0
 692.700976562 -0 l 1
EndSplineSet
Validated: 1
EndChar

StartChar: y
Encoding: 121 121 98
Width: 738
Flags: W
HStem: -200 114<149.139 292.275> 580 20G<58 196.879 567.941 704.352>
LayerCount: 2
UndoRedoHistory
Layer: 1
Undoes
UndoOperation
Index: 0
Type: 12
WasModified: 0
WasOrder2: 0
Layer: 0
EndUndoOperation
EndUndoes
Redoes
EndRedoes
EndUndoRedoHistory
Fore
SplineSet
408.324071549 -116.936523438 m 2
 397.927606714 -143.575195312 366.285846187 -200 284.778436789 -200 c 2
 149.138671875 -200 l 1
 149.138671875 -86 l 1
 255.254345775 -86 l 2
 280.150384402 -86 290.544860814 -78.1123046875 299.741312925 -54.935546875 c 2
 335.589580358 29.0126953125 l 1
 58 600 l 1
 187.744433594 600 l 1
 396.866783535 142.116210938 l 1
 575.755175781 600 l 1
 704.351757812 600 l 1
 408.324071549 -116.936523438 l 2
EndSplineSet
Validated: 1
EndChar

StartChar: dollar
Encoding: 36 36 99
Width: 894
Flags: W
HStem: -16.1143 104.114<251.83 390.19 515.32 656.61> 709 103.446<255.23 390.189 515.32 632.399>
VStem: 113.456 113.648<548.664 681.779> 390.19 125.13<-98 -16.1143 88 364.261 507.728 709 812.446 904> 675.661 113.764<598.206 670.778> 694.186 113.036<121.404 295.903>
LayerCount: 2
UndoRedoHistory
Layer: 1
Undoes
UndoOperation
Index: 0
Type: 12
WasModified: 0
WasOrder2: 0
Layer: 0
EndUndoOperation
EndUndoes
Redoes
EndRedoes
EndUndoRedoHistory
Fore
SplineSet
515.319616281 479.122070312 m 1xf8
 714.722316733 430.028320312 807.22134017 388.415039062 807.22134017 224.887695312 c 0xf4
 807.22134017 193.913085938 803.378566733 100.635742188 759.308254233 48.5732421875 c 0
 709.249660483 -10.5654296875 627.086790541 -14.9140625 515.319616281 -16.00390625 c 1
 515.319616281 -98 l 1
 390.189754021 -98 l 1
 390.189754021 -16.1142578125 l 1
 261.739259703 -15.330078125 162.883789062 -11.9375 117.837890625 90.544921875 c 0
 97.990234375 135.700195312 94.001953125 185.448242188 89.8193359375 237.631835938 c 1
 207.826171875 249.752929688 l 1
 211.42024143 208.760742188 212.717396348 194.579101562 218.308880735 158.975585938 c 0
 227.555234378 100.117673667 279.61979677 90.8215909453 390.189754021 88 c 1
 390.189754021 392.720703125 l 1
 272.64612723 421.353515625 272.64612723 421.353515625 260.304922403 424.666992188 c 0
 215.629483092 436.663085938 174.022460938 460.408203125 147.653320312 487.915039062 c 0
 120.423828125 516.321289062 113.456054688 561.267578125 113.456054688 606.829101562 c 0
 113.456054688 690.020507812 144.303710938 739.774414062 181.137695312 767.633789062 c 0
 225.422394957 802.923828125 276.38391299 810.416015625 390.189754021 812.446289062 c 1
 390.189754021 904 l 1
 515.319616281 904 l 1
 515.319616281 812.407226562 l 1
 638.630948369 810.158203125 721.193019858 800.090820312 761.331691733 716.991210938 c 0
 777.827785483 682.838867188 782.594387046 648.401367188 789.42446517 599.051757812 c 1
 675.66064055 585.313476562 l 1
 667.314221386 648.934570312 664.191151613 672.743164062 633.540440146 688.291992188 c 0
 612.929221532 698.748046875 576.078387392 706.494140626 515.319616281 709 c 1
 515.319616281 479.122070312 l 1xf8
390.189453125 709 m 1
 253.533203125 706.515625 227.104492188 691.049804688 227.104492188 614.200195312 c 0
 227.104492188 573.477539062 227.388671875 544.93359375 298.072265625 528.569335938 c 0
 315.017578125 524.646484375 315.017578125 524.646484375 390.189453125 507.727539062 c 1
 390.189453125 709 l 1
691.46875 176.999023438 m 0
 693.569335938 195.275390625 694.185546875 213.814453125 694.185546875 223.877929688 c 0
 694.185546875 299.37890625 672.748046875 322.057617188 515.319335938 364.260742188 c 1
 515.319335938 88 l 1
 663.4921875 90.3837890625 682.958007812 107.295898438 691.46875 176.999023438 c 0
EndSplineSet
Validated: 524289
EndChar

StartChar: numbersign
Encoding: 35 35 100
Width: 751
Flags: W
HStem: 65 114<35 170.076 301.178 386.076 517.178 640> 421 114<111 233.822 364.924 449.822 580.924 716> 785 20G<299.001 413.271 515.001 632.968>
LayerCount: 2
UndoRedoHistory
Layer: 1
Undoes
UndoOperation
Index: 0
Type: 12
WasModified: 0
WasOrder2: 0
Layer: 0
EndUndoOperation
EndUndoes
Redoes
EndRedoes
EndUndoRedoHistory
Fore
SplineSet
302.581949816 805 m 1
 413.271175184 805 l 1
 364.924300184 535 l 1
 470.235074816 535 l 1
 518.581949816 805 l 1
 632.967972427 805 l 1
 580.924300184 535 l 1
 716 535 l 1
 716 421 l 1
 560.511175184 421 l 1
 517.178050184 179 l 1
 640 179 l 1
 640 65 l 1
 496.764925184 65 l 1
 448.418050184 -205 l 1
 337.728824816 -205 l 1
 386.075699816 65 l 1
 280.764925184 65 l 1
 232.418050184 -205 l 1
 118.032027573 -205 l 1
 170.075699816 65 l 1
 35 65 l 1
 35 179 l 1
 190.488824816 179 l 1
 233.821949816 421 l 1
 111 421 l 1
 111 535 l 1
 254.235074816 535 l 1
 302.581949816 805 l 1
406.488824816 179 m 1
 449.821949816 421 l 1
 344.511175184 421 l 1
 301.178050184 179 l 1
 406.488824816 179 l 1
EndSplineSet
Validated: 1
EndChar

StartChar: quoteleft
Encoding: 259 8216 101
Width: 260
Flags: W
HStem: 764.841 64.2554<176.189 201.03>
VStem: 51.25 157<585.303 705.245>
LayerCount: 2
UndoRedoHistory
Layer: 1
Undoes
UndoOperation
Index: 0
Type: 12
WasModified: 0
WasOrder2: 0
Layer: 0
EndUndoOperation
EndUndoes
Redoes
EndRedoes
EndUndoRedoHistory
Fore
SplineSet
143.25 566 m 2
 121.25 566 l 2
 82.516529997 566 51.25 597.266529997 51.25 636 c 2
 51.25 672 l 2
 51.25 730.147727241 73.5417139987 770.496248508 103.604170135 794.803157487 c 0
 127.312528961 813.972480093 154.054962306 822.585826846 176.189181931 825.747858221 c 2
 199.629824381 829.096521428 l 1
 212.48090138 764.841136432 l 1
 168.176066256 748.730287296 158.075288764 745.057277299 153.644956889 722.168943126 c 1
 184.556209805 717.176372169 208.25 690.294615302 208.25 658 c 2
 208.25 631 l 2
 208.25 595.168249297 179.081750703 566 143.25 566 c 2
EndSplineSet
Validated: 1
EndChar

StartChar: quoteright
Encoding: 260 8217 102
Width: 260
Flags: W
HStem: 561.903 64.2554<58.9702 83.8108>
VStem: 51.75 157<685.755 805.697>
LayerCount: 2
UndoRedoHistory
Layer: 1
Undoes
UndoOperation
Index: 0
Type: 12
WasModified: 0
WasOrder2: 0
Layer: 0
EndUndoOperation
EndUndoes
Redoes
EndRedoes
EndUndoRedoHistory
Fore
SplineSet
116.75 825 m 2
 138.75 825 l 2
 177.483470003 825 208.75 793.733470003 208.75 755 c 2
 208.75 719 l 2
 208.75 660.852272759 186.458286001 620.503751492 156.395829865 596.196842513 c 0
 132.687471039 577.027519907 105.945037694 568.414173154 83.810818069 565.252141779 c 2
 60.3701756189 561.903478572 l 1
 47.5190986197 626.158863568 l 1
 91.8239337435 642.269712704 101.924711236 645.942722701 106.355043111 668.831056874 c 1
 75.4437901948 673.823627831 51.75 700.705384698 51.75 733 c 2
 51.75 760 l 2
 51.75 795.831750703 80.9182492971 825 116.75 825 c 2
EndSplineSet
Validated: 1
EndChar

StartChar: quotereversed
Encoding: 261 8219 103
Width: 260
Flags: W
HStem: 561.903 263.097
VStem: 51.25 157<685.755 805.697>
LayerCount: 2
UndoRedoHistory
Layer: 1
Undoes
UndoOperation
Index: 0
Type: 12
WasModified: 0
WasOrder2: 0
Layer: 0
EndUndoOperation
EndUndoes
Redoes
EndRedoes
EndUndoRedoHistory
Fore
SplineSet
143.25 825 m 2
 179.081750703 825 208.25 795.831750703 208.25 760 c 2
 208.25 733 l 2
 208.25 700.705384698 184.556209805 673.823627831 153.644956889 668.831056874 c 1
 156.704342227 653.02541613 162.846089743 644.207885981 192.284373244 633.503055617 c 2
 212.48090138 626.158863568 l 1
 199.629824381 561.903478572 l 1
 176.189181931 565.252141779 l 2
 154.054962306 568.414173154 127.312528961 577.027519907 103.604170135 596.196842513 c 0
 73.5417139987 620.503751492 51.25 660.852272759 51.25 719 c 2
 51.25 755 l 2
 51.25 793.733470003 82.516529997 825 121.25 825 c 2
 143.25 825 l 2
EndSplineSet
Validated: 1
EndChar

StartChar: uni201F
Encoding: 262 8223 104
Width: 429
Flags: W
HStem: 561.903 263.097
VStem: 51.25 153.3<683.377 805.697> 225.25 152.877<685.755 806.841>
LayerCount: 2
UndoRedoHistory
Layer: 1
Undoes
UndoOperation
Index: 0
Type: 12
WasModified: 0
WasOrder2: 0
Layer: 0
EndUndoOperation
EndUndoes
Redoes
EndRedoes
EndUndoRedoHistory
Fore
SplineSet
143.25 825 m 2
 178.298575633 825 204.55 795.831750703 204.55 760 c 2
 204.55 733 l 2
 204.55 700.705384698 183.225588824 673.823627831 153.644956889 668.831056874 c 1
 156.704342227 653.02541613 162.846089743 644.207885981 190.18093592 633.503055617 c 2
 208.357811242 626.158863568 l 1
 196.791841943 561.903478572 l 1
 175.695263738 565.252141779 l 2
 154.054962306 568.414173154 127.312528961 577.027519907 103.604170135 596.196842513 c 0
 73.5417139987 620.503751492 51.25 660.852272759 51.25 719 c 2
 51.25 755 l 2
 51.25 793.733470003 82.516529997 825 121.25 825 c 2
 143.25 825 l 2
313.126909862 825 m 2
 348.958660565 825 378.126909862 795.831750703 378.126909862 760 c 2
 378.126909862 733 l 2
 378.126909862 700.705384698 354.433119667 673.823627831 323.521866751 668.831056874 c 1
 326.581252089 653.02541613 332.722999605 644.207885981 362.161283106 633.503055617 c 2
 382.357811242 626.158863568 l 1
 369.506734243 561.903478572 l 1
 346.066091793 565.252141779 l 2
 323.931872168 568.414173154 297.189438823 577.027519907 273.481079997 596.196842513 c 0
 245.312542599 620.503751492 225.25 660.852272759 225.25 719 c 2
 225.25 755 l 2
 225.25 793.733470003 253.389876997 825 291.126909862 825 c 2
 313.126909862 825 l 2
EndSplineSet
Validated: 1
EndChar

StartChar: brokenbar
Encoding: 166 166 105
Width: 320
Flags: W
HStem: 785 20G<102 218>
VStem: 102 116<-205 225 375 805>
LayerCount: 2
UndoRedoHistory
Layer: 1
Undoes
UndoOperation
Index: 0
Type: 12
WasModified: 0
WasOrder2: 0
Layer: 0
EndUndoOperation
EndUndoes
Redoes
EndRedoes
EndUndoRedoHistory
Fore
SplineSet
218 225 m 1
 218 -205 l 1
 102 -205 l 1
 102 225 l 1
 218 225 l 1
218 805 m 1
 218 375 l 1
 102 375 l 1
 102 805 l 1
 218 805 l 1
EndSplineSet
Validated: 1
EndChar

StartChar: perthousand
Encoding: 263 8240 106
Width: 1216
Flags: W
HStem: -25.6074 111.357<605.11 699.93 933.802 1028.62> 211.787 109.82<605.11 699.93 933.802 1028.62> 460.393 111.357<189.907 294.093> 697.787 109.82<189.907 294.093>
VStem: 78.7598 108.386<574.536 696.461> 295.702 109.538<574.536 696.461> 494.76 108.386<88.5363 210.461> 700.846 109.538<88.5363 210.461> 823.452 108.386<88.5363 210.461> 1029.54 109.538<88.5363 210.461>
LayerCount: 2
UndoRedoHistory
Layer: 1
Undoes
UndoOperation
Index: 0
Type: 12
WasModified: 0
WasOrder2: 0
Layer: 0
HStem: -25.6074 111.357<605.11 699.93 933.802 1028.62> 211.787 109.82<605.11 699.93 933.802 1028.62> 460.393 111.357<189.907 294.093> 697.787 109.82<189.907 294.093>
VStem: 78.7598 108.386<574.536 696.461> 295.702 109.538<574.536 696.461> 494.76 108.386<88.5363 210.461> 700.846 109.538<88.5363 210.461> 823.452 108.386<88.5363 210.461> 1029.54 109.538<88.5363 210.461>
CopiedFrom: Two Weekend Go Semi-Bold
EndUndoOperation
UndoOperation
Index: 1
Type: 12
WasModified: 0
WasOrder2: 0
Layer: 0
EndUndoOperation
EndUndoes
Redoes
EndRedoes
EndUndoRedoHistory
Fore
SplineSet
939.734863281 321.607421875 m 2
 1022.6790039 321.607421875 l 2
 1086.435804 321.607421875 1139.07695313 268.967858306 1139.07695313 204.448242188 c 2
 1139.07695313 91.5517578125 l 2
 1139.07695313 27.0321416948 1086.435804 -25.607421875 1022.6790039 -25.607421875 c 2
 939.734863281 -25.607421875 l 2
 876.093297559 -25.607421875 823.452148437 27.0321416985 823.452148437 91.5517578125 c 2
 823.452148437 204.448242188 l 2
 823.452148437 268.967858302 876.093297559 321.607421875 939.734863281 321.607421875 c 2
957.711132813 211.787109375 m 2
 942.833973802 211.787109375 931.837890624 198.855587757 931.837890624 185.010742188 c 2
 931.837890624 112.526367188 l 2
 931.837890624 98.6806221778 942.833602356 85.75 957.711132813 85.75 c 2
 1003.665625 85.75 l 2
 1018.54315546 85.75 1029.53886719 98.6806221787 1029.53886719 112.526367188 c 2
 1029.53886719 185.010742188 l 2
 1029.53886719 198.855587757 1018.54278401 211.787109375 1003.665625 211.787109375 c 2
 957.711132813 211.787109375 l 2
611.042480469 321.607421875 m 2
 693.986621094 321.607421875 l 2
 757.74342119 321.607421875 810.384570312 268.967858302 810.384570312 204.448242188 c 2
 810.384570312 91.5517578125 l 2
 810.384570312 27.0321416985 757.74342119 -25.607421875 693.986621094 -25.607421875 c 2
 611.042480469 -25.607421875 l 2
 547.400914747 -25.607421875 494.759765625 27.0321416985 494.759765625 91.5517578125 c 2
 494.759765625 204.448242188 l 2
 494.759765625 268.967858302 547.400914747 321.607421875 611.042480469 321.607421875 c 2
629.01875 211.787109375 m 2
 614.141590989 211.787109375 603.145507812 198.855587757 603.145507812 185.010742188 c 2
 603.145507812 112.526367188 l 2
 603.145507812 98.6806221778 614.141219544 85.75 629.01875 85.75 c 2
 674.973242187 85.75 l 2
 689.850772643 85.75 700.846484375 98.6806221778 700.846484375 112.526367188 c 2
 700.846484375 185.010742188 l 2
 700.846484375 198.855587757 689.850401198 211.787109375 674.973242187 211.787109375 c 2
 629.01875 211.787109375 l 2
635.551526927 805 m 1
 769.274191502 805 l 1
 260.847804283 -25 l 1
 119.870144435 -25 l 1
 635.551526927 805 l 1
195.919921875 807.607421875 m 2
 288.080078125 807.607421875 l 2
 352.599085253 807.607421875 405.240234375 754.967858302 405.240234375 690.448242188 c 2
 405.240234375 577.551757812 l 2
 405.240234375 513.032141698 352.599085253 460.392578125 288.080078125 460.392578125 c 2
 195.919921875 460.392578125 l 2
 131.400914747 460.392578125 78.759765625 513.032141698 78.759765625 577.551757812 c 2
 78.759765625 690.448242188 l 2
 78.759765625 754.967858302 131.400914747 807.607421875 195.919921875 807.607421875 c 2
215.893554688 697.787109375 m 2
 199.363378009 697.787109375 187.145507812 684.855587757 187.145507812 671.010742188 c 2
 187.145507812 598.526367188 l 2
 187.145507812 584.680622178 199.362965292 571.75 215.893554688 571.75 c 2
 266.954101562 571.75 l 2
 283.484690958 571.75 295.702148438 584.680622178 295.702148438 598.526367188 c 2
 295.702148438 671.010742188 l 2
 295.702148438 684.855587757 283.484278241 697.787109375 266.954101562 697.787109375 c 2
 215.893554688 697.787109375 l 2
EndSplineSet
Validated: 524289
EndChar

StartChar: emdash
Encoding: 264 8212 107
Width: 991
VWidth: 1050
Flags: W
HStem: 248 104<-25 1016>
LayerCount: 2
UndoRedoHistory
Layer: 1
Undoes
UndoOperation
Index: 0
Type: 12
WasModified: 0
WasOrder2: 0
Layer: 0
CopiedFrom: Two Weekend Go Semi-Bold
EndUndoOperation
EndUndoes
Redoes
EndRedoes
EndUndoRedoHistory
Fore
SplineSet
-25 248 m 1
 -25 352 l 1
 1016 352 l 1
 1016 248 l 1
 -25 248 l 1
EndSplineSet
Validated: 1
EndChar

StartChar: endash
Encoding: 265 8211 108
Width: 505
Flags: W
HStem: 248 104<-25 530>
LayerCount: 2
UndoRedoHistory
Layer: 1
Undoes
UndoOperation
Index: 0
Type: 12
WasModified: 0
WasOrder2: 0
Layer: 0
CopiedFrom: Two Weekend Go Semi-Bold
EndUndoOperation
EndUndoes
Redoes
EndRedoes
EndUndoRedoHistory
Fore
SplineSet
-25 248 m 1
 -25 352 l 1
 530 352 l 1
 530 248 l 1
 -25 248 l 1
EndSplineSet
Validated: 1
EndChar

StartChar: ampersand
Encoding: 38 38 109
Width: 807
Flags: W
HStem: -37.1962 108.524<206.984 502.256> 724.443 108.886<266.823 484.829>
VStem: 54 114<104.432 327.148> 130 106.4<563.748 694.869> 516.3 110.8<551.978 694.022> 554.1 116<223.662 422>
LayerCount: 2
UndoRedoHistory
Layer: 1
Undoes
UndoOperation
Index: 0
Type: 12
WasModified: 0
WasOrder2: 0
Layer: 0
EndUndoOperation
EndUndoes
Redoes
EndRedoes
EndUndoRedoHistory
Fore
SplineSet
516.3 633 m 2xd8
 516.3 698.18850663 478.122504517 724.443359375 377.7 724.443359375 c 0
 346.437791636 724.443359375 286.875956608 720.824108739 255.698827724 695.295739512 c 0
 243.036195944 684.927358874 236.4 673.148612731 236.4 654 c 2
 236.4 608 l 2
 236.4 589.767170413 245.302499242 577.126379348 260.736608767 559.352813239 c 2
 317.110500857 494.433296481 l 1
 485.399279068 532.642281577 516.3 547.803110619 516.3 599 c 2
 516.3 633 l 2xd8
168 245 m 0xe0
 168 177.642576686 169.662271262 143.952490117 172.778772081 135.048202063 c 0
 184.062767755 102.808419731 196.481836301 71.328125 350.2921875 71.328125 c 0
 435.568955989 71.328125 485.518666775 79.3199839822 513.352122197 100.059688602 c 1
 276.746692634 372.531838817 l 1
 190.132618513 346.487285559 168 321.657256504 168 245 c 0xe0
592.201396827 13.6454651957 m 1
 537.156192729 -31.0289404328 459.61675891 -36.8368258571 350.345081015 -37.196178658 c 0
 216.466351894 -36.7582884274 110.065224076 -34.0287784338 65.0195030183 84.8379092462 c 0
 55.3170463016 110.44076042 54 166.869618417 54 250 c 0xe4
 54 365.520015364 98.7218173594 424.341127129 199.784183977 461.160997745 c 1
 174.17939034 490.647189971 l 2
 140.7513198 526.004652498 130 567.483595834 130 606 c 2
 130 653 l 2
 130 690.697819461 144.163248863 780.481305039 262.219510964 819.045590217 c 0
 294.484901895 829.802605078 329.067757262 833.329101562 377.7 833.329101562 c 0
 533.626152084 833.329101562 578.700199468 769.688307583 604.774530792 724.459350501 c 0
 621.046253799 696.234156443 627.1 665.244303501 627.1 638 c 2
 627.1 599 l 2xd8
 627.1 472.357097806 551.758061072 440.291659021 396.890286607 402.559825521 c 1
 553.023600626 222.758521762 l 1
 553.765499753 238.596382931 554.1 256.265346353 554.1 276 c 0
 554.1 422 l 1
 670.1 422 l 1
 670.1 263 l 2xc4
 670.1 204.74425774 665.614102684 156.425060688 655.053665072 116.887595662 c 1
 751.089895158 17.3528132389 l 1
 791.954047547 -25 l 1
 629.488497693 -25 l 1
 592.201396827 13.6454651957 l 1
EndSplineSet
Validated: 1
EndChar

StartChar: braceleft
Encoding: 123 123 110
Width: 400
Flags: W
HStem: -206 110<290.662 382> 240.065 119.87<59 133.663> 696 110<290.662 382>
VStem: 158 116<-81.5721 215.949 384.051 681.572>
LayerCount: 2
UndoRedoHistory
Layer: 1
Undoes
UndoOperation
Index: 0
Type: 12
WasModified: 0
WasOrder2: 0
Layer: 0
EndUndoOperation
EndUndoes
Redoes
EndRedoes
EndUndoRedoHistory
Fore
SplineSet
224.075079375 300 m 1
 265.656447865 267.890053355 274 218.455351222 274 173 c 2
 274 -8 l 2
 274 -41.7115614195 279.823147526 -62.269788581 288.200587216 -73.69199905 c 0
 297.913345408 -86.9348479873 316.097081501 -96 357 -96 c 2
 382 -96 l 1
 382 -206 l 1
 357 -206 l 2
 279.376607132 -206 223.601940677 -191.447575777 190.771187232 -147.655472291 c 0
 165.123439126 -113.444596165 158 -68.0294094146 158 -12 c 2
 158 154 l 2
 158 222.386658955 126.100786509 228.082947078 59 240.065230383 c 1
 59 359.934769617 l 1
 126.100786509 371.917052922 158 377.613341045 158 446 c 2
 158 612 l 2
 158 668.029409415 165.123439126 713.444596165 190.771187232 747.655472291 c 0
 223.601940677 791.447575777 279.376607132 806 357 806 c 2
 382 806 l 1
 382 696 l 1
 357 696 l 2
 316.097081501 696 297.913345408 686.934847987 288.200587216 673.69199905 c 0
 279.823147526 662.269788581 274 641.71156142 274 608 c 2
 274 427 l 2
 274 381.590483684 265.676759996 332.12563207 224.075079375 300 c 1
EndSplineSet
Validated: 1
EndChar

StartChar: braceright
Encoding: 125 125 111
Width: 400
Flags: W
HStem: -206 110<18 109.338> 240.065 119.87<266.337 341> 696 110<18 109.338>
VStem: 126 116<-81.5721 215.949 384.051 681.572>
LayerCount: 2
UndoRedoHistory
Layer: 1
Undoes
UndoOperation
Index: 0
Type: 12
WasModified: 0
WasOrder2: 0
Layer: 0
EndUndoOperation
EndUndoes
Redoes
EndRedoes
EndUndoRedoHistory
Fore
SplineSet
175.924920625 300 m 1
 134.343552135 332.109946645 126 381.544648778 126 427 c 2
 126 608 l 2
 126 641.71156142 120.176852474 662.269788581 111.799412784 673.69199905 c 0
 102.086654592 686.934847987 83.9029184989 696 43 696 c 2
 18 696 l 1
 18 806 l 1
 43 806 l 2
 120.623392868 806 176.398059323 791.447575777 209.228812768 747.655472291 c 0
 234.876560874 713.444596165 242 668.029409415 242 612 c 2
 242 446 l 2
 242 377.613341045 273.899213491 371.917052922 341 359.934769617 c 1
 341 240.065230383 l 1
 273.899213491 228.082947078 242 222.386658955 242 154 c 2
 242 -12 l 2
 242 -68.0294094146 234.876560874 -113.444596165 209.228812768 -147.655472291 c 0
 176.398059323 -191.447575777 120.623392868 -206 43 -206 c 2
 18 -206 l 1
 18 -96 l 1
 43 -96 l 2
 83.9029184989 -96 102.086654592 -86.9348479873 111.799412784 -73.69199905 c 0
 120.176852474 -62.269788581 126 -41.7115614195 126 -8 c 2
 126 173 l 2
 126 218.409516316 134.323240004 267.87436793 175.924920625 300 c 1
EndSplineSet
Validated: 1
EndChar

StartChar: asciitilde
Encoding: 126 126 112
Width: 608
VWidth: 999
Flags: W
HStem: 183 109<351.53 438.427> 281 109<169.973 256.87>
VStem: 53 109<188 268.053> 446.4 109<304.947 385>
LayerCount: 2
UndoRedoHistory
Layer: 1
Undoes
UndoOperation
Index: 0
Type: 12
WasModified: 0
WasOrder2: 0
Layer: 0
EndUndoOperation
EndUndoes
Redoes
EndRedoes
EndUndoRedoHistory
Fore
SplineSet
398.7 292 m 0xb0
 422.880512637 292 431.786110801 296.907840001 436.810472469 304.601841131 c 0
 441.52678743 311.824118316 446.4 328.339436225 446.4 360 c 2
 446.4 385 l 1
 555.4 385 l 1
 555.4 360 l 2
 555.4 290.452620749 540.065312763 241.142422677 502.423619584 212.080128426 c 0
 472.90024851 189.285805828 436.356999261 183 398.7 183 c 0xb0
 338.631506151 183 314.478066628 205.75757823 278.941281584 239.240642407 c 0
 237.893545331 277.91617216 234.620567491 281 209.7 281 c 0
 185.519487363 281 176.613889199 276.092159999 171.589527531 268.398158869 c 0
 166.87321257 261.175881684 162 244.660563775 162 213 c 2
 162 188 l 1
 53 188 l 1
 53 213 l 2
 53 282.547379251 68.3346872367 331.857577323 105.976380416 360.919871574 c 0
 135.49975149 383.714194172 172.043000739 390 209.7 390 c 0x70
 269.768493849 390 293.921933372 367.24242177 329.458718416 333.759357593 c 0
 370.506454669 295.08382784 373.779432508 292 398.7 292 c 0xb0
EndSplineSet
Validated: 1
EndChar

StartChar: yen
Encoding: 165 165 113
Width: 851
Flags: W
HStem: 225 114<187 365.613 485.613 664.226> 391 114<187 326.809 524.417 664.226>
VStem: 365.613 120<-25 225 339 391>
LayerCount: 2
UndoRedoHistory
Layer: 1
Undoes
UndoOperation
Index: 0
Type: 12
WasModified: 0
WasOrder2: 0
Layer: 0
EndUndoOperation
EndUndoes
Redoes
EndRedoes
EndUndoRedoHistory
Fore
SplineSet
116.131617722 825 m 1
 258.563797302 825 l 1
 425.613161772 559.042668139 l 1
 592.662526242 825 l 1
 735.094705822 825 l 1
 524.417069103 505 l 1
 664.226323544 505 l 1
 664.226323544 391 l 1
 485.613161772 391 l 1
 485.613161772 339 l 1
 664.226323544 339 l 1
 664.226323544 225 l 1
 485.613161772 225 l 1
 485.613161772 -25 l 1
 365.613161772 -25 l 1
 365.613161772 225 l 1
 187 225 l 1
 187 339 l 1
 365.613161772 339 l 1
 365.613161772 391 l 1
 187 391 l 1
 187 505 l 1
 326.809254441 505 l 1
 116.131617722 825 l 1
EndSplineSet
Validated: 1
EndChar

StartChar: sterling
Encoding: 163 163 114
Width: 450
VWidth: 800
Flags: W
HStem: -25 114<76 98.0101 262.321 659.4> 391 114<33 159.777 280.761 433.2> 726.672 110.524<299.018 438.464>
VStem: 159.772 119.997<109.931 391 505 708.532>
LayerCount: 2
UndoRedoHistory
Layer: 1
Undoes
UndoOperation
Index: 0
Type: 12
WasModified: 0
WasOrder2: 0
Layer: 0
EndUndoOperation
EndUndoes
Redoes
EndRedoes
EndUndoRedoHistory
Fore
SplineSet
368.376855468 726.671875 m 0
 317.467250778 726.671875 294.824345742 716.953807128 285.350169416 676.995615288 c 0
 282.479641621 664.888905811 281.384827923 605.457419599 280.760978336 505 c 1
 433.19970703 505 l 1
 433.19970703 391 l 1
 279.769042968 391 l 1
 279.769042968 189 l 2
 279.769042968 149.611517952 273.560121872 116.513048753 262.320621054 89 c 1
 659.39970703 89 l 1
 659.39970703 -25 l 1
 76 -25 l 1
 76 86.1946378638 l 1
 98.0100544809 88.8227040705 l 2
 132.035579234 92.8854532948 159.770249905 111.457222398 159.771972666 216.000746809 c 2
 159.777099574 391.009421326 l 1
 58.0023424958 391.000000108 l 2
 33 391.000000108 l 1
 33 505 l 1
 160.702710356 505 l 1
 161.181932423 670.375911152 164.777692517 700.404952494 173.567709385 725.555661068 c 0
 210.82626525 832.16286041 292.829463044 837.196289062 367.356445311 837.196289062 c 0
 389.245990234 837.196289062 418.50405301 833.501559998 435.250135321 827.840178469 c 2
 454.602195092 821.297788929 l 1
 436.563547594 716.490499606 l 1
 403.388807231 724.544755581 394.627397775 726.671875 368.376855468 726.671875 c 0
EndSplineSet
Validated: 1
EndChar

StartChar: ellipsis
Encoding: 266 8230 115
Width: 671
Flags: W
HStem: -25 157<78.4092 201.591 274.109 397.291 469.809 592.991>
VStem: 61.5 157<-8.0908 115.091> 257.2 157<-8.0908 115.091> 452.9 157<-8.0908 115.091>
CounterMasks: 1 70
LayerCount: 2
UndoRedoHistory
Layer: 1
Undoes
UndoOperation
Index: 0
Type: 12
WasModified: 0
WasOrder2: 0
Layer: 0
CopiedFrom: Two Weekend Go Semi-Bold
EndUndoOperation
EndUndoes
Redoes
EndRedoes
EndUndoRedoHistory
Fore
SplineSet
517.9 132 m 2
 544.9 132 l 2
 580.731750703 132 609.9 102.831750703 609.9 67 c 2
 609.9 40 l 2
 609.9 4.16824929715 580.731750703 -25 544.9 -25 c 2
 517.9 -25 l 2
 482.068249297 -25 452.9 4.16824929715 452.9 40 c 2
 452.9 67 l 2
 452.9 102.831750703 482.068249297 132 517.9 132 c 2
322.2 132 m 2
 349.2 132 l 2
 385.031750703 132 414.2 102.831750703 414.2 67 c 2
 414.2 40 l 2
 414.2 4.16824929715 385.031750703 -25 349.2 -25 c 2
 322.2 -25 l 2
 286.368249297 -25 257.2 4.16824929715 257.2 40 c 2
 257.2 67 l 2
 257.2 102.831750703 286.368249297 132 322.2 132 c 2
126.5 132 m 2
 153.5 132 l 2
 189.331750703 132 218.5 102.831750703 218.5 67 c 2
 218.5 40 l 2
 218.5 4.16824929715 189.331750703 -25 153.5 -25 c 2
 126.5 -25 l 2
 90.6682492971 -25 61.5 4.16824929715 61.5 40 c 2
 61.5 67 l 2
 61.5 102.831750703 90.6682492971 132 126.5 132 c 2
EndSplineSet
Validated: 524289
EndChar

StartChar: Agrave
Encoding: 192 192 116
Width: 920
Flags: W
HStem: 0 21G<66 205.429 738.501 878.033> 213 118<342.689 600.421> 790 22.75<447.244 514.909>
LayerCount: 2
UndoRedoHistory
Layer: 1
Undoes
UndoOperation
Index: 0
Type: 12
WasModified: 0
WasOrder2: 0
Layer: 0
EndUndoOperation
EndUndoes
Redoes
EndRedoes
EndUndoRedoHistory
Fore
SplineSet
447.244411074 790 m 1
 270.086314705 968 l 1
 419.322296889 968 l 1
 573.313565272 790 l 1
 447.244411074 790 l 1
401.692616405 762.736328125 m 2
 411.728576628 785.71875 427.356232818 812.75 471.104100241 812.75 c 0
 514.909387099 812.75 530.294924671 785.625976562 540.329927904 762.782226562 c 2
 878.033203125 0 l 1
 747.749023437 0 l 1
 649.254595842 213 l 1
 294.145057913 213 l 1
 196.235351562 0 l 1
 66 0 l 1
 401.692616405 762.736328125 l 2
600.421280471 331 m 1
 471.172046572 643.31640625 l 1
 342.689362128 331 l 1
 600.421280471 331 l 1
EndSplineSet
Validated: 5
EndChar

StartChar: Aacute
Encoding: 193 193 117
Width: 920
Flags: W
HStem: 0 21G<67 206.429 739.501 879.033> 213 118<343.689 601.421> 790 22.75<428.356 497.703>
LayerCount: 2
UndoRedoHistory
Layer: 1
Undoes
UndoOperation
Index: 0
Type: 12
WasModified: 0
WasOrder2: 0
Layer: 0
EndUndoOperation
EndUndoes
Redoes
EndRedoes
EndUndoRedoHistory
Fore
SplineSet
674.860737663 968 m 1
 497.702641294 790 l 1
 371.633487096 790 l 1
 525.624755478 968 l 1
 674.860737663 968 l 1
402.692616405 762.736328125 m 2
 412.728576628 785.71875 428.356232818 812.75 472.104100241 812.75 c 0
 515.909387099 812.75 531.294924671 785.625976562 541.329927904 762.782226562 c 2
 879.033203125 0 l 1
 748.749023437 0 l 1
 650.254595842 213 l 1
 295.145057913 213 l 1
 197.235351562 0 l 1
 67 0 l 1
 402.692616405 762.736328125 l 2
601.421280471 331 m 1
 472.172046572 643.31640625 l 1
 343.689362128 331 l 1
 601.421280471 331 l 1
EndSplineSet
Validated: 5
EndChar

StartChar: Acircumflex
Encoding: 194 194 118
Width: 919
Flags: W
HStem: 0 21G<66 205.429 738.501 878.033> 213 118<342.689 600.421>
LayerCount: 2
UndoRedoHistory
Layer: 1
Undoes
UndoOperation
Index: 0
Type: 12
WasModified: 0
WasOrder2: 0
Layer: 0
EndUndoOperation
EndUndoes
Redoes
EndRedoes
EndUndoRedoHistory
Fore
SplineSet
401.692616405 762.736328125 m 2
 411.728576628 785.71875 427.356232818 812.75 471.104100241 812.75 c 0
 514.909387099 812.75 530.294924671 785.625976562 540.329927904 762.782226562 c 2
 878.033203125 0 l 1
 747.749023437 0 l 1
 649.254595842 213 l 1
 294.145057913 213 l 1
 196.235351562 0 l 1
 66 0 l 1
 401.692616405 762.736328125 l 2
600.421280471 331 m 1
 471.172046572 643.31640625 l 1
 342.689362128 331 l 1
 600.421280471 331 l 1
282.240095084 773 m 1
 431.693314131 966 l 1
 512.252781246 966 l 1
 661.706957284 773 l 1
 554.928819218 773 l 1
 471.973047688 857.651367188 l 1
 389.018233149 773 l 1
 282.240095084 773 l 1
EndSplineSet
Validated: 1
EndChar

StartChar: Adieresis
Encoding: 196 196 119
Width: 877
Flags: W
HStem: 0 21G<45 183.744 717.924 856.7> 213 118<317.666 583.397> 780 20G<388.2 511.842> 812 131<304.755 409.007 492.906 597.158>
VStem: 293.185 127.394<823 932> 481.335 127.395<823 932>
LayerCount: 2
UndoRedoHistory
Layer: 1
Undoes
UndoOperation
Index: 0
Type: 12
WasModified: 1
WasOrder2: 0
Layer: 0
HStem: -0 21G<45 184.415 717.468 857.001> 213 118<321.243 579.605> 812 131<304.755 409.007 492.906 597.158>
VStem: 293.184 127.394<823 932> 481.335 127.394<823 932>
EndUndoOperation
EndUndoes
Redoes
EndRedoes
EndUndoRedoHistory
Fore
SplineSet
503 800 m 6
 856.7 0 l 5
 726.7 0 l 5
 633.231445312 213 l 5
 268.12109375 213 l 5
 175 0 l 5
 45 0 l 5
 397 800 l 6
 503 800 l 6
583.397460938 331 m 5
 450.148511416 643.31640625 l 5
 317.666015625 331 l 5
 583.397460938 331 l 5
535.232421875 943 m 2
 554.83203125 943 l 2
 584.353515625 943 608.729492188 918.126953125 608.729492188 888 c 2
 608.729492188 863 608.729492188 842 608.729492188 867 c 2
 608.729492188 836.873046875 584.353515625 812 554.83203125 812 c 2
 535.232421875 812 l 2
 505.709960938 812 481.334960938 836.873046875 481.334960938 867 c 2
 481.334960938 842 481.334960938 863 481.334960938 888 c 2
 481.334960938 918.126953125 505.709960938 943 535.232421875 943 c 2
293.184570312 888 m 2
 293.184570312 918.126953125 317.55859375 943 347.08203125 943 c 2
 366.680664062 943 l 2
 396.203125 943 420.578125 918.126953125 420.578125 888 c 2
 420.578125 863 420.578125 842 420.578125 867 c 2
 420.578125 836.873046875 396.203125 812 366.680664062 812 c 2
 347.08203125 812 l 2
 317.55859375 812 293.184570312 836.873046875 293.184570312 867 c 2
 293.184570312 842 293.184570312 863 293.184570312 888 c 2
EndSplineSet
Validated: 5
EndChar

StartChar: Atilde
Encoding: 195 195 120
Width: 877
Flags: W
HStem: 0 21G<45 183.744 717.924 856.7> 213 118<317.666 583.397> 780 20G<388.2 511.842> 799 94<485.431 556.232> 872 94<345.681 416.482>
VStem: 248.106 93.0957<802 864.996> 560.712 93.0947<900.004 963>
LayerCount: 2
UndoRedoHistory
Layer: 1
Undoes
UndoOperation
Index: 0
Type: 12
WasModified: 0
WasOrder2: 0
Layer: 0
HStem: -0 21G<45 184.415 717.468 857.001> 213 118<321.243 579.605> 799 94<485.431 556.232> 872 94<345.681 416.482>
VStem: 248.106 93.0955<802 864.996> 560.711 93.0955<900.004 963>
EndUndoOperation
EndUndoes
Redoes
EndRedoes
EndUndoRedoHistory
Fore
SplineSet
503 800 m 2xe6
 856.7 0 l 1
 726.7 0 l 1
 633.231445312 213 l 1
 268.12109375 213 l 1
 175 0 l 1
 45 0 l 1
 397 800 l 2
 503 800 l 2xe6
583.397460938 331 m 1
 450.148511416 643.31640625 l 1
 317.666015625 331 l 1
 583.397460938 331 l 1
491.658203125 909.41015625 m 0
 508.107421875 895.518554688 511.672851562 893 528.373046875 893 c 0
 547.551757812 893 551.849609375 896.57421875 554.116210938 899.823242188 c 0
 556.724609375 903.565429688 560.711914062 914.724609375 560.711914062 938 c 2
 560.711914062 963 l 1
 653.806640625 963 l 1
 653.806640625 938 l 2
 653.806640625 885.118164062 642.396484375 845.666992188 612.415039062 822.094726562 c 0
 589.017578125 803.698242188 559.7734375 799 528.373046875 799 c 0xd6
 475.928710938 799 457.142578125 815.272460938 419.70703125 847.700195312 c 0
 416.177734375 850.5859375 413.045898438 853.231445312 410.25390625 855.58984375 c 0
 393.8046875 869.481445312 390.240234375 872 373.540039062 872 c 0
 354.360351562 872 350.0625 868.42578125 347.796875 865.176757812 c 0
 345.1875 861.434570312 341.202148438 850.275390625 341.202148438 827 c 2
 341.202148438 802 341.202148438 777 341.202148438 802 c 1
 248.106445312 802 l 1
 248.106445312 827 l 2
 248.106445312 879.881835938 259.515625 919.333007812 289.497070312 942.905273438 c 0
 312.895507812 961.301757812 342.138671875 966 373.540039062 966 c 0xce
 425.984375 966 444.76953125 949.727539062 482.205078125 917.299804688 c 0
 485.734375 914.4140625 488.8671875 911.768554688 491.658203125 909.41015625 c 0
EndSplineSet
Validated: 5
EndChar

StartChar: Aring
Encoding: 197 197 121
Width: 877
Flags: W
HStem: 0 21G<45 183.744 717.924 856.7> 213 118<317.666 583.397> 796 4<397 503> 924 86<429.422 471.506>
VStem: 345.122 83.2959<887.867 922.797> 472.516 84.2764<882 922.797>
LayerCount: 2
UndoRedoHistory
Layer: 1
Undoes
UndoOperation
Index: 0
Type: 12
WasModified: 0
WasOrder2: 0
Layer: 0
HStem: -0 21G<45 184.415 717.468 857.001> 213 118<321.243 579.605> 796 17<406.281 493.668> 924 86<429.422 471.506>
VStem: 345.122 83.296<887.867 922.797> 472.516 84.276<882 922.797>
EndUndoOperation
EndUndoes
Redoes
EndRedoes
EndUndoRedoHistory
Fore
SplineSet
503 800 m 2
 856.7 0 l 1
 726.7 0 l 1
 633.231445312 213 l 1
 268.12109375 213 l 1
 175 0 l 1
 45 0 l 1
 397 800 l 2
 503 800 l 2
583.397460938 331 m 1
 450.148511416 643.31640625 l 1
 317.666015625 331 l 1
 583.397460938 331 l 1
345.122070312 930 m 2
 345.122070312 973.912109375 380.486328125 1010 423.517578125 1010 c 2
 477.415039062 1010 l 2
 520.0234375 1010 556.791992188 974.514648438 556.791992188 930 c 2
 556.791992188 876 l 2
 556.791992188 831.485351562 520.0234375 796 477.415039062 796 c 2
 423.517578125 796 l 2
 380.486328125 796 345.122070312 832.087890625 345.122070312 876 c 2
 345.122070312 930 l 2
435.27734375 882 m 2
 465.65625 882 l 2
 470.310546875 882 472.515625 882.633789062 472.515625 889 c 2
 472.515625 864 472.515625 893 472.515625 918 c 2
 472.515625 922.782226562 471.510742188 922.796875 471.510742188 922.796875 c 2
 471.421875 922.870117188 470.016601562 924 465.65625 924 c 2
 435.27734375 924 l 2
 430.916015625 924 429.510742188 922.870117188 429.421875 922.796875 c 2
 429.421875 922.796875 428.41796875 922.782226562 428.41796875 918 c 2
 428.41796875 893 428.41796875 864 428.41796875 889 c 2
 428.41796875 882.633789062 430.622070312 882 435.27734375 882 c 2
EndSplineSet
Validated: 5
EndChar

StartChar: AE
Encoding: 198 198 122
Width: 1087
Flags: W
HStem: 0 114<599.454 1028.7> 213 118<354.796 470.6> 375 114<599.454 985.702> 686 114<599.454 1010.7>
VStem: 470.6 128.853<114 213 331 375 489 586.483>
LayerCount: 2
UndoRedoHistory
Layer: 1
Undoes
UndoOperation
Index: 0
Type: 12
WasModified: 0
WasOrder2: 0
Layer: 0
EndUndoOperation
EndUndoes
Redoes
EndRedoes
EndUndoRedoHistory
Fore
SplineSet
301.65644664 213 m 1
 196.520506737 0 l 1
 61 0 l 1
 419.385168478 761.821289062 l 2
 427.619918792 778.90625 443.262064526 790.463867188 460.081801575 795.407226562 c 0
 473.103465832 799.474609375 485.67737275 800 497.444897012 800 c 0
 1010.70214844 800 l 1
 1010.70214844 686 l 1
 599.453875825 686 l 1
 599.453875825 489 l 1
 985.702148438 489 l 1
 985.702148438 375 l 1
 599.453875825 375 l 1
 599.453875825 114 l 1
 1028.70214844 114 l 1
 1028.70214844 0 l 1
 470.600428903 0 l 1
 470.600428903 213 l 1
 301.65644664 213 l 1
354.795910151 331 m 1
 470.600428903 331 l 1
 470.600428903 586.483398438 l 1
 354.795910151 331 l 1
EndSplineSet
Validated: 1
EndChar

StartChar: Ccedilla
Encoding: 199 199 123
Width: 895
Flags: W
HStem: -198 95<314.608 508.297> -11.334 107.662<211.844 359.718 553.534 670.956> 699.443 108.886<213.061 663.769>
VStem: 44 115.939<151.981 642.768> 714.227 116.052<141.193 240.469>
LayerCount: 2
UndoRedoHistory
Layer: 1
Undoes
UndoOperation
Index: 0
Type: 12
WasModified: 0
WasOrder2: 0
Layer: 0
EndUndoOperation
EndUndoes
Redoes
EndRedoes
EndUndoRedoHistory
Fore
SplineSet
684.466617097 -0.2802734375 m 0
 654.936548821 -6.4365234375 607.070735865 -9.9345703125 553.534498578 -11.39453125 c 1
 573.678343434 -16.5068359375 622.946200169 -31.3681640625 622.946200169 -96 c 0
 622.946200169 -170.321289062 570.918309162 -187.4453125 494.210042298 -193.913085938 c 0
 455.288962201 -197.194335938 405.032779522 -198 339.12427202 -198 c 2
 314.607659475 -198 l 1
 314.607659475 -103 l 1
 339.12427202 -103 l 2
 428.26705831 -103 482.282135686 -101.662109375 509.611454914 -97.439453125 c 1
 485.517179326 -94.5859375 444.158803177 -94 384.234839106 -94 c 2
 359.718226559 -94 l 1
 359.718226559 -11.333984375 l 1
 293.497515321 -9.85546875 233.077472916 -6.35546875 197.312906685 1.818359375 c 0
 96.6171875 23.2705078125 67.3984375 100.518554688 55.2333984375 167.9296875 c 0
 44.197265625 229.094726562 44 302.922851562 44 387.583984375 c 0
 44 390.715820312 44 393.86328125 44 397.024414062 c 0
 44 611.109375 47.9794921875 758.698242188 196.822574434 793.374023438 c 0
 236.023297143 803.205078125 373.15447945 808.329101562 440.13271571 808.329101562 c 0
 442.511593271 808.329101562 628.488295357 807.966796875 677.686241439 795.341796875 c 0
 801.005301561 764.311523438 813.467215623 678.389648438 817.970145311 593.340820312 c 2
 819.202567186 570.07421875 l 1
 704.70814533 555.849609375 l 1
 702.241161193 607.7109375 701.52673178 622.745117188 694.044376553 641.989257812 c 0
 686.80431441 660.610351562 671.852053798 682.64453125 627.633086958 690.704101562 c 0
 599.001322689 695.924804688 495.640816483 699.443359375 440.13271571 699.443359375 c 0
 384.279850074 699.443359375 276.040921043 694.458984375 246.747399772 689.526367188 c 0
 208.887429311 683.153320312 181.091719837 659.514648438 175.036308074 625.630859375 c 0
 162.563867187 555.309570312 159.939453125 495.434570312 159.939453125 397.143554688 c 0
 159.939453125 299.919921875 162.562988282 240.041015625 175.036308074 169.71484375 c 0
 181.091719837 135.83203125 208.887429311 112.193359375 246.748357452 105.819335938 c 0
 285.661776107 99.267578125 363.465629094 96.328125 439.688352108 96.328125 c 0
 516.17060645 96.328125 597.237275802 97.6337890625 635.479360653 104.606445312 c 0
 673.467660258 111.53125 698.61442636 135.198242188 707.761229736 168.39453125 c 0
 711.134082032 180.787109375 712.502539062 208.485351562 714.226953125 247.479492188 c 1
 830.278710938 240.46875 l 1
 826.108789062 150.40234375 820.427148438 27.7060546875 684.466617097 -0.2802734375 c 0
EndSplineSet
Validated: 1
EndChar

StartChar: Egrave
Encoding: 200 200 124
Width: 886
Flags: W
HStem: 0 114<192 819.6> 375 114<192 789.6> 686 114<192 452.48 579.526 814.6>
VStem: 72 120<114 375 489 686>
LayerCount: 2
UndoRedoHistory
Layer: 1
Undoes
UndoOperation
Index: 0
Type: 12
WasModified: 0
WasOrder2: 0
Layer: 0
EndUndoOperation
EndUndoes
Redoes
EndRedoes
EndUndoRedoHistory
Fore
SplineSet
192 375 m 1
 192 114 l 1
 819.6 114 l 1
 819.6 0 l 1
 72 0 l 1
 72 800 l 1
 814.6 800 l 1
 814.6 686 l 1
 192 686 l 1
 192 489 l 1
 789.6 489 l 1
 789.6 375 l 1
 192 375 l 1
452.480419352 790 m 1
 273.950142115 968 l 1
 424.342033986 968 l 1
 579.5260442 790 l 1
 452.480419352 790 l 1
EndSplineSet
Validated: 5
EndChar

StartChar: Eacute
Encoding: 201 201 125
Width: 886
Flags: W
HStem: 0 114<192 819.6> 375 114<192 789.6> 686 114<192 317.012 444.057 814.6> 790 10<317.012 444.057>
VStem: 72 120<114 375 489 686>
LayerCount: 2
UndoRedoHistory
Layer: 1
Undoes
UndoOperation
Index: 0
Type: 12
WasModified: 0
WasOrder2: 0
Layer: 0
EndUndoOperation
EndUndoes
Redoes
EndRedoes
EndUndoRedoHistory
Fore
SplineSet
192 375 m 5xe8
 192 114 l 5
 819.6 114 l 5
 819.6 0 l 5
 72 0 l 5
 72 800 l 5xd8
 814.6 800 l 5
 814.6 686 l 5
 192 686 l 5
 192 489 l 5
 789.6 489 l 5
 789.6 375 l 5
 192 375 l 5xe8
622.587601076 968 m 5
 444.057323839 790 l 5
 317.011698991 790 l 5
 472.195709205 968 l 5
 622.587601076 968 l 5
EndSplineSet
Validated: 5
EndChar

StartChar: Ecircumflex
Encoding: 202 202 126
Width: 886
Flags: W
HStem: 0 114<192 819.6> 375 114<192 789.6> 686 114<192 251.943 359.996 527.654 635.706 814.6> 776 24<251.943 359.996 527.654 527.654>
VStem: 72 120<114 375 489 686>
LayerCount: 2
UndoRedoHistory
Layer: 1
Undoes
UndoOperation
Index: 0
Type: 12
WasModified: 0
WasOrder2: 0
Layer: 0
EndUndoOperation
EndUndoes
Redoes
EndRedoes
EndUndoRedoHistory
Fore
SplineSet
192 375 m 1xe8
 192 114 l 1
 819.6 114 l 1
 819.6 0 l 1
 72 0 l 1
 72 800 l 1xd8
 814.6 800 l 1
 814.6 686 l 1
 192 686 l 1
 192 489 l 1
 789.6 489 l 1
 789.6 375 l 1
 192 375 l 1xe8
251.943430813 776 m 1
 403.390379529 966 l 1
 484.259425918 966 l 1
 635.706374635 776 l 1
 527.653701818 776 l 1
 443.824902724 858.205078125 l 1
 359.996103629 776 l 1
 251.943430813 776 l 1
EndSplineSet
Validated: 5
EndChar

StartChar: Edieresis
Encoding: 203 203 127
Width: 886
Flags: W
HStem: 0 114<192 819.6> 375 114<192 789.6> 686 114<192 814.6> 812 131<296.49 401.55 486.099 591.16>
VStem: 72 120<114 375 489 686> 284.83 128.381<823 932> 474.439 128.381<823 932>
LayerCount: 2
UndoRedoHistory
Layer: 1
Undoes
UndoOperation
Index: 0
Type: 12
WasModified: 0
WasOrder2: 0
Layer: 0
EndUndoOperation
EndUndoes
Redoes
EndRedoes
EndUndoRedoHistory
Fore
SplineSet
192 375 m 1
 192 114 l 1
 819.6 114 l 1
 819.6 0 l 1
 72 0 l 1
 72 800 l 1
 814.6 800 l 1
 814.6 686 l 1
 192 686 l 1
 192 489 l 1
 789.6 489 l 1
 789.6 375 l 1
 192 375 l 1
528.754085603 943 m 2
 548.505058366 943 l 2
 578.256889895 943 602.820233463 918.126953125 602.820233463 888 c 2
 602.820233463 863 602.820233463 842 602.820233463 867 c 2
 602.820233463 836.873046875 578.256889895 812 548.505058366 812 c 2
 528.754085603 812 l 2
 499.002254073 812 474.438910506 836.873046875 474.438910506 867 c 2
 474.438910506 842 474.438910506 863 474.438910506 888 c 2
 474.438910506 918.126953125 499.002254073 943 528.754085603 943 c 2
284.829571985 888 m 2
 284.829571985 918.126953125 309.392915552 943 339.144747082 943 c 2
 358.895719844 943 l 2
 388.647551374 943 413.210894941 918.126953125 413.210894941 888 c 2
 413.210894941 863 413.210894941 842 413.210894941 867 c 2
 413.210894941 836.873046875 388.647551374 812 358.895719844 812 c 2
 339.144747082 812 l 2
 309.392915552 812 284.829571985 836.873046875 284.829571985 867 c 2
 284.829571985 842 284.829571985 863 284.829571985 888 c 2
EndSplineSet
Validated: 5
EndChar

StartChar: Igrave
Encoding: 204 204 128
Width: 269
Flags: W
HStem: 0 21G<108.017 228.017> 790 10<137.781 228.017>
VStem: 108.017 120<0 790>
LayerCount: 2
UndoRedoHistory
Layer: 1
Undoes
UndoOperation
Index: 0
Type: 12
WasModified: 0
WasOrder2: 0
Layer: 0
EndUndoOperation
EndUndoes
Redoes
EndRedoes
EndUndoRedoHistory
Fore
SplineSet
108.016601562 0 m 1
 108.016601562 800 l 1
 228.016601562 800 l 1
 228.016601562 0 l 1
 108.016601562 0 l 1
137.78125 790 m 1
 -43 968 l 1
 109.288085938 968 l 1
 266.428710938 790 l 1
 137.78125 790 l 1
EndSplineSet
Validated: 5
EndChar

StartChar: Iacute
Encoding: 205 205 129
Width: 269
Flags: W
HStem: 0 21G<102.412 222.412> 790 10<102.412 192.647>
VStem: 102.412 120<0 790>
LayerCount: 2
UndoRedoHistory
Layer: 1
Undoes
UndoOperation
Index: 0
Type: 12
WasModified: 0
WasOrder2: 0
Layer: 0
EndUndoOperation
EndUndoes
Redoes
EndRedoes
EndUndoRedoHistory
Fore
SplineSet
102.412109375 0 m 1
 102.412109375 800 l 1
 222.412109375 800 l 1
 222.412109375 0 l 1
 102.412109375 0 l 1
373.428710938 968 m 1
 192.647460938 790 l 1
 64 790 l 1
 221.140625 968 l 1
 373.428710938 968 l 1
EndSplineSet
Validated: 5
EndChar

StartChar: Icircumflex
Encoding: 206 206 130
Width: 356
Flags: W
HStem: 0 21G<142.871 262.871> 780 20G<142.871 262.871>
VStem: 142.871 120<0 800>
LayerCount: 2
UndoRedoHistory
Layer: 1
Undoes
UndoOperation
Index: 0
Type: 12
WasModified: 0
WasOrder2: 0
Layer: 0
EndUndoOperation
EndUndoes
Redoes
EndRedoes
EndUndoRedoHistory
Fore
SplineSet
142.870703125 0 m 5
 142.870703125 800 l 5
 262.870703125 800 l 5
 262.870703125 0 l 5
 142.870703125 0 l 5
-35 776 m 5
 161.92734375 966 l 5
 243.815039063 966 l 5
 440.742285156 776 l 5
 331.326269532 776 l 5
 202.870703125 858.205078125 l 5
 74.4150390625 776 l 5
 -35 776 l 5
EndSplineSet
Validated: 1
EndChar

StartChar: Idieresis
Encoding: 207 207 131
Width: 269
Flags: W
HStem: 0 21G<72 192> 780 20G<72 192> 812 131<-17.1925 89.1925 174.808 281.192>
VStem: -29 130<823.808 931.192> 72 120<0 800> 163 130<823.808 931.192>
LayerCount: 2
UndoRedoHistory
Layer: 1
Undoes
UndoOperation
Index: 0
Type: 12
WasModified: 0
WasOrder2: 0
Layer: 0
EndUndoOperation
EndUndoes
Redoes
EndRedoes
EndUndoRedoHistory
Fore
SplineSet
72 0 m 5xe8
 72 800 l 5
 192 800 l 5
 192 0 l 5
 72 0 l 5xe8
218 943 m 2
 238 943 l 2
 268.126953125 943 293 918.126953125 293 888 c 2
 293 863 293 842 293 867 c 2
 293 836.873046875 268.126953125 812 238 812 c 2
 218 812 l 2
 187.873046875 812 163 836.873046875 163 867 c 2
 163 842 163 863 163 888 c 2xe4
 163 918.126953125 187.873046875 943 218 943 c 2
-29 888 m 2xf0
 -29 918.126953125 -4.126953125 943 26 943 c 2
 46 943 l 2
 76.126953125 943 101 918.126953125 101 888 c 2
 101 863 101 842 101 867 c 2
 101 836.873046875 76.126953125 812 46 812 c 2
 26 812 l 2
 -4.126953125 812 -29 836.873046875 -29 867 c 2
 -29 842 -29 863 -29 888 c 2xf0
EndSplineSet
Validated: 5
EndChar

StartChar: Eth
Encoding: 208 208 132
Width: 976
Flags: W
HStem: 0 110<251.237 740.01> 375 114<62 126 251.237 472.256> 690 110<251.237 722.654>
VStem: 126 125.237<110 375 489 690> 787.47 115.939<159.062 608.553>
LayerCount: 2
UndoRedoHistory
Layer: 1
Undoes
UndoOperation
Index: 0
Type: 12
WasModified: 0
WasOrder2: 0
Layer: 0
EndUndoOperation
EndUndoes
Redoes
EndRedoes
EndUndoRedoHistory
Fore
SplineSet
251.237391214 110 m 1
 509.25485691 110 l 2
 585.15873467 110 662.118034699 111.471679688 700.283435111 117.923828125 c 0
 740.122297858 124.658203125 765.70820582 143.65234375 771.48165088 176.099609375 c 0
 784.076864121 246.999023438 787.470321152 290.348632812 787.470321152 387.186523438 c 0
 787.470321152 484.545898438 781.121174271 552.013671875 763.097224243 620.625 c 0
 754.489352349 653.390625 726.544432992 672.974609375 686.166449139 680.608398438 c 0
 657.998084527 685.93359375 562.226595676 690 507.307555282 690 c 2
 251.237391214 690 l 1
 251.237391214 489 l 1
 472.25612598 489 l 1
 472.25612598 375 l 1
 251.237391214 375 l 1
 251.237391214 110 l 1
62 489 m 1
 126 489 l 1
 126 800 l 1
 496.597396328 800 l 2
 498.910767842 800 679.016200975 799.89453125 727.582740305 787.341796875 c 0
 786.395418809 773.010742188 839.01621959 746.255859375 863.52012584 690.791015625 c 0
 902.537703965 602.474609375 903.409774278 426.939453125 903.409774278 386.80859375 c 0
 903.409774278 273.7109375 896.18418834 181.443359375 873.744735215 117.961914062 c 0
 851.903914902 56.17578125 796.46543834 23.416015625 737.236526159 11.7197265625 c 0
 688.306769434 1.4462890625 603.599148621 0 511.202158538 0 c 2
 126 0 l 1
 126 375 l 1
 62 375 l 1
 62 489 l 1
EndSplineSet
Validated: 1
EndChar

StartChar: Ntilde
Encoding: 209 209 133
Width: 913
Flags: W
HStem: 0 21G<71 191 665.41 833> 780 20G<71 238.59 713 833> 799 94<490.648 561.808> 872 94<350.192 421.352>
VStem: 71 120<0 652.854> 252.125 93.566<800.865 864.996> 566.309 93.566<900.004 963> 713 120<147.146 800>
LayerCount: 2
UndoRedoHistory
Layer: 1
Undoes
UndoOperation
Index: 0
Type: 12
WasModified: 1
WasOrder2: 0
Layer: 0
HStem: 0 21G<75 195> 789 11G<122.737 166.121 717 837> 799 94<490.648 561.808> 872 94<350.192 421.352>
VStem: 75 120<0 652.854> 252.125 93.566<800.865 864.996> 566.309 93.566<900.004 963> 717 120<147.146 800>
EndUndoOperation
EndUndoes
Redoes
EndRedoes
EndUndoRedoHistory
Fore
SplineSet
680.403125 0 m 2xcf
 191 652.853515625 l 1
 191 0 l 1
 71 0 l 1
 71 800 l 2
 223.596875 800 l 2
 713 147.146484375 l 1
 713 800 l 1
 833 800 l 1
 833 0 l 2
 680.403125 0 l 2xcf
496.908210495 909.41015625 m 0
 513.440967719 895.518554688 517.0227926 893 533.80754717 893 c 0
 553.083420548 893 557.403924675 896.57421875 559.680557194 899.823242188 c 0
 562.303445608 903.565429688 566.309433962 914.724609375 566.309433962 938 c 2
 566.309433962 913 566.309433962 938 566.309433962 963 c 1
 659.875471698 963 l 1
 659.875471698 938 659.875471698 913 659.875471698 938 c 2
 659.875471698 885.118164062 648.40766878 845.666992188 618.275711233 822.094726562 c 0
 594.759164947 803.698242188 565.366848467 799 533.80754717 799 c 0xaf
 481.097781545 799 462.218178803 815.272460938 424.59362839 847.700195312 c 0
 421.046429098 850.5859375 417.898385908 853.231445312 415.091789505 855.58984375 c 0
 398.559032281 869.481445312 394.9772074 872 378.19245283 872 c 0
 358.916579452 872 354.596075325 868.42578125 352.319442806 865.176757812 c 0
 349.696554392 861.434570312 345.690566038 850.275390625 345.690566038 827 c 2
 345.690566038 802 345.690566038 777 345.690566038 802 c 1
 252.124528302 802 l 1
 252.124528302 777 252.124528302 802 252.124528302 827 c 2
 252.124528302 879.881835938 263.59233122 919.333007812 293.724288767 942.905273438 c 0
 317.240835053 961.301757812 346.633151533 966 378.19245283 966 c 0x9f
 430.902218455 966 449.781821197 949.727539062 487.40637161 917.299804688 c 0
 490.953570902 914.4140625 494.101614092 911.768554688 496.908210495 909.41015625 c 0
EndSplineSet
Validated: 5
EndChar

StartChar: Ograve
Encoding: 210 210 134
Width: 936
Flags: W
HStem: -12.1963 108.524<241.626 700.694> 699.443 108.886<237.853 695.03>
VStem: 74 115.939<151.555 650.031> 748.033 115.939<144.522 646.864>
LayerCount: 2
UndoRedoHistory
Layer: 1
Undoes
UndoOperation
Index: 0
Type: 12
WasModified: 0
WasOrder2: 0
Layer: 0
EndUndoOperation
EndUndoes
Redoes
EndRedoes
EndUndoRedoHistory
Fore
SplineSet
660.295651596 689.526367188 m 0
 631.232255763 694.422851562 525.034955772 699.443359375 469.966108835 699.443359375 c 0
 413.762137501 699.443359375 305.455382053 696.21875 276.698259243 691.373046875 c 0
 237.376631291 684.75 210.922298785 664.169921875 205.02941437 631.170898438 c 0
 192.591992188 561.0234375 189.939453125 495.403320312 189.939453125 397.143554688 c 0
 189.939453125 300.10546875 193.448046875 236.436523438 206.00948805 166.020507812 c 0
 211.902372465 133.022460938 238.355747866 112.443359375 277.67737582 105.819335938 c 0
 316.601805944 99.2626953125 393.337555169 96.328125 469.52201295 96.328125 c 0
 545.994558793 96.328125 622.93704231 97.513671875 661.274768172 103.97265625 c 0
 700.598310331 110.596679688 727.05072863 131.176757812 732.942655942 164.173828125 c 0
 745.380957032 234.325195312 748.032617188 299.950195312 748.032617188 397.143554688 c 0
 748.032617188 495.25 744.524023437 558.913085938 731.962582263 629.32421875 c 0
 726.070654951 662.322265625 699.619193756 682.903320312 660.295651596 689.526367188 c 0
74 391.3984375 m 0
 74 393.267578125 74 395.142578125 74 397.024414062 c 0
 74 642.032226562 83.8408203125 762.043945312 226.802555114 795.374023438 c 0
 275.266432854 807.53515625 460.018935256 808.329101562 469.966108835 808.329101562 c 0
 472.382794421 808.329101562 662.373522648 807.903320312 711.295852821 795.341796875 c 0
 749.786523438 785.973632812 813.325585938 763.64453125 836.84609375 692.900390625 c 0
 859.1546875 625.798828125 863.972070313 517.578125 863.972070313 397.020507812 c 0
 863.972070313 125.765625 845.048242188 25.8671875 710.232511163 -0.2802734375 c 0
 660.641165852 -10.625 562.804162331 -12.1962890625 469.653136088 -12.1962890625 c 0
 376.258048528 -12.1962890625 277.398858788 -11.6396484375 227.292591953 -0.181640625 c 0
 74.650390625 32.2353515625 74 172.166992188 74 391.3984375 c 0
490.31699422 790 m 1
 313.138049455 968 l 1
 462.391594094 968 l 1
 616.400984543 790 l 1
 490.31699422 790 l 1
EndSplineSet
Validated: 5
EndChar

StartChar: Oacute
Encoding: 211 211 135
Width: 936
Flags: W
HStem: -12.1963 108.524<241.626 700.694> 788.329 20G<464.993 471.174>
VStem: 74 115.939<151.555 650.031> 748.033 115.939<144.522 646.864>
LayerCount: 2
UndoRedoHistory
Layer: 1
Undoes
UndoOperation
Index: 0
Type: 12
WasModified: 0
WasOrder2: 0
Layer: 0
EndUndoOperation
EndUndoes
Redoes
EndRedoes
EndUndoRedoHistory
Fore
SplineSet
660.295651596 689.526367188 m 0
 631.232255763 694.422851562 525.034955772 699.443359375 469.966108835 699.443359375 c 0
 413.762137501 699.443359375 305.455382053 696.21875 276.698259243 691.373046875 c 0
 237.376631291 684.75 210.922298785 664.169921875 205.02941437 631.170898438 c 0
 192.591992188 561.0234375 189.939453125 495.403320312 189.939453125 397.143554688 c 0
 189.939453125 300.10546875 193.448046875 236.436523438 206.00948805 166.020507812 c 0
 211.902372465 133.022460938 238.355747866 112.443359375 277.67737582 105.819335938 c 0
 316.601805944 99.2626953125 393.337555169 96.328125 469.52201295 96.328125 c 0
 545.994558793 96.328125 622.93704231 97.513671875 661.274768172 103.97265625 c 0
 700.598310331 110.596679688 727.05072863 131.176757812 732.942655942 164.173828125 c 0
 745.380957032 234.325195312 748.032617188 299.950195312 748.032617188 397.143554688 c 0
 748.032617188 495.25 744.524023437 558.913085938 731.962582263 629.32421875 c 0
 726.070654951 662.322265625 699.619193756 682.903320312 660.295651596 689.526367188 c 0
74 391.3984375 m 0
 74 393.267578125 74 395.142578125 74 397.024414062 c 0
 74 642.032226562 83.8408203125 762.043945312 226.802555114 795.374023438 c 0
 275.266432854 807.53515625 460.018935256 808.329101562 469.966108835 808.329101562 c 0
 472.382794421 808.329101562 662.373522648 807.903320312 711.295852821 795.341796875 c 0
 749.786523438 785.973632812 813.325585938 763.64453125 836.84609375 692.900390625 c 0
 859.1546875 625.798828125 863.972070313 517.578125 863.972070313 397.020507812 c 0
 863.972070313 125.765625 845.048242188 25.8671875 710.232511163 -0.2802734375 c 0
 660.641165852 -10.625 562.804162331 -12.1962890625 469.653136088 -12.1962890625 c 0
 376.258048528 -12.1962890625 277.398858788 -11.6396484375 227.292591953 -0.181640625 c 0
 74.650390625 32.2353515625 74 172.166992188 74 391.3984375 c 0
636.594905004 968 m 1
 459.415960239 790 l 1
 333.331969916 790 l 1
 487.341360365 968 l 1
 636.594905004 968 l 1
EndSplineSet
Validated: 5
EndChar

StartChar: Ocircumflex
Encoding: 212 212 136
Width: 936
Flags: W
HStem: -12.1963 108.524<241.626 700.694> 699.443 108.886<396.063 545.235>
VStem: 74 115.939<151.555 650.031> 748.033 115.939<144.522 646.864>
LayerCount: 2
UndoRedoHistory
Layer: 1
Undoes
UndoOperation
Index: 0
Type: 12
WasModified: 0
WasOrder2: 0
Layer: 0
EndUndoOperation
EndUndoes
Redoes
EndRedoes
EndUndoRedoHistory
Fore
SplineSet
660.295651596 689.526367188 m 0
 631.232255763 694.422851562 525.034955772 699.443359375 469.966108835 699.443359375 c 0
 413.762137501 699.443359375 305.455382053 696.21875 276.698259243 691.373046875 c 0
 237.376631291 684.75 210.922298785 664.169921875 205.02941437 631.170898438 c 0
 192.591992188 561.0234375 189.939453125 495.403320312 189.939453125 397.143554688 c 0
 189.939453125 300.10546875 193.448046875 236.436523438 206.00948805 166.020507812 c 0
 211.902372465 133.022460938 238.355747866 112.443359375 277.67737582 105.819335938 c 0
 316.601805944 99.2626953125 393.337555169 96.328125 469.52201295 96.328125 c 0
 545.994558793 96.328125 622.93704231 97.513671875 661.274768172 103.97265625 c 0
 700.598310331 110.596679688 727.05072863 131.176757812 732.942655942 164.173828125 c 0
 745.380957032 234.325195312 748.032617188 299.950195312 748.032617188 397.143554688 c 0
 748.032617188 495.25 744.524023437 558.913085938 731.962582263 629.32421875 c 0
 726.070654951 662.322265625 699.619193756 682.903320312 660.295651596 689.526367188 c 0
74 391.3984375 m 0
 74 393.267578125 74 395.142578125 74 397.024414062 c 0
 74 642.032226562 83.8408203125 762.043945312 226.802555114 795.374023438 c 0
 275.266432854 807.53515625 460.018935256 808.329101562 469.966108835 808.329101562 c 0
 472.382794421 808.329101562 662.362037409 807.907226562 711.295852821 795.341796875 c 0
 749.786523438 785.973632812 813.325585938 763.64453125 836.84609375 692.900390625 c 0
 859.1546875 625.798828125 863.972070313 517.578125 863.972070313 397.020507812 c 0
 863.972070313 125.765625 845.048242188 25.8671875 710.232511163 -0.2802734375 c 0
 660.641165852 -10.625 562.804162331 -12.1962890625 469.653136088 -12.1962890625 c 0
 376.258048528 -12.1962890625 277.398858788 -11.6396484375 227.292591953 -0.181640625 c 0
 74.650390625 32.2353515625 74 172.166992188 74 391.3984375 c 0
275.323859046 780 m 1
 430.728705963 954 l 1
 509.203511707 954 l 1
 664.608358625 780 l 1
 554.484064196 780 l 1
 469.966108835 848.989257812 l 1
 385.448153474 780 l 1
 275.323859046 780 l 1
EndSplineSet
Validated: 5
EndChar

StartChar: Otilde
Encoding: 213 213 137
Width: 936
Flags: W
HStem: -12.1963 108.524<241.626 700.694> 699.443 108.886<237.853 695.03> 872 94<364.678 435.488>
VStem: 74 115.939<151.555 650.031> 267.091 93.107<800.865 864.996> 579.734 93.107<900.004 963> 748.033 115.939<144.522 646.864>
LayerCount: 2
UndoRedoHistory
Layer: 1
Undoes
UndoOperation
Index: 0
Type: 12
WasModified: 0
WasOrder2: 0
Layer: 0
EndUndoOperation
EndUndoes
Redoes
EndRedoes
EndUndoRedoHistory
Fore
SplineSet
660.295651596 689.526367188 m 0
 631.232255763 694.422851562 525.034955772 699.443359375 469.966108835 699.443359375 c 0
 413.762137501 699.443359375 305.455382053 696.21875 276.698259243 691.373046875 c 0
 237.376631291 684.75 210.922298785 664.169921875 205.02941437 631.170898438 c 0
 192.591992188 561.0234375 189.939453125 495.403320312 189.939453125 397.143554688 c 0
 189.939453125 300.10546875 193.448046875 236.436523438 206.00948805 166.020507812 c 0
 211.902372465 133.022460938 238.355747866 112.443359375 277.67737582 105.819335938 c 0
 316.601805944 99.2626953125 393.337555169 96.328125 469.52201295 96.328125 c 0
 545.994558793 96.328125 622.93704231 97.513671875 661.274768172 103.97265625 c 0
 700.598310331 110.596679688 727.05072863 131.176757812 732.942655942 164.173828125 c 0
 745.380957032 234.325195312 748.032617188 299.950195312 748.032617188 397.143554688 c 0
 748.032617188 495.25 744.524023437 558.913085938 731.962582263 629.32421875 c 0
 726.070654951 662.322265625 699.619193756 682.903320312 660.295651596 689.526367188 c 0
74 391.3984375 m 0
 74 393.267578125 74 395.142578125 74 397.024414062 c 0
 74 642.032226562 83.8408203125 762.043945312 226.802555114 795.374023438 c 0
 275.266432854 807.53515625 460.018935256 808.329101562 469.966108835 808.329101562 c 0
 472.382794421 808.329101562 662.373522648 807.903320312 711.295852821 795.341796875 c 0
 749.786523438 785.973632812 813.325585938 763.64453125 836.84609375 692.900390625 c 0
 859.1546875 625.798828125 863.972070313 517.578125 863.972070313 397.020507812 c 0
 863.972070313 125.765625 845.048242188 25.8671875 710.232511163 -0.2802734375 c 0
 660.641165852 -10.625 562.804162331 -12.1962890625 469.653136088 -12.1962890625 c 0
 376.258048528 -12.1962890625 277.398858788 -11.6396484375 227.292591953 -0.181640625 c 0
 74.650390625 32.2353515625 74 172.166992188 74 391.3984375 c 0
510.673622225 909.41015625 m 0
 527.125269165 895.518554688 530.68952149 893 547.391929469 893 c 0
 566.573234741 893 570.872542325 896.57421875 573.138005604 899.823242188 c 0
 575.748026036 903.565429688 579.734360873 914.724609375 579.734360873 938 c 2
 579.734360873 913 579.734360873 938 579.734360873 963 c 1
 672.841360368 963 l 1
 672.841360368 938 672.841360368 913 672.841360368 938 c 2
 672.841360368 885.118164062 661.429818891 845.666992188 631.445689776 822.094726562 c 0
 608.044516487 803.698242188 578.796399735 799 547.391929469 799 c 0
 494.940759789 799 476.153781037 815.272460938 438.713817978 847.700195312 c 0
 435.184021369 850.5859375 432.051422589 853.231445312 429.258595446 855.58984375 c 0
 412.807905608 869.481445312 409.242696181 872 392.540288202 872 c 0
 373.358982929 872 369.059675346 868.42578125 366.794212067 865.176757812 c 0
 364.184191634 861.434570312 360.197856798 850.275390625 360.197856798 827 c 2
 360.197856798 802 360.197856798 777 360.197856798 802 c 1
 267.090857301 802 l 1
 267.090857301 777 267.090857301 802 267.090857301 827 c 2
 267.090857301 879.881835938 278.50239878 919.333007812 308.486527894 942.905273438 c 0
 331.887701184 961.301757812 361.135817936 966 392.540288202 966 c 0
 444.99145788 966 463.778436634 949.727539062 501.218399691 917.299804688 c 0
 504.748196301 914.4140625 507.880795081 911.768554688 510.673622225 909.41015625 c 0
EndSplineSet
Validated: 5
EndChar

StartChar: Odieresis
Encoding: 214 214 138
Width: 936
Flags: W
HStem: -12.1963 108.524<241.626 700.694> 699.443 108.886<237.853 695.03> 812 131<323.746 428.012 511.921 616.186>
VStem: 74 115.939<151.555 650.031> 312.174 127.41<823 932> 500.348 127.41<823 932> 748.033 115.939<144.522 646.864>
LayerCount: 2
UndoRedoHistory
Layer: 1
Undoes
UndoOperation
Index: 0
Type: 12
WasModified: 0
WasOrder2: 0
Layer: 0
EndUndoOperation
EndUndoes
Redoes
EndRedoes
EndUndoRedoHistory
Fore
SplineSet
660.295651596 689.526367188 m 0
 631.232255763 694.422851562 525.034955772 699.443359375 469.966108835 699.443359375 c 0
 413.762137501 699.443359375 305.455382053 696.21875 276.698259243 691.373046875 c 0
 237.376631291 684.75 210.922298785 664.169921875 205.02941437 631.170898438 c 0
 192.591992188 561.0234375 189.939453125 495.403320312 189.939453125 397.143554688 c 0
 189.939453125 300.10546875 193.448046875 236.436523438 206.00948805 166.020507812 c 0
 211.902372465 133.022460938 238.355747866 112.443359375 277.67737582 105.819335938 c 0
 316.601805944 99.2626953125 393.337555169 96.328125 469.52201295 96.328125 c 0
 545.994558793 96.328125 622.93704231 97.513671875 661.274768172 103.97265625 c 0
 700.598310331 110.596679688 727.05072863 131.176757812 732.942655942 164.173828125 c 0
 745.380957032 234.325195312 748.032617188 299.950195312 748.032617188 397.143554688 c 0
 748.032617188 495.25 744.524023437 558.913085938 731.962582263 629.32421875 c 0
 726.070654951 662.322265625 699.619193756 682.903320312 660.295651596 689.526367188 c 0
74 391.3984375 m 0
 74 393.267578125 74 395.142578125 74 397.024414062 c 0
 74 642.032226562 83.8408203125 762.043945312 226.802555114 795.374023438 c 0
 275.266432854 807.53515625 460.018935256 808.329101562 469.966108835 808.329101562 c 0
 472.382794421 808.329101562 662.373522648 807.903320312 711.295852821 795.341796875 c 0
 749.786523438 785.973632812 813.325585938 763.64453125 836.84609375 692.900390625 c 0
 859.1546875 625.798828125 863.972070313 517.578125 863.972070313 397.020507812 c 0
 863.972070313 125.765625 845.048242188 25.8671875 710.232511163 -0.2802734375 c 0
 660.641165852 -10.625 562.804162331 -12.1962890625 469.653136088 -12.1962890625 c 0
 376.258048528 -12.1962890625 277.398858788 -11.6396484375 227.292591953 -0.181640625 c 0
 74.650390625 32.2353515625 74 172.166992188 74 391.3984375 c 0
554.252445221 943 m 2
 573.853918799 943 l 2
 603.380552582 943 627.757971139 918.126953125 627.757971139 888 c 2
 627.757971139 863 627.757971139 842 627.757971139 867 c 2
 627.757971139 836.873046875 603.380552582 812 573.853918799 812 c 2
 554.252445221 812 l 2
 524.725811438 812 500.348392881 836.873046875 500.348392881 867 c 2
 500.348392881 842 500.348392881 863 500.348392881 888 c 2
 500.348392881 918.126953125 524.725811438 943 554.252445221 943 c 2
312.174246531 888 m 2
 312.174246531 918.126953125 336.551665087 943 366.078298871 943 c 2
 385.67977245 943 l 2
 415.206406233 943 439.583824789 918.126953125 439.583824789 888 c 2
 439.583824789 863 439.583824789 842 439.583824789 867 c 2
 439.583824789 836.873046875 415.206406233 812 385.67977245 812 c 2
 366.078298871 812 l 2
 336.551665087 812 312.174246531 836.873046875 312.174246531 867 c 2
 312.174246531 842 312.174246531 863 312.174246531 888 c 2
EndSplineSet
Validated: 5
EndChar

